G04 #@! TF.FileFunction,Soldermask,Bot*
%FSLAX46Y46*%
G04 Gerber Fmt 4.6, Leading zero omitted, Abs format (unit mm)*
G04 Created by KiCad (PCBNEW 4.0.7) date Sunday, 25 '25e' March '25e' 2018, 13:05:41*
%MOMM*%
%LPD*%
G01*
G04 APERTURE LIST*
%ADD10C,0.100000*%
%ADD11R,2.000000X2.000000*%
%ADD12C,2.000000*%
%ADD13R,2.200000X2.200000*%
%ADD14C,2.200000*%
%ADD15R,2.100000X2.100000*%
%ADD16O,2.100000X2.100000*%
%ADD17R,2.398980X2.398980*%
%ADD18C,4.400000*%
%ADD19O,2.127200X2.127200*%
%ADD20C,3.600000*%
%ADD21O,3.100000X2.100000*%
%ADD22O,2.100000X1.400000*%
G04 APERTURE END LIST*
D10*
D11*
X151000000Y-51000000D03*
D12*
X153500000Y-51000000D03*
D13*
X151000000Y-31000000D03*
D14*
X153540000Y-31000000D03*
D15*
X149000000Y-56000000D03*
D16*
X149000000Y-58540000D03*
D17*
X161498740Y-51000000D03*
X171501260Y-51000000D03*
X200501260Y-51000000D03*
X190498740Y-51000000D03*
D14*
X193000000Y-69000000D03*
X195500000Y-69000000D03*
X198000000Y-69000000D03*
D18*
X191100000Y-62000000D03*
X199900000Y-62000000D03*
D14*
X164000000Y-69000000D03*
X166500000Y-69000000D03*
X169000000Y-69000000D03*
D18*
X162100000Y-62000000D03*
X170900000Y-62000000D03*
D19*
X210627000Y-54600000D03*
X213167000Y-54600000D03*
X213167000Y-52060000D03*
X210627000Y-52060000D03*
X213167000Y-49520000D03*
X197800000Y-77460000D03*
X192720000Y-77460000D03*
X190180000Y-77460000D03*
X187640000Y-77460000D03*
X185100000Y-77460000D03*
X182560000Y-77460000D03*
X180020000Y-77460000D03*
X177480000Y-77460000D03*
X210500000Y-29200000D03*
X207960000Y-29200000D03*
X205420000Y-29200000D03*
X202880000Y-29200000D03*
X200340000Y-29200000D03*
X197800000Y-29200000D03*
X195260000Y-29200000D03*
X192720000Y-29200000D03*
X173416000Y-29200000D03*
X188656000Y-29200000D03*
X186116000Y-29200000D03*
X183576000Y-29200000D03*
D20*
X213040000Y-72380000D03*
X213040000Y-44440000D03*
X162240000Y-29200000D03*
X160970000Y-77460000D03*
D19*
X165796000Y-29200000D03*
X168336000Y-29200000D03*
X170876000Y-29200000D03*
X175956000Y-29200000D03*
X178496000Y-29200000D03*
X181036000Y-29200000D03*
X174940000Y-77460000D03*
X200340000Y-77460000D03*
X202880000Y-77460000D03*
X205420000Y-77460000D03*
X207960000Y-77460000D03*
X210500000Y-77460000D03*
X210627000Y-49520000D03*
D21*
X208000000Y-36800000D03*
D22*
X208000000Y-38900000D03*
X208000000Y-40900000D03*
X208000000Y-42900000D03*
D21*
X208000000Y-45000000D03*
X200000000Y-36800000D03*
D22*
X200000000Y-38900000D03*
X200000000Y-40900000D03*
X200000000Y-42900000D03*
D21*
X200000000Y-45000000D03*
X192000000Y-36800000D03*
D22*
X192000000Y-38900000D03*
X192000000Y-40900000D03*
X192000000Y-42900000D03*
D21*
X192000000Y-45000000D03*
X184000000Y-36800000D03*
D22*
X184000000Y-38900000D03*
X184000000Y-40900000D03*
X184000000Y-42900000D03*
D21*
X184000000Y-45000000D03*
X176000000Y-36800000D03*
D22*
X176000000Y-38900000D03*
X176000000Y-40900000D03*
X176000000Y-42900000D03*
D21*
X176000000Y-45000000D03*
X168000000Y-36800000D03*
D22*
X168000000Y-38900000D03*
X168000000Y-40900000D03*
X168000000Y-42900000D03*
D21*
X168000000Y-45000000D03*
X160000000Y-36800000D03*
D22*
X160000000Y-38900000D03*
X160000000Y-40900000D03*
X160000000Y-42900000D03*
D21*
X160000000Y-45000000D03*
X152000000Y-36800000D03*
D22*
X152000000Y-38900000D03*
X152000000Y-40900000D03*
X152000000Y-42900000D03*
D21*
X152000000Y-45000000D03*
X212000000Y-59800000D03*
D22*
X212000000Y-61900000D03*
X212000000Y-63900000D03*
X212000000Y-65900000D03*
D21*
X212000000Y-68000000D03*
D17*
X186001260Y-51000000D03*
X175998740Y-51000000D03*
M02*
