G04 #@! TF.FileFunction,Copper,L2,Bot,Signal*
%FSLAX46Y46*%
G04 Gerber Fmt 4.6, Leading zero omitted, Abs format (unit mm)*
G04 Created by KiCad (PCBNEW 4.0.7) date Sunday, 25 '25e' March '25e' 2018, 12:09:58*
%MOMM*%
%LPD*%
G01*
G04 APERTURE LIST*
%ADD10C,0.100000*%
%ADD11R,1.600000X1.600000*%
%ADD12C,1.600000*%
%ADD13R,1.800000X1.800000*%
%ADD14C,1.800000*%
%ADD15R,1.700000X1.700000*%
%ADD16O,1.700000X1.700000*%
%ADD17R,1.998980X1.998980*%
%ADD18C,4.000000*%
%ADD19O,1.727200X1.727200*%
%ADD20O,2.700000X1.700000*%
%ADD21O,1.700000X1.000000*%
%ADD22C,0.600000*%
%ADD23C,1.000000*%
%ADD24C,0.600000*%
%ADD25C,0.025400*%
G04 APERTURE END LIST*
D10*
D11*
X151000000Y-51000000D03*
D12*
X153500000Y-51000000D03*
X183500000Y-51000000D03*
X178500000Y-51000000D03*
D13*
X151000000Y-31000000D03*
D14*
X153540000Y-31000000D03*
D15*
X149000000Y-56000000D03*
D16*
X149000000Y-58540000D03*
D17*
X161498740Y-51000000D03*
X171501260Y-51000000D03*
X200501260Y-51000000D03*
X190498740Y-51000000D03*
D14*
X193000000Y-69000000D03*
X195500000Y-69000000D03*
X198000000Y-69000000D03*
D18*
X191100000Y-62000000D03*
X199900000Y-62000000D03*
D14*
X164000000Y-69000000D03*
X166500000Y-69000000D03*
X169000000Y-69000000D03*
D18*
X162100000Y-62000000D03*
X170900000Y-62000000D03*
D19*
X210627000Y-54600000D03*
X213167000Y-54600000D03*
X213167000Y-52060000D03*
X210627000Y-52060000D03*
X213167000Y-49520000D03*
X197800000Y-77460000D03*
X192720000Y-77460000D03*
X190180000Y-77460000D03*
X187640000Y-77460000D03*
X185100000Y-77460000D03*
X182560000Y-77460000D03*
X180020000Y-77460000D03*
X177480000Y-77460000D03*
X210500000Y-29200000D03*
X207960000Y-29200000D03*
X205420000Y-29200000D03*
X202880000Y-29200000D03*
X200340000Y-29200000D03*
X197800000Y-29200000D03*
X195260000Y-29200000D03*
X192720000Y-29200000D03*
X173416000Y-29200000D03*
X188656000Y-29200000D03*
X186116000Y-29200000D03*
X183576000Y-29200000D03*
X165796000Y-29200000D03*
X168336000Y-29200000D03*
X170876000Y-29200000D03*
X175956000Y-29200000D03*
X178496000Y-29200000D03*
X181036000Y-29200000D03*
X174940000Y-77460000D03*
X200340000Y-77460000D03*
X202880000Y-77460000D03*
X205420000Y-77460000D03*
X207960000Y-77460000D03*
X210500000Y-77460000D03*
X210627000Y-49520000D03*
D20*
X208000000Y-36800000D03*
D21*
X208000000Y-38900000D03*
X208000000Y-40900000D03*
X208000000Y-42900000D03*
D20*
X208000000Y-45000000D03*
X200000000Y-36800000D03*
D21*
X200000000Y-38900000D03*
X200000000Y-40900000D03*
X200000000Y-42900000D03*
D20*
X200000000Y-45000000D03*
X192000000Y-36800000D03*
D21*
X192000000Y-38900000D03*
X192000000Y-40900000D03*
X192000000Y-42900000D03*
D20*
X192000000Y-45000000D03*
X184000000Y-36800000D03*
D21*
X184000000Y-38900000D03*
X184000000Y-40900000D03*
X184000000Y-42900000D03*
D20*
X184000000Y-45000000D03*
X176000000Y-36800000D03*
D21*
X176000000Y-38900000D03*
X176000000Y-40900000D03*
X176000000Y-42900000D03*
D20*
X176000000Y-45000000D03*
X168000000Y-36800000D03*
D21*
X168000000Y-38900000D03*
X168000000Y-40900000D03*
X168000000Y-42900000D03*
D20*
X168000000Y-45000000D03*
X160000000Y-36800000D03*
D21*
X160000000Y-38900000D03*
X160000000Y-40900000D03*
X160000000Y-42900000D03*
D20*
X160000000Y-45000000D03*
X152000000Y-36800000D03*
D21*
X152000000Y-38900000D03*
X152000000Y-40900000D03*
X152000000Y-42900000D03*
D20*
X152000000Y-45000000D03*
X212000000Y-59800000D03*
D21*
X212000000Y-61900000D03*
X212000000Y-63900000D03*
X212000000Y-65900000D03*
D20*
X212000000Y-68000000D03*
D22*
X154100000Y-72200000D03*
X152100000Y-70200000D03*
X163900000Y-40900000D03*
X172250000Y-30500000D03*
X172775000Y-40900000D03*
X170225000Y-40875000D03*
X185700000Y-47900000D03*
X198550000Y-73950000D03*
X196200000Y-71700000D03*
X186375000Y-75250000D03*
X183800000Y-75250000D03*
X170500000Y-37250000D03*
X172750000Y-37250000D03*
X172750000Y-35000000D03*
X170500000Y-35000000D03*
X170500000Y-33250000D03*
X174750000Y-33250000D03*
D23*
X152100000Y-70200000D02*
X154100000Y-72200000D01*
X163900000Y-36100000D02*
X163900000Y-40900000D01*
X168500000Y-31500000D02*
X163900000Y-36100000D01*
X171250000Y-31500000D02*
X168500000Y-31500000D01*
X172250000Y-30500000D02*
X171250000Y-31500000D01*
X172775000Y-40900000D02*
X172750000Y-40875000D01*
X172750000Y-40875000D02*
X170225000Y-40875000D01*
D24*
X148300000Y-33700000D02*
X151000000Y-31000000D01*
X148300000Y-46100000D02*
X148300000Y-33700000D01*
X150000000Y-47800000D02*
X148300000Y-46100000D01*
X185600000Y-47800000D02*
X150000000Y-47800000D01*
X185700000Y-47900000D02*
X185600000Y-47800000D01*
X198450000Y-73950000D02*
X198550000Y-73950000D01*
X196200000Y-71700000D02*
X198450000Y-73950000D01*
X183800000Y-75250000D02*
X186375000Y-75250000D01*
X172750000Y-37250000D02*
X170500000Y-37250000D01*
X170500000Y-35000000D02*
X172750000Y-35000000D01*
X174750000Y-33250000D02*
X170500000Y-33250000D01*
X212000000Y-61900000D02*
X211300000Y-61900000D01*
X211300000Y-61900000D02*
X203800000Y-54400000D01*
X203800000Y-54400000D02*
X203800000Y-34600000D01*
X203800000Y-34600000D02*
X201100000Y-31900000D01*
X201100000Y-31900000D02*
X186276000Y-31900000D01*
X186276000Y-31900000D02*
X183576000Y-29200000D01*
D25*
G36*
X161044815Y-27407896D02*
X160449985Y-28001689D01*
X160127668Y-28777914D01*
X160126934Y-29618398D01*
X160447896Y-30395185D01*
X161041689Y-30990015D01*
X161817914Y-31312332D01*
X162658398Y-31313066D01*
X163435185Y-30992104D01*
X164030015Y-30398311D01*
X164352332Y-29622086D01*
X164352700Y-29200000D01*
X164392737Y-29200000D01*
X164497502Y-29726687D01*
X164795846Y-30173191D01*
X165242350Y-30471535D01*
X165769037Y-30576300D01*
X165822963Y-30576300D01*
X166349650Y-30471535D01*
X166796154Y-30173191D01*
X167066000Y-29769337D01*
X167335846Y-30173191D01*
X167782350Y-30471535D01*
X168309037Y-30576300D01*
X168362963Y-30576300D01*
X168889650Y-30471535D01*
X169336154Y-30173191D01*
X169606000Y-29769337D01*
X169875846Y-30173191D01*
X170322350Y-30471535D01*
X170849037Y-30576300D01*
X170902963Y-30576300D01*
X171429650Y-30471535D01*
X171876154Y-30173191D01*
X172152291Y-29759923D01*
X172171374Y-29806010D01*
X172498026Y-30236178D01*
X172964431Y-30508597D01*
X173174700Y-30432952D01*
X173174700Y-29441300D01*
X173154700Y-29441300D01*
X173154700Y-28958700D01*
X173174700Y-28958700D01*
X173174700Y-27967048D01*
X173657300Y-27967048D01*
X173657300Y-28958700D01*
X173677300Y-28958700D01*
X173677300Y-29441300D01*
X173657300Y-29441300D01*
X173657300Y-30432952D01*
X173867569Y-30508597D01*
X174333974Y-30236178D01*
X174660626Y-29806010D01*
X174679709Y-29759923D01*
X174955846Y-30173191D01*
X175402350Y-30471535D01*
X175929037Y-30576300D01*
X175982963Y-30576300D01*
X176509650Y-30471535D01*
X176956154Y-30173191D01*
X177226000Y-29769337D01*
X177495846Y-30173191D01*
X177942350Y-30471535D01*
X178469037Y-30576300D01*
X178522963Y-30576300D01*
X179049650Y-30471535D01*
X179496154Y-30173191D01*
X179766000Y-29769337D01*
X180035846Y-30173191D01*
X180482350Y-30471535D01*
X181009037Y-30576300D01*
X181062963Y-30576300D01*
X181589650Y-30471535D01*
X182036154Y-30173191D01*
X182306000Y-29769337D01*
X182575846Y-30173191D01*
X183022350Y-30471535D01*
X183549037Y-30576300D01*
X183602963Y-30576300D01*
X183769785Y-30543117D01*
X185701332Y-32474663D01*
X185701334Y-32474666D01*
X185829981Y-32560625D01*
X185964993Y-32650837D01*
X186276000Y-32712701D01*
X186276005Y-32712700D01*
X200763368Y-32712700D01*
X202987300Y-34936631D01*
X202987300Y-54400000D01*
X203049163Y-54711007D01*
X203225334Y-54974666D01*
X210725332Y-62474663D01*
X210725334Y-62474666D01*
X210883205Y-62580152D01*
X210907216Y-62616087D01*
X211235759Y-62835613D01*
X211496430Y-62887463D01*
X211202702Y-62962037D01*
X210877808Y-63204609D01*
X210708190Y-63506524D01*
X210792790Y-63658700D01*
X211758700Y-63658700D01*
X211758700Y-63638700D01*
X212241300Y-63638700D01*
X212241300Y-63658700D01*
X213207210Y-63658700D01*
X213291810Y-63506524D01*
X213122192Y-63204609D01*
X212797298Y-62962037D01*
X212503570Y-62887463D01*
X212764241Y-62835613D01*
X213092784Y-62616087D01*
X213312310Y-62287544D01*
X213389397Y-61900000D01*
X213312310Y-61512456D01*
X213092784Y-61183913D01*
X212940706Y-61082297D01*
X213057975Y-61058971D01*
X213500066Y-60763574D01*
X213795463Y-60321483D01*
X213899192Y-59800000D01*
X213795463Y-59278517D01*
X213500066Y-58836426D01*
X213057975Y-58541029D01*
X212536492Y-58437300D01*
X211463508Y-58437300D01*
X210942025Y-58541029D01*
X210499934Y-58836426D01*
X210204537Y-59278517D01*
X210142041Y-59592709D01*
X204612700Y-54063368D01*
X204612700Y-49520000D01*
X209223737Y-49520000D01*
X209328502Y-50046687D01*
X209626846Y-50493191D01*
X210071053Y-50790000D01*
X209626846Y-51086809D01*
X209328502Y-51533313D01*
X209223737Y-52060000D01*
X209328502Y-52586687D01*
X209626846Y-53033191D01*
X210071053Y-53330000D01*
X209626846Y-53626809D01*
X209328502Y-54073313D01*
X209223737Y-54600000D01*
X209328502Y-55126687D01*
X209626846Y-55573191D01*
X210073350Y-55871535D01*
X210600037Y-55976300D01*
X210653963Y-55976300D01*
X211180650Y-55871535D01*
X211627154Y-55573191D01*
X211897000Y-55169337D01*
X212166846Y-55573191D01*
X212613350Y-55871535D01*
X213140037Y-55976300D01*
X213193963Y-55976300D01*
X213720650Y-55871535D01*
X214167154Y-55573191D01*
X214465498Y-55126687D01*
X214570263Y-54600000D01*
X214465498Y-54073313D01*
X214167154Y-53626809D01*
X213722947Y-53330000D01*
X214167154Y-53033191D01*
X214465498Y-52586687D01*
X214570263Y-52060000D01*
X214465498Y-51533313D01*
X214167154Y-51086809D01*
X213722947Y-50790000D01*
X214167154Y-50493191D01*
X214465498Y-50046687D01*
X214570263Y-49520000D01*
X214465498Y-48993313D01*
X214167154Y-48546809D01*
X213720650Y-48248465D01*
X213193963Y-48143700D01*
X213140037Y-48143700D01*
X212613350Y-48248465D01*
X212166846Y-48546809D01*
X211897000Y-48950663D01*
X211627154Y-48546809D01*
X211180650Y-48248465D01*
X210653963Y-48143700D01*
X210600037Y-48143700D01*
X210073350Y-48248465D01*
X209626846Y-48546809D01*
X209328502Y-48993313D01*
X209223737Y-49520000D01*
X204612700Y-49520000D01*
X204612700Y-45000000D01*
X206100808Y-45000000D01*
X206204537Y-45521483D01*
X206499934Y-45963574D01*
X206942025Y-46258971D01*
X207463508Y-46362700D01*
X208536492Y-46362700D01*
X209057975Y-46258971D01*
X209500066Y-45963574D01*
X209795463Y-45521483D01*
X209899192Y-45000000D01*
X209795463Y-44478517D01*
X209500066Y-44036426D01*
X209057975Y-43741029D01*
X208940706Y-43717703D01*
X209092784Y-43616087D01*
X209312310Y-43287544D01*
X209389397Y-42900000D01*
X209312310Y-42512456D01*
X209092784Y-42183913D01*
X208764241Y-41964387D01*
X208503570Y-41912537D01*
X208797298Y-41837963D01*
X209122192Y-41595391D01*
X209291810Y-41293476D01*
X209207210Y-41141300D01*
X208241300Y-41141300D01*
X208241300Y-41161300D01*
X207758700Y-41161300D01*
X207758700Y-41141300D01*
X206792790Y-41141300D01*
X206708190Y-41293476D01*
X206877808Y-41595391D01*
X207202702Y-41837963D01*
X207496430Y-41912537D01*
X207235759Y-41964387D01*
X206907216Y-42183913D01*
X206687690Y-42512456D01*
X206610603Y-42900000D01*
X206687690Y-43287544D01*
X206907216Y-43616087D01*
X207059294Y-43717703D01*
X206942025Y-43741029D01*
X206499934Y-44036426D01*
X206204537Y-44478517D01*
X206100808Y-45000000D01*
X204612700Y-45000000D01*
X204612700Y-36800000D01*
X206100808Y-36800000D01*
X206204537Y-37321483D01*
X206499934Y-37763574D01*
X206942025Y-38058971D01*
X207059294Y-38082297D01*
X206907216Y-38183913D01*
X206687690Y-38512456D01*
X206610603Y-38900000D01*
X206687690Y-39287544D01*
X206907216Y-39616087D01*
X207235759Y-39835613D01*
X207496430Y-39887463D01*
X207202702Y-39962037D01*
X206877808Y-40204609D01*
X206708190Y-40506524D01*
X206792790Y-40658700D01*
X207758700Y-40658700D01*
X207758700Y-40638700D01*
X208241300Y-40638700D01*
X208241300Y-40658700D01*
X209207210Y-40658700D01*
X209291810Y-40506524D01*
X209122192Y-40204609D01*
X208797298Y-39962037D01*
X208503570Y-39887463D01*
X208764241Y-39835613D01*
X209092784Y-39616087D01*
X209312310Y-39287544D01*
X209389397Y-38900000D01*
X209312310Y-38512456D01*
X209092784Y-38183913D01*
X208940706Y-38082297D01*
X209057975Y-38058971D01*
X209500066Y-37763574D01*
X209795463Y-37321483D01*
X209899192Y-36800000D01*
X209795463Y-36278517D01*
X209500066Y-35836426D01*
X209057975Y-35541029D01*
X208536492Y-35437300D01*
X207463508Y-35437300D01*
X206942025Y-35541029D01*
X206499934Y-35836426D01*
X206204537Y-36278517D01*
X206100808Y-36800000D01*
X204612700Y-36800000D01*
X204612700Y-34600005D01*
X204612701Y-34600000D01*
X204550837Y-34288993D01*
X204399633Y-34062700D01*
X204374666Y-34025334D01*
X204374663Y-34025332D01*
X201674666Y-31325334D01*
X201411007Y-31149163D01*
X201100000Y-31087300D01*
X186612631Y-31087300D01*
X186101631Y-30576300D01*
X186142963Y-30576300D01*
X186669650Y-30471535D01*
X187116154Y-30173191D01*
X187386000Y-29769337D01*
X187655846Y-30173191D01*
X188102350Y-30471535D01*
X188629037Y-30576300D01*
X188682963Y-30576300D01*
X189209650Y-30471535D01*
X189656154Y-30173191D01*
X189954498Y-29726687D01*
X190059263Y-29200000D01*
X191316737Y-29200000D01*
X191421502Y-29726687D01*
X191719846Y-30173191D01*
X192166350Y-30471535D01*
X192693037Y-30576300D01*
X192746963Y-30576300D01*
X193273650Y-30471535D01*
X193720154Y-30173191D01*
X193990000Y-29769337D01*
X194259846Y-30173191D01*
X194706350Y-30471535D01*
X195233037Y-30576300D01*
X195286963Y-30576300D01*
X195813650Y-30471535D01*
X196260154Y-30173191D01*
X196530000Y-29769337D01*
X196799846Y-30173191D01*
X197246350Y-30471535D01*
X197773037Y-30576300D01*
X197826963Y-30576300D01*
X198353650Y-30471535D01*
X198800154Y-30173191D01*
X199070000Y-29769337D01*
X199339846Y-30173191D01*
X199786350Y-30471535D01*
X200313037Y-30576300D01*
X200366963Y-30576300D01*
X200893650Y-30471535D01*
X201340154Y-30173191D01*
X201610000Y-29769337D01*
X201879846Y-30173191D01*
X202326350Y-30471535D01*
X202853037Y-30576300D01*
X202906963Y-30576300D01*
X203433650Y-30471535D01*
X203880154Y-30173191D01*
X204150000Y-29769337D01*
X204419846Y-30173191D01*
X204866350Y-30471535D01*
X205393037Y-30576300D01*
X205446963Y-30576300D01*
X205973650Y-30471535D01*
X206420154Y-30173191D01*
X206690000Y-29769337D01*
X206959846Y-30173191D01*
X207406350Y-30471535D01*
X207933037Y-30576300D01*
X207986963Y-30576300D01*
X208513650Y-30471535D01*
X208960154Y-30173191D01*
X209230000Y-29769337D01*
X209499846Y-30173191D01*
X209946350Y-30471535D01*
X210473037Y-30576300D01*
X210526963Y-30576300D01*
X211053650Y-30471535D01*
X211500154Y-30173191D01*
X211798498Y-29726687D01*
X211903263Y-29200000D01*
X211798498Y-28673313D01*
X211500154Y-28226809D01*
X211053650Y-27928465D01*
X210526963Y-27823700D01*
X210473037Y-27823700D01*
X209946350Y-27928465D01*
X209499846Y-28226809D01*
X209230000Y-28630663D01*
X208960154Y-28226809D01*
X208513650Y-27928465D01*
X207986963Y-27823700D01*
X207933037Y-27823700D01*
X207406350Y-27928465D01*
X206959846Y-28226809D01*
X206690000Y-28630663D01*
X206420154Y-28226809D01*
X205973650Y-27928465D01*
X205446963Y-27823700D01*
X205393037Y-27823700D01*
X204866350Y-27928465D01*
X204419846Y-28226809D01*
X204150000Y-28630663D01*
X203880154Y-28226809D01*
X203433650Y-27928465D01*
X202906963Y-27823700D01*
X202853037Y-27823700D01*
X202326350Y-27928465D01*
X201879846Y-28226809D01*
X201610000Y-28630663D01*
X201340154Y-28226809D01*
X200893650Y-27928465D01*
X200366963Y-27823700D01*
X200313037Y-27823700D01*
X199786350Y-27928465D01*
X199339846Y-28226809D01*
X199070000Y-28630663D01*
X198800154Y-28226809D01*
X198353650Y-27928465D01*
X197826963Y-27823700D01*
X197773037Y-27823700D01*
X197246350Y-27928465D01*
X196799846Y-28226809D01*
X196530000Y-28630663D01*
X196260154Y-28226809D01*
X195813650Y-27928465D01*
X195286963Y-27823700D01*
X195233037Y-27823700D01*
X194706350Y-27928465D01*
X194259846Y-28226809D01*
X193990000Y-28630663D01*
X193720154Y-28226809D01*
X193273650Y-27928465D01*
X192746963Y-27823700D01*
X192693037Y-27823700D01*
X192166350Y-27928465D01*
X191719846Y-28226809D01*
X191421502Y-28673313D01*
X191316737Y-29200000D01*
X190059263Y-29200000D01*
X189954498Y-28673313D01*
X189656154Y-28226809D01*
X189209650Y-27928465D01*
X188682963Y-27823700D01*
X188629037Y-27823700D01*
X188102350Y-27928465D01*
X187655846Y-28226809D01*
X187386000Y-28630663D01*
X187116154Y-28226809D01*
X186669650Y-27928465D01*
X186142963Y-27823700D01*
X186089037Y-27823700D01*
X185562350Y-27928465D01*
X185115846Y-28226809D01*
X184846000Y-28630663D01*
X184576154Y-28226809D01*
X184129650Y-27928465D01*
X183602963Y-27823700D01*
X183549037Y-27823700D01*
X183022350Y-27928465D01*
X182575846Y-28226809D01*
X182306000Y-28630663D01*
X182036154Y-28226809D01*
X181589650Y-27928465D01*
X181062963Y-27823700D01*
X181009037Y-27823700D01*
X180482350Y-27928465D01*
X180035846Y-28226809D01*
X179766000Y-28630663D01*
X179496154Y-28226809D01*
X179049650Y-27928465D01*
X178522963Y-27823700D01*
X178469037Y-27823700D01*
X177942350Y-27928465D01*
X177495846Y-28226809D01*
X177226000Y-28630663D01*
X176956154Y-28226809D01*
X176509650Y-27928465D01*
X175982963Y-27823700D01*
X175929037Y-27823700D01*
X175402350Y-27928465D01*
X174955846Y-28226809D01*
X174679709Y-28640077D01*
X174660626Y-28593990D01*
X174333974Y-28163822D01*
X173867569Y-27891403D01*
X173657300Y-27967048D01*
X173174700Y-27967048D01*
X172964431Y-27891403D01*
X172498026Y-28163822D01*
X172171374Y-28593990D01*
X172152291Y-28640077D01*
X171876154Y-28226809D01*
X171429650Y-27928465D01*
X170902963Y-27823700D01*
X170849037Y-27823700D01*
X170322350Y-27928465D01*
X169875846Y-28226809D01*
X169606000Y-28630663D01*
X169336154Y-28226809D01*
X168889650Y-27928465D01*
X168362963Y-27823700D01*
X168309037Y-27823700D01*
X167782350Y-27928465D01*
X167335846Y-28226809D01*
X167066000Y-28630663D01*
X166796154Y-28226809D01*
X166349650Y-27928465D01*
X165822963Y-27823700D01*
X165769037Y-27823700D01*
X165242350Y-27928465D01*
X164795846Y-28226809D01*
X164497502Y-28673313D01*
X164392737Y-29200000D01*
X164352700Y-29200000D01*
X164353066Y-28781602D01*
X164032104Y-28004815D01*
X163438311Y-27409985D01*
X163083610Y-27262700D01*
X211281566Y-27262700D01*
X212437300Y-28418433D01*
X212437300Y-39350000D01*
X212482036Y-39574903D01*
X212609433Y-39765567D01*
X214987300Y-42143433D01*
X214987300Y-43620418D01*
X214832104Y-43244815D01*
X214238311Y-42649985D01*
X213462086Y-42327668D01*
X212621602Y-42326934D01*
X211844815Y-42647896D01*
X211249985Y-43241689D01*
X210927668Y-44017914D01*
X210926934Y-44858398D01*
X211247896Y-45635185D01*
X211841689Y-46230015D01*
X212617914Y-46552332D01*
X213458398Y-46553066D01*
X214235185Y-46232104D01*
X214830015Y-45638311D01*
X214987300Y-45259527D01*
X214987300Y-71560418D01*
X214832104Y-71184815D01*
X214238311Y-70589985D01*
X213462086Y-70267668D01*
X212621602Y-70266934D01*
X211844815Y-70587896D01*
X211249985Y-71181689D01*
X210927668Y-71957914D01*
X210926934Y-72798398D01*
X211247896Y-73575185D01*
X211841689Y-74170015D01*
X212617914Y-74492332D01*
X213458398Y-74493066D01*
X214235185Y-74172104D01*
X214830015Y-73578311D01*
X214987300Y-73199527D01*
X214987300Y-75956567D01*
X212634433Y-78309433D01*
X212507036Y-78500097D01*
X212462300Y-78725000D01*
X212462300Y-79412300D01*
X161777481Y-79412300D01*
X162165185Y-79252104D01*
X162760015Y-78658311D01*
X163082332Y-77882086D01*
X163082700Y-77460000D01*
X173536737Y-77460000D01*
X173641502Y-77986687D01*
X173939846Y-78433191D01*
X174386350Y-78731535D01*
X174913037Y-78836300D01*
X174966963Y-78836300D01*
X175493650Y-78731535D01*
X175940154Y-78433191D01*
X176210000Y-78029337D01*
X176479846Y-78433191D01*
X176926350Y-78731535D01*
X177453037Y-78836300D01*
X177506963Y-78836300D01*
X178033650Y-78731535D01*
X178480154Y-78433191D01*
X178750000Y-78029337D01*
X179019846Y-78433191D01*
X179466350Y-78731535D01*
X179993037Y-78836300D01*
X180046963Y-78836300D01*
X180573650Y-78731535D01*
X181020154Y-78433191D01*
X181290000Y-78029337D01*
X181559846Y-78433191D01*
X182006350Y-78731535D01*
X182533037Y-78836300D01*
X182586963Y-78836300D01*
X183113650Y-78731535D01*
X183560154Y-78433191D01*
X183830000Y-78029337D01*
X184099846Y-78433191D01*
X184546350Y-78731535D01*
X185073037Y-78836300D01*
X185126963Y-78836300D01*
X185653650Y-78731535D01*
X186100154Y-78433191D01*
X186376291Y-78019923D01*
X186395374Y-78066010D01*
X186722026Y-78496178D01*
X187188431Y-78768597D01*
X187398700Y-78692952D01*
X187398700Y-77701300D01*
X187881300Y-77701300D01*
X187881300Y-78692952D01*
X188091569Y-78768597D01*
X188557974Y-78496178D01*
X188884626Y-78066010D01*
X188910000Y-78004731D01*
X188935374Y-78066010D01*
X189262026Y-78496178D01*
X189728431Y-78768597D01*
X189938700Y-78692952D01*
X189938700Y-77701300D01*
X188949308Y-77701300D01*
X188910000Y-77807420D01*
X188870692Y-77701300D01*
X187881300Y-77701300D01*
X187398700Y-77701300D01*
X187378700Y-77701300D01*
X187378700Y-77218700D01*
X187398700Y-77218700D01*
X187398700Y-76227048D01*
X187881300Y-76227048D01*
X187881300Y-77218700D01*
X188870692Y-77218700D01*
X188910000Y-77112580D01*
X188949308Y-77218700D01*
X189938700Y-77218700D01*
X189938700Y-76227048D01*
X190421300Y-76227048D01*
X190421300Y-77218700D01*
X190441300Y-77218700D01*
X190441300Y-77701300D01*
X190421300Y-77701300D01*
X190421300Y-78692952D01*
X190631569Y-78768597D01*
X191097974Y-78496178D01*
X191424626Y-78066010D01*
X191443709Y-78019923D01*
X191719846Y-78433191D01*
X192166350Y-78731535D01*
X192693037Y-78836300D01*
X192746963Y-78836300D01*
X193273650Y-78731535D01*
X193720154Y-78433191D01*
X194018498Y-77986687D01*
X194123263Y-77460000D01*
X196396737Y-77460000D01*
X196501502Y-77986687D01*
X196799846Y-78433191D01*
X197246350Y-78731535D01*
X197773037Y-78836300D01*
X197826963Y-78836300D01*
X198353650Y-78731535D01*
X198800154Y-78433191D01*
X199070000Y-78029337D01*
X199339846Y-78433191D01*
X199786350Y-78731535D01*
X200313037Y-78836300D01*
X200366963Y-78836300D01*
X200893650Y-78731535D01*
X201340154Y-78433191D01*
X201610000Y-78029337D01*
X201879846Y-78433191D01*
X202326350Y-78731535D01*
X202853037Y-78836300D01*
X202906963Y-78836300D01*
X203433650Y-78731535D01*
X203880154Y-78433191D01*
X204150000Y-78029337D01*
X204419846Y-78433191D01*
X204866350Y-78731535D01*
X205393037Y-78836300D01*
X205446963Y-78836300D01*
X205973650Y-78731535D01*
X206420154Y-78433191D01*
X206690000Y-78029337D01*
X206959846Y-78433191D01*
X207406350Y-78731535D01*
X207933037Y-78836300D01*
X207986963Y-78836300D01*
X208513650Y-78731535D01*
X208960154Y-78433191D01*
X209230000Y-78029337D01*
X209499846Y-78433191D01*
X209946350Y-78731535D01*
X210473037Y-78836300D01*
X210526963Y-78836300D01*
X211053650Y-78731535D01*
X211500154Y-78433191D01*
X211798498Y-77986687D01*
X211903263Y-77460000D01*
X211798498Y-76933313D01*
X211500154Y-76486809D01*
X211053650Y-76188465D01*
X210526963Y-76083700D01*
X210473037Y-76083700D01*
X209946350Y-76188465D01*
X209499846Y-76486809D01*
X209230000Y-76890663D01*
X208960154Y-76486809D01*
X208513650Y-76188465D01*
X207986963Y-76083700D01*
X207933037Y-76083700D01*
X207406350Y-76188465D01*
X206959846Y-76486809D01*
X206690000Y-76890663D01*
X206420154Y-76486809D01*
X205973650Y-76188465D01*
X205446963Y-76083700D01*
X205393037Y-76083700D01*
X204866350Y-76188465D01*
X204419846Y-76486809D01*
X204150000Y-76890663D01*
X203880154Y-76486809D01*
X203433650Y-76188465D01*
X202906963Y-76083700D01*
X202853037Y-76083700D01*
X202326350Y-76188465D01*
X201879846Y-76486809D01*
X201610000Y-76890663D01*
X201340154Y-76486809D01*
X200893650Y-76188465D01*
X200366963Y-76083700D01*
X200313037Y-76083700D01*
X199786350Y-76188465D01*
X199339846Y-76486809D01*
X199070000Y-76890663D01*
X198800154Y-76486809D01*
X198353650Y-76188465D01*
X197826963Y-76083700D01*
X197773037Y-76083700D01*
X197246350Y-76188465D01*
X196799846Y-76486809D01*
X196501502Y-76933313D01*
X196396737Y-77460000D01*
X194123263Y-77460000D01*
X194018498Y-76933313D01*
X193720154Y-76486809D01*
X193273650Y-76188465D01*
X192746963Y-76083700D01*
X192693037Y-76083700D01*
X192166350Y-76188465D01*
X191719846Y-76486809D01*
X191443709Y-76900077D01*
X191424626Y-76853990D01*
X191097974Y-76423822D01*
X190631569Y-76151403D01*
X190421300Y-76227048D01*
X189938700Y-76227048D01*
X189728431Y-76151403D01*
X189262026Y-76423822D01*
X188935374Y-76853990D01*
X188910000Y-76915269D01*
X188884626Y-76853990D01*
X188557974Y-76423822D01*
X188091569Y-76151403D01*
X187881300Y-76227048D01*
X187398700Y-76227048D01*
X187188431Y-76151403D01*
X186722026Y-76423822D01*
X186395374Y-76853990D01*
X186376291Y-76900077D01*
X186100154Y-76486809D01*
X185653650Y-76188465D01*
X185126963Y-76083700D01*
X185073037Y-76083700D01*
X184546350Y-76188465D01*
X184099846Y-76486809D01*
X183830000Y-76890663D01*
X183560154Y-76486809D01*
X183113650Y-76188465D01*
X182586963Y-76083700D01*
X182533037Y-76083700D01*
X182006350Y-76188465D01*
X181559846Y-76486809D01*
X181290000Y-76890663D01*
X181020154Y-76486809D01*
X180573650Y-76188465D01*
X180046963Y-76083700D01*
X179993037Y-76083700D01*
X179466350Y-76188465D01*
X179019846Y-76486809D01*
X178750000Y-76890663D01*
X178480154Y-76486809D01*
X178033650Y-76188465D01*
X177506963Y-76083700D01*
X177453037Y-76083700D01*
X176926350Y-76188465D01*
X176479846Y-76486809D01*
X176210000Y-76890663D01*
X175940154Y-76486809D01*
X175493650Y-76188465D01*
X174966963Y-76083700D01*
X174913037Y-76083700D01*
X174386350Y-76188465D01*
X173939846Y-76486809D01*
X173641502Y-76933313D01*
X173536737Y-77460000D01*
X163082700Y-77460000D01*
X163083066Y-77041602D01*
X162762104Y-76264815D01*
X162168311Y-75669985D01*
X161544479Y-75410947D01*
X182987159Y-75410947D01*
X183110625Y-75709756D01*
X183339041Y-75938572D01*
X183637635Y-76062559D01*
X183960947Y-76062841D01*
X183961288Y-76062700D01*
X186374291Y-76062700D01*
X186535947Y-76062841D01*
X186834756Y-75939375D01*
X187063572Y-75710959D01*
X187187559Y-75412365D01*
X187187841Y-75089053D01*
X187064375Y-74790244D01*
X186835959Y-74561428D01*
X186537365Y-74437441D01*
X186214053Y-74437159D01*
X186213712Y-74437300D01*
X183800709Y-74437300D01*
X183639053Y-74437159D01*
X183340244Y-74560625D01*
X183111428Y-74789041D01*
X182987441Y-75087635D01*
X182987159Y-75410947D01*
X161544479Y-75410947D01*
X161392086Y-75347668D01*
X160551602Y-75346934D01*
X159774815Y-75667896D01*
X159179985Y-76261689D01*
X158857668Y-77037914D01*
X158856934Y-77878398D01*
X159177896Y-78655185D01*
X159771689Y-79250015D01*
X160162514Y-79412300D01*
X147637034Y-79412300D01*
X147587700Y-79362956D01*
X147587700Y-71860947D01*
X195387159Y-71860947D01*
X195510625Y-72159756D01*
X195739041Y-72388572D01*
X195739381Y-72388713D01*
X197875332Y-74524663D01*
X197875334Y-74524666D01*
X198138993Y-74700837D01*
X198190593Y-74711101D01*
X198330944Y-74739019D01*
X198387635Y-74762559D01*
X198449558Y-74762613D01*
X198450000Y-74762701D01*
X198450005Y-74762700D01*
X198549291Y-74762700D01*
X198710947Y-74762841D01*
X199009756Y-74639375D01*
X199238572Y-74410959D01*
X199362559Y-74112365D01*
X199362841Y-73789053D01*
X199239375Y-73490244D01*
X199010959Y-73261428D01*
X198839608Y-73190277D01*
X196774666Y-71125334D01*
X196660959Y-71011428D01*
X196362365Y-70887441D01*
X196039053Y-70887159D01*
X195740244Y-71010625D01*
X195511428Y-71239041D01*
X195387441Y-71537635D01*
X195387159Y-71860947D01*
X147587700Y-71860947D01*
X147587700Y-70087097D01*
X163254153Y-70087097D01*
X163355686Y-70297346D01*
X163901204Y-70445160D01*
X164461763Y-70372962D01*
X164644314Y-70297346D01*
X164745847Y-70087097D01*
X164000000Y-69341250D01*
X163254153Y-70087097D01*
X147587700Y-70087097D01*
X147587700Y-68901204D01*
X162554840Y-68901204D01*
X162627038Y-69461763D01*
X162702654Y-69644314D01*
X162912903Y-69745847D01*
X163658750Y-69000000D01*
X164341250Y-69000000D01*
X165087097Y-69745847D01*
X165247607Y-69668334D01*
X165301673Y-69799185D01*
X165698725Y-70196930D01*
X166217764Y-70412454D01*
X166779770Y-70412944D01*
X167299185Y-70198327D01*
X167696930Y-69801275D01*
X167749864Y-69673796D01*
X167801673Y-69799185D01*
X168198725Y-70196930D01*
X168717764Y-70412454D01*
X169279770Y-70412944D01*
X169799185Y-70198327D01*
X169910609Y-70087097D01*
X192254153Y-70087097D01*
X192355686Y-70297346D01*
X192901204Y-70445160D01*
X193461763Y-70372962D01*
X193644314Y-70297346D01*
X193745847Y-70087097D01*
X193000000Y-69341250D01*
X192254153Y-70087097D01*
X169910609Y-70087097D01*
X170196930Y-69801275D01*
X170412454Y-69282236D01*
X170412786Y-68901204D01*
X191554840Y-68901204D01*
X191627038Y-69461763D01*
X191702654Y-69644314D01*
X191912903Y-69745847D01*
X192658750Y-69000000D01*
X193341250Y-69000000D01*
X194087097Y-69745847D01*
X194247607Y-69668334D01*
X194301673Y-69799185D01*
X194698725Y-70196930D01*
X195217764Y-70412454D01*
X195779770Y-70412944D01*
X196299185Y-70198327D01*
X196696930Y-69801275D01*
X196749864Y-69673796D01*
X196801673Y-69799185D01*
X197198725Y-70196930D01*
X197717764Y-70412454D01*
X198279770Y-70412944D01*
X198799185Y-70198327D01*
X199196930Y-69801275D01*
X199412454Y-69282236D01*
X199412944Y-68720230D01*
X199198327Y-68200815D01*
X198997862Y-68000000D01*
X210100808Y-68000000D01*
X210204537Y-68521483D01*
X210499934Y-68963574D01*
X210942025Y-69258971D01*
X211463508Y-69362700D01*
X212536492Y-69362700D01*
X213057975Y-69258971D01*
X213500066Y-68963574D01*
X213795463Y-68521483D01*
X213899192Y-68000000D01*
X213795463Y-67478517D01*
X213500066Y-67036426D01*
X213057975Y-66741029D01*
X212940706Y-66717703D01*
X213092784Y-66616087D01*
X213312310Y-66287544D01*
X213389397Y-65900000D01*
X213312310Y-65512456D01*
X213092784Y-65183913D01*
X212764241Y-64964387D01*
X212503570Y-64912537D01*
X212797298Y-64837963D01*
X213122192Y-64595391D01*
X213291810Y-64293476D01*
X213207210Y-64141300D01*
X212241300Y-64141300D01*
X212241300Y-64161300D01*
X211758700Y-64161300D01*
X211758700Y-64141300D01*
X210792790Y-64141300D01*
X210708190Y-64293476D01*
X210877808Y-64595391D01*
X211202702Y-64837963D01*
X211496430Y-64912537D01*
X211235759Y-64964387D01*
X210907216Y-65183913D01*
X210687690Y-65512456D01*
X210610603Y-65900000D01*
X210687690Y-66287544D01*
X210907216Y-66616087D01*
X211059294Y-66717703D01*
X210942025Y-66741029D01*
X210499934Y-67036426D01*
X210204537Y-67478517D01*
X210100808Y-68000000D01*
X198997862Y-68000000D01*
X198801275Y-67803070D01*
X198282236Y-67587546D01*
X197720230Y-67587056D01*
X197200815Y-67801673D01*
X196803070Y-68198725D01*
X196750136Y-68326204D01*
X196698327Y-68200815D01*
X196301275Y-67803070D01*
X195782236Y-67587546D01*
X195220230Y-67587056D01*
X194700815Y-67801673D01*
X194303070Y-68198725D01*
X194247824Y-68331771D01*
X194087097Y-68254153D01*
X193341250Y-69000000D01*
X192658750Y-69000000D01*
X191912903Y-68254153D01*
X191702654Y-68355686D01*
X191554840Y-68901204D01*
X170412786Y-68901204D01*
X170412944Y-68720230D01*
X170198327Y-68200815D01*
X169910917Y-67912903D01*
X192254153Y-67912903D01*
X193000000Y-68658750D01*
X193745847Y-67912903D01*
X193644314Y-67702654D01*
X193098796Y-67554840D01*
X192538237Y-67627038D01*
X192355686Y-67702654D01*
X192254153Y-67912903D01*
X169910917Y-67912903D01*
X169801275Y-67803070D01*
X169282236Y-67587546D01*
X168720230Y-67587056D01*
X168200815Y-67801673D01*
X167803070Y-68198725D01*
X167750136Y-68326204D01*
X167698327Y-68200815D01*
X167301275Y-67803070D01*
X166782236Y-67587546D01*
X166220230Y-67587056D01*
X165700815Y-67801673D01*
X165303070Y-68198725D01*
X165247824Y-68331771D01*
X165087097Y-68254153D01*
X164341250Y-69000000D01*
X163658750Y-69000000D01*
X162912903Y-68254153D01*
X162702654Y-68355686D01*
X162554840Y-68901204D01*
X147587700Y-68901204D01*
X147587700Y-67912903D01*
X163254153Y-67912903D01*
X164000000Y-68658750D01*
X164745847Y-67912903D01*
X164644314Y-67702654D01*
X164098796Y-67554840D01*
X163538237Y-67627038D01*
X163355686Y-67702654D01*
X163254153Y-67912903D01*
X147587700Y-67912903D01*
X147587700Y-62497614D01*
X159586865Y-62497614D01*
X159968594Y-63421471D01*
X160674811Y-64128922D01*
X161598000Y-64512263D01*
X162597614Y-64513135D01*
X163521471Y-64131406D01*
X164228922Y-63425189D01*
X164612263Y-62502000D01*
X164612266Y-62497614D01*
X168386865Y-62497614D01*
X168768594Y-63421471D01*
X169474811Y-64128922D01*
X170398000Y-64512263D01*
X171397614Y-64513135D01*
X172321471Y-64131406D01*
X173028922Y-63425189D01*
X173412263Y-62502000D01*
X173412266Y-62497614D01*
X188586865Y-62497614D01*
X188968594Y-63421471D01*
X189674811Y-64128922D01*
X190598000Y-64512263D01*
X191597614Y-64513135D01*
X192521471Y-64131406D01*
X193228922Y-63425189D01*
X193612263Y-62502000D01*
X193612266Y-62497614D01*
X197386865Y-62497614D01*
X197768594Y-63421471D01*
X198474811Y-64128922D01*
X199398000Y-64512263D01*
X200397614Y-64513135D01*
X201321471Y-64131406D01*
X202028922Y-63425189D01*
X202412263Y-62502000D01*
X202413135Y-61502386D01*
X202031406Y-60578529D01*
X201325189Y-59871078D01*
X200402000Y-59487737D01*
X199402386Y-59486865D01*
X198478529Y-59868594D01*
X197771078Y-60574811D01*
X197387737Y-61498000D01*
X197386865Y-62497614D01*
X193612266Y-62497614D01*
X193613135Y-61502386D01*
X193231406Y-60578529D01*
X192525189Y-59871078D01*
X191602000Y-59487737D01*
X190602386Y-59486865D01*
X189678529Y-59868594D01*
X188971078Y-60574811D01*
X188587737Y-61498000D01*
X188586865Y-62497614D01*
X173412266Y-62497614D01*
X173413135Y-61502386D01*
X173031406Y-60578529D01*
X172325189Y-59871078D01*
X171402000Y-59487737D01*
X170402386Y-59486865D01*
X169478529Y-59868594D01*
X168771078Y-60574811D01*
X168387737Y-61498000D01*
X168386865Y-62497614D01*
X164612266Y-62497614D01*
X164613135Y-61502386D01*
X164231406Y-60578529D01*
X163525189Y-59871078D01*
X162602000Y-59487737D01*
X161602386Y-59486865D01*
X160678529Y-59868594D01*
X159971078Y-60574811D01*
X159587737Y-61498000D01*
X159586865Y-62497614D01*
X147587700Y-62497614D01*
X147587700Y-58989405D01*
X147705067Y-58989405D01*
X147766550Y-59137892D01*
X148089244Y-59564401D01*
X148550592Y-59834954D01*
X148758700Y-59759139D01*
X148758700Y-58781300D01*
X149241300Y-58781300D01*
X149241300Y-59759139D01*
X149449408Y-59834954D01*
X149910756Y-59564401D01*
X150233450Y-59137892D01*
X150294933Y-58989405D01*
X150216831Y-58781300D01*
X149241300Y-58781300D01*
X148758700Y-58781300D01*
X147783169Y-58781300D01*
X147705067Y-58989405D01*
X147587700Y-58989405D01*
X147587700Y-55150000D01*
X147627256Y-55150000D01*
X147627256Y-56850000D01*
X147663006Y-57039995D01*
X147775293Y-57214494D01*
X147946623Y-57331559D01*
X148150000Y-57372744D01*
X148332841Y-57372744D01*
X148089244Y-57515599D01*
X147766550Y-57942108D01*
X147705067Y-58090595D01*
X147783169Y-58298700D01*
X148758700Y-58298700D01*
X148758700Y-58278700D01*
X149241300Y-58278700D01*
X149241300Y-58298700D01*
X150216831Y-58298700D01*
X150294933Y-58090595D01*
X150233450Y-57942108D01*
X149910756Y-57515599D01*
X149667159Y-57372744D01*
X149850000Y-57372744D01*
X150039995Y-57336994D01*
X150214494Y-57224707D01*
X150331559Y-57053377D01*
X150372744Y-56850000D01*
X150372744Y-55150000D01*
X150336994Y-54960005D01*
X150224707Y-54785506D01*
X150053377Y-54668441D01*
X149850000Y-54627256D01*
X148150000Y-54627256D01*
X147960005Y-54663006D01*
X147785506Y-54775293D01*
X147668441Y-54946623D01*
X147627256Y-55150000D01*
X147587700Y-55150000D01*
X147587700Y-50200000D01*
X149677256Y-50200000D01*
X149677256Y-51800000D01*
X149713006Y-51989995D01*
X149825293Y-52164494D01*
X149996623Y-52281559D01*
X150200000Y-52322744D01*
X151800000Y-52322744D01*
X151989995Y-52286994D01*
X152164494Y-52174707D01*
X152281559Y-52003377D01*
X152322744Y-51800000D01*
X152322744Y-51588316D01*
X152386498Y-51742613D01*
X152755444Y-52112204D01*
X153237742Y-52312471D01*
X153759967Y-52312927D01*
X154242613Y-52113502D01*
X154612204Y-51744556D01*
X154812471Y-51262258D01*
X154812927Y-50740033D01*
X154613502Y-50257387D01*
X154357074Y-50000510D01*
X159976506Y-50000510D01*
X159976506Y-51999490D01*
X160012256Y-52189485D01*
X160124543Y-52363984D01*
X160295873Y-52481049D01*
X160499250Y-52522234D01*
X162498230Y-52522234D01*
X162688225Y-52486484D01*
X162862724Y-52374197D01*
X162979789Y-52202867D01*
X163020974Y-51999490D01*
X163020974Y-50000510D01*
X169979026Y-50000510D01*
X169979026Y-51999490D01*
X170014776Y-52189485D01*
X170127063Y-52363984D01*
X170298393Y-52481049D01*
X170501770Y-52522234D01*
X172500750Y-52522234D01*
X172690745Y-52486484D01*
X172865244Y-52374197D01*
X172982309Y-52202867D01*
X173020625Y-52013655D01*
X177827594Y-52013655D01*
X177916531Y-52213600D01*
X178425369Y-52344504D01*
X178945570Y-52270720D01*
X179083469Y-52213600D01*
X179172406Y-52013655D01*
X178500000Y-51341250D01*
X177827594Y-52013655D01*
X173020625Y-52013655D01*
X173023494Y-51999490D01*
X173023494Y-50925369D01*
X177155496Y-50925369D01*
X177229280Y-51445570D01*
X177286400Y-51583469D01*
X177486345Y-51672406D01*
X178158750Y-51000000D01*
X178841250Y-51000000D01*
X179513655Y-51672406D01*
X179713600Y-51583469D01*
X179796824Y-51259967D01*
X182187073Y-51259967D01*
X182386498Y-51742613D01*
X182755444Y-52112204D01*
X183237742Y-52312471D01*
X183759967Y-52312927D01*
X184242613Y-52113502D01*
X184612204Y-51744556D01*
X184812471Y-51262258D01*
X184812927Y-50740033D01*
X184613502Y-50257387D01*
X184357074Y-50000510D01*
X188976506Y-50000510D01*
X188976506Y-51999490D01*
X189012256Y-52189485D01*
X189124543Y-52363984D01*
X189295873Y-52481049D01*
X189499250Y-52522234D01*
X191498230Y-52522234D01*
X191688225Y-52486484D01*
X191862724Y-52374197D01*
X191979789Y-52202867D01*
X192020974Y-51999490D01*
X192020974Y-51371475D01*
X198981070Y-51371475D01*
X198981070Y-52103063D01*
X199060342Y-52294443D01*
X199206817Y-52440918D01*
X199398196Y-52520190D01*
X200129785Y-52520190D01*
X200259960Y-52390015D01*
X200259960Y-51241300D01*
X200742560Y-51241300D01*
X200742560Y-52390015D01*
X200872735Y-52520190D01*
X201604324Y-52520190D01*
X201795703Y-52440918D01*
X201942178Y-52294443D01*
X202021450Y-52103063D01*
X202021450Y-51371475D01*
X201891275Y-51241300D01*
X200742560Y-51241300D01*
X200259960Y-51241300D01*
X199111245Y-51241300D01*
X198981070Y-51371475D01*
X192020974Y-51371475D01*
X192020974Y-50000510D01*
X192001486Y-49896937D01*
X198981070Y-49896937D01*
X198981070Y-50628525D01*
X199111245Y-50758700D01*
X200259960Y-50758700D01*
X200259960Y-49609985D01*
X200742560Y-49609985D01*
X200742560Y-50758700D01*
X201891275Y-50758700D01*
X202021450Y-50628525D01*
X202021450Y-49896937D01*
X201942178Y-49705557D01*
X201795703Y-49559082D01*
X201604324Y-49479810D01*
X200872735Y-49479810D01*
X200742560Y-49609985D01*
X200259960Y-49609985D01*
X200129785Y-49479810D01*
X199398196Y-49479810D01*
X199206817Y-49559082D01*
X199060342Y-49705557D01*
X198981070Y-49896937D01*
X192001486Y-49896937D01*
X191985224Y-49810515D01*
X191872937Y-49636016D01*
X191701607Y-49518951D01*
X191498230Y-49477766D01*
X189499250Y-49477766D01*
X189309255Y-49513516D01*
X189134756Y-49625803D01*
X189017691Y-49797133D01*
X188976506Y-50000510D01*
X184357074Y-50000510D01*
X184244556Y-49887796D01*
X183762258Y-49687529D01*
X183240033Y-49687073D01*
X182757387Y-49886498D01*
X182387796Y-50255444D01*
X182187529Y-50737742D01*
X182187073Y-51259967D01*
X179796824Y-51259967D01*
X179844504Y-51074631D01*
X179770720Y-50554430D01*
X179713600Y-50416531D01*
X179513655Y-50327594D01*
X178841250Y-51000000D01*
X178158750Y-51000000D01*
X177486345Y-50327594D01*
X177286400Y-50416531D01*
X177155496Y-50925369D01*
X173023494Y-50925369D01*
X173023494Y-50000510D01*
X173020829Y-49986345D01*
X177827594Y-49986345D01*
X178500000Y-50658750D01*
X179172406Y-49986345D01*
X179083469Y-49786400D01*
X178574631Y-49655496D01*
X178054430Y-49729280D01*
X177916531Y-49786400D01*
X177827594Y-49986345D01*
X173020829Y-49986345D01*
X172987744Y-49810515D01*
X172875457Y-49636016D01*
X172704127Y-49518951D01*
X172500750Y-49477766D01*
X170501770Y-49477766D01*
X170311775Y-49513516D01*
X170137276Y-49625803D01*
X170020211Y-49797133D01*
X169979026Y-50000510D01*
X163020974Y-50000510D01*
X162985224Y-49810515D01*
X162872937Y-49636016D01*
X162701607Y-49518951D01*
X162498230Y-49477766D01*
X160499250Y-49477766D01*
X160309255Y-49513516D01*
X160134756Y-49625803D01*
X160017691Y-49797133D01*
X159976506Y-50000510D01*
X154357074Y-50000510D01*
X154244556Y-49887796D01*
X153762258Y-49687529D01*
X153240033Y-49687073D01*
X152757387Y-49886498D01*
X152387796Y-50255444D01*
X152322744Y-50412107D01*
X152322744Y-50200000D01*
X152286994Y-50010005D01*
X152174707Y-49835506D01*
X152003377Y-49718441D01*
X151800000Y-49677256D01*
X150200000Y-49677256D01*
X150010005Y-49713006D01*
X149835506Y-49825293D01*
X149718441Y-49996623D01*
X149677256Y-50200000D01*
X147587700Y-50200000D01*
X147587700Y-46468682D01*
X147725334Y-46674666D01*
X149425334Y-48374666D01*
X149688993Y-48550837D01*
X150000000Y-48612700D01*
X185297148Y-48612700D01*
X185537635Y-48712559D01*
X185860947Y-48712841D01*
X186159756Y-48589375D01*
X186388572Y-48360959D01*
X186512559Y-48062365D01*
X186512841Y-47739053D01*
X186389375Y-47440244D01*
X186160959Y-47211428D01*
X186142191Y-47203635D01*
X185911007Y-47049163D01*
X185600000Y-46987300D01*
X150336632Y-46987300D01*
X149112700Y-45763368D01*
X149112700Y-45000000D01*
X150100808Y-45000000D01*
X150204537Y-45521483D01*
X150499934Y-45963574D01*
X150942025Y-46258971D01*
X151463508Y-46362700D01*
X152536492Y-46362700D01*
X153057975Y-46258971D01*
X153500066Y-45963574D01*
X153795463Y-45521483D01*
X153899192Y-45000000D01*
X158100808Y-45000000D01*
X158204537Y-45521483D01*
X158499934Y-45963574D01*
X158942025Y-46258971D01*
X159463508Y-46362700D01*
X160536492Y-46362700D01*
X161057975Y-46258971D01*
X161500066Y-45963574D01*
X161795463Y-45521483D01*
X161899192Y-45000000D01*
X166100808Y-45000000D01*
X166204537Y-45521483D01*
X166499934Y-45963574D01*
X166942025Y-46258971D01*
X167463508Y-46362700D01*
X168536492Y-46362700D01*
X169057975Y-46258971D01*
X169500066Y-45963574D01*
X169795463Y-45521483D01*
X169899192Y-45000000D01*
X174100808Y-45000000D01*
X174204537Y-45521483D01*
X174499934Y-45963574D01*
X174942025Y-46258971D01*
X175463508Y-46362700D01*
X176536492Y-46362700D01*
X177057975Y-46258971D01*
X177500066Y-45963574D01*
X177795463Y-45521483D01*
X177899192Y-45000000D01*
X182100808Y-45000000D01*
X182204537Y-45521483D01*
X182499934Y-45963574D01*
X182942025Y-46258971D01*
X183463508Y-46362700D01*
X184536492Y-46362700D01*
X185057975Y-46258971D01*
X185500066Y-45963574D01*
X185795463Y-45521483D01*
X185899192Y-45000000D01*
X190100808Y-45000000D01*
X190204537Y-45521483D01*
X190499934Y-45963574D01*
X190942025Y-46258971D01*
X191463508Y-46362700D01*
X192536492Y-46362700D01*
X193057975Y-46258971D01*
X193500066Y-45963574D01*
X193795463Y-45521483D01*
X193899192Y-45000000D01*
X198100808Y-45000000D01*
X198204537Y-45521483D01*
X198499934Y-45963574D01*
X198942025Y-46258971D01*
X199463508Y-46362700D01*
X200536492Y-46362700D01*
X201057975Y-46258971D01*
X201500066Y-45963574D01*
X201795463Y-45521483D01*
X201899192Y-45000000D01*
X201795463Y-44478517D01*
X201500066Y-44036426D01*
X201057975Y-43741029D01*
X200940706Y-43717703D01*
X201092784Y-43616087D01*
X201312310Y-43287544D01*
X201389397Y-42900000D01*
X201312310Y-42512456D01*
X201092784Y-42183913D01*
X200764241Y-41964387D01*
X200503570Y-41912537D01*
X200797298Y-41837963D01*
X201122192Y-41595391D01*
X201291810Y-41293476D01*
X201207210Y-41141300D01*
X200241300Y-41141300D01*
X200241300Y-41161300D01*
X199758700Y-41161300D01*
X199758700Y-41141300D01*
X198792790Y-41141300D01*
X198708190Y-41293476D01*
X198877808Y-41595391D01*
X199202702Y-41837963D01*
X199496430Y-41912537D01*
X199235759Y-41964387D01*
X198907216Y-42183913D01*
X198687690Y-42512456D01*
X198610603Y-42900000D01*
X198687690Y-43287544D01*
X198907216Y-43616087D01*
X199059294Y-43717703D01*
X198942025Y-43741029D01*
X198499934Y-44036426D01*
X198204537Y-44478517D01*
X198100808Y-45000000D01*
X193899192Y-45000000D01*
X193795463Y-44478517D01*
X193500066Y-44036426D01*
X193057975Y-43741029D01*
X192940706Y-43717703D01*
X193092784Y-43616087D01*
X193312310Y-43287544D01*
X193389397Y-42900000D01*
X193312310Y-42512456D01*
X193092784Y-42183913D01*
X192764241Y-41964387D01*
X192503570Y-41912537D01*
X192797298Y-41837963D01*
X193122192Y-41595391D01*
X193291810Y-41293476D01*
X193207210Y-41141300D01*
X192241300Y-41141300D01*
X192241300Y-41161300D01*
X191758700Y-41161300D01*
X191758700Y-41141300D01*
X190792790Y-41141300D01*
X190708190Y-41293476D01*
X190877808Y-41595391D01*
X191202702Y-41837963D01*
X191496430Y-41912537D01*
X191235759Y-41964387D01*
X190907216Y-42183913D01*
X190687690Y-42512456D01*
X190610603Y-42900000D01*
X190687690Y-43287544D01*
X190907216Y-43616087D01*
X191059294Y-43717703D01*
X190942025Y-43741029D01*
X190499934Y-44036426D01*
X190204537Y-44478517D01*
X190100808Y-45000000D01*
X185899192Y-45000000D01*
X185795463Y-44478517D01*
X185500066Y-44036426D01*
X185057975Y-43741029D01*
X184940706Y-43717703D01*
X185092784Y-43616087D01*
X185312310Y-43287544D01*
X185389397Y-42900000D01*
X185312310Y-42512456D01*
X185092784Y-42183913D01*
X184764241Y-41964387D01*
X184503570Y-41912537D01*
X184797298Y-41837963D01*
X185122192Y-41595391D01*
X185291810Y-41293476D01*
X185207210Y-41141300D01*
X184241300Y-41141300D01*
X184241300Y-41161300D01*
X183758700Y-41161300D01*
X183758700Y-41141300D01*
X182792790Y-41141300D01*
X182708190Y-41293476D01*
X182877808Y-41595391D01*
X183202702Y-41837963D01*
X183496430Y-41912537D01*
X183235759Y-41964387D01*
X182907216Y-42183913D01*
X182687690Y-42512456D01*
X182610603Y-42900000D01*
X182687690Y-43287544D01*
X182907216Y-43616087D01*
X183059294Y-43717703D01*
X182942025Y-43741029D01*
X182499934Y-44036426D01*
X182204537Y-44478517D01*
X182100808Y-45000000D01*
X177899192Y-45000000D01*
X177795463Y-44478517D01*
X177500066Y-44036426D01*
X177057975Y-43741029D01*
X176940706Y-43717703D01*
X177092784Y-43616087D01*
X177312310Y-43287544D01*
X177389397Y-42900000D01*
X177312310Y-42512456D01*
X177092784Y-42183913D01*
X176764241Y-41964387D01*
X176503570Y-41912537D01*
X176797298Y-41837963D01*
X177122192Y-41595391D01*
X177291810Y-41293476D01*
X177207210Y-41141300D01*
X176241300Y-41141300D01*
X176241300Y-41161300D01*
X175758700Y-41161300D01*
X175758700Y-41141300D01*
X174792790Y-41141300D01*
X174708190Y-41293476D01*
X174877808Y-41595391D01*
X175202702Y-41837963D01*
X175496430Y-41912537D01*
X175235759Y-41964387D01*
X174907216Y-42183913D01*
X174687690Y-42512456D01*
X174610603Y-42900000D01*
X174687690Y-43287544D01*
X174907216Y-43616087D01*
X175059294Y-43717703D01*
X174942025Y-43741029D01*
X174499934Y-44036426D01*
X174204537Y-44478517D01*
X174100808Y-45000000D01*
X169899192Y-45000000D01*
X169795463Y-44478517D01*
X169500066Y-44036426D01*
X169057975Y-43741029D01*
X168940706Y-43717703D01*
X169092784Y-43616087D01*
X169312310Y-43287544D01*
X169389397Y-42900000D01*
X169312310Y-42512456D01*
X169092784Y-42183913D01*
X168764241Y-41964387D01*
X168503570Y-41912537D01*
X168797298Y-41837963D01*
X169122192Y-41595391D01*
X169291810Y-41293476D01*
X169207210Y-41141300D01*
X168241300Y-41141300D01*
X168241300Y-41161300D01*
X167758700Y-41161300D01*
X167758700Y-41141300D01*
X166792790Y-41141300D01*
X166708190Y-41293476D01*
X166877808Y-41595391D01*
X167202702Y-41837963D01*
X167496430Y-41912537D01*
X167235759Y-41964387D01*
X166907216Y-42183913D01*
X166687690Y-42512456D01*
X166610603Y-42900000D01*
X166687690Y-43287544D01*
X166907216Y-43616087D01*
X167059294Y-43717703D01*
X166942025Y-43741029D01*
X166499934Y-44036426D01*
X166204537Y-44478517D01*
X166100808Y-45000000D01*
X161899192Y-45000000D01*
X161795463Y-44478517D01*
X161500066Y-44036426D01*
X161057975Y-43741029D01*
X160940706Y-43717703D01*
X161092784Y-43616087D01*
X161312310Y-43287544D01*
X161389397Y-42900000D01*
X161312310Y-42512456D01*
X161092784Y-42183913D01*
X160764241Y-41964387D01*
X160503570Y-41912537D01*
X160797298Y-41837963D01*
X161122192Y-41595391D01*
X161291810Y-41293476D01*
X161207210Y-41141300D01*
X160241300Y-41141300D01*
X160241300Y-41161300D01*
X159758700Y-41161300D01*
X159758700Y-41141300D01*
X158792790Y-41141300D01*
X158708190Y-41293476D01*
X158877808Y-41595391D01*
X159202702Y-41837963D01*
X159496430Y-41912537D01*
X159235759Y-41964387D01*
X158907216Y-42183913D01*
X158687690Y-42512456D01*
X158610603Y-42900000D01*
X158687690Y-43287544D01*
X158907216Y-43616087D01*
X159059294Y-43717703D01*
X158942025Y-43741029D01*
X158499934Y-44036426D01*
X158204537Y-44478517D01*
X158100808Y-45000000D01*
X153899192Y-45000000D01*
X153795463Y-44478517D01*
X153500066Y-44036426D01*
X153057975Y-43741029D01*
X152940706Y-43717703D01*
X153092784Y-43616087D01*
X153312310Y-43287544D01*
X153389397Y-42900000D01*
X153312310Y-42512456D01*
X153092784Y-42183913D01*
X152764241Y-41964387D01*
X152503570Y-41912537D01*
X152797298Y-41837963D01*
X153122192Y-41595391D01*
X153291810Y-41293476D01*
X153207210Y-41141300D01*
X152241300Y-41141300D01*
X152241300Y-41161300D01*
X151758700Y-41161300D01*
X151758700Y-41141300D01*
X150792790Y-41141300D01*
X150708190Y-41293476D01*
X150877808Y-41595391D01*
X151202702Y-41837963D01*
X151496430Y-41912537D01*
X151235759Y-41964387D01*
X150907216Y-42183913D01*
X150687690Y-42512456D01*
X150610603Y-42900000D01*
X150687690Y-43287544D01*
X150907216Y-43616087D01*
X151059294Y-43717703D01*
X150942025Y-43741029D01*
X150499934Y-44036426D01*
X150204537Y-44478517D01*
X150100808Y-45000000D01*
X149112700Y-45000000D01*
X149112700Y-36800000D01*
X150100808Y-36800000D01*
X150204537Y-37321483D01*
X150499934Y-37763574D01*
X150942025Y-38058971D01*
X151059294Y-38082297D01*
X150907216Y-38183913D01*
X150687690Y-38512456D01*
X150610603Y-38900000D01*
X150687690Y-39287544D01*
X150907216Y-39616087D01*
X151235759Y-39835613D01*
X151496430Y-39887463D01*
X151202702Y-39962037D01*
X150877808Y-40204609D01*
X150708190Y-40506524D01*
X150792790Y-40658700D01*
X151758700Y-40658700D01*
X151758700Y-40638700D01*
X152241300Y-40638700D01*
X152241300Y-40658700D01*
X153207210Y-40658700D01*
X153291810Y-40506524D01*
X153122192Y-40204609D01*
X152797298Y-39962037D01*
X152503570Y-39887463D01*
X152764241Y-39835613D01*
X153092784Y-39616087D01*
X153312310Y-39287544D01*
X153389397Y-38900000D01*
X153312310Y-38512456D01*
X153092784Y-38183913D01*
X152940706Y-38082297D01*
X153057975Y-38058971D01*
X153500066Y-37763574D01*
X153795463Y-37321483D01*
X153899192Y-36800000D01*
X158100808Y-36800000D01*
X158204537Y-37321483D01*
X158499934Y-37763574D01*
X158942025Y-38058971D01*
X159059294Y-38082297D01*
X158907216Y-38183913D01*
X158687690Y-38512456D01*
X158610603Y-38900000D01*
X158687690Y-39287544D01*
X158907216Y-39616087D01*
X159235759Y-39835613D01*
X159496430Y-39887463D01*
X159202702Y-39962037D01*
X158877808Y-40204609D01*
X158708190Y-40506524D01*
X158792790Y-40658700D01*
X159758700Y-40658700D01*
X159758700Y-40638700D01*
X160241300Y-40638700D01*
X160241300Y-40658700D01*
X161207210Y-40658700D01*
X161291810Y-40506524D01*
X161122192Y-40204609D01*
X160797298Y-39962037D01*
X160503570Y-39887463D01*
X160764241Y-39835613D01*
X161092784Y-39616087D01*
X161312310Y-39287544D01*
X161389397Y-38900000D01*
X161312310Y-38512456D01*
X161092784Y-38183913D01*
X160940706Y-38082297D01*
X161057975Y-38058971D01*
X161500066Y-37763574D01*
X161795463Y-37321483D01*
X161899192Y-36800000D01*
X166100808Y-36800000D01*
X166204537Y-37321483D01*
X166499934Y-37763574D01*
X166942025Y-38058971D01*
X167059294Y-38082297D01*
X166907216Y-38183913D01*
X166687690Y-38512456D01*
X166610603Y-38900000D01*
X166687690Y-39287544D01*
X166907216Y-39616087D01*
X167235759Y-39835613D01*
X167496430Y-39887463D01*
X167202702Y-39962037D01*
X166877808Y-40204609D01*
X166708190Y-40506524D01*
X166792790Y-40658700D01*
X167758700Y-40658700D01*
X167758700Y-40638700D01*
X168241300Y-40638700D01*
X168241300Y-40658700D01*
X169207210Y-40658700D01*
X169291810Y-40506524D01*
X169122192Y-40204609D01*
X168797298Y-39962037D01*
X168503570Y-39887463D01*
X168764241Y-39835613D01*
X169092784Y-39616087D01*
X169312310Y-39287544D01*
X169389397Y-38900000D01*
X169312310Y-38512456D01*
X169092784Y-38183913D01*
X168940706Y-38082297D01*
X169057975Y-38058971D01*
X169500066Y-37763574D01*
X169705701Y-37455821D01*
X169810625Y-37709756D01*
X170039041Y-37938572D01*
X170337635Y-38062559D01*
X170660947Y-38062841D01*
X170661288Y-38062700D01*
X172749291Y-38062700D01*
X172910947Y-38062841D01*
X173209756Y-37939375D01*
X173438572Y-37710959D01*
X173562559Y-37412365D01*
X173562841Y-37089053D01*
X173443407Y-36800000D01*
X174100808Y-36800000D01*
X174204537Y-37321483D01*
X174499934Y-37763574D01*
X174942025Y-38058971D01*
X175059294Y-38082297D01*
X174907216Y-38183913D01*
X174687690Y-38512456D01*
X174610603Y-38900000D01*
X174687690Y-39287544D01*
X174907216Y-39616087D01*
X175235759Y-39835613D01*
X175496430Y-39887463D01*
X175202702Y-39962037D01*
X174877808Y-40204609D01*
X174708190Y-40506524D01*
X174792790Y-40658700D01*
X175758700Y-40658700D01*
X175758700Y-40638700D01*
X176241300Y-40638700D01*
X176241300Y-40658700D01*
X177207210Y-40658700D01*
X177291810Y-40506524D01*
X177122192Y-40204609D01*
X176797298Y-39962037D01*
X176503570Y-39887463D01*
X176764241Y-39835613D01*
X177092784Y-39616087D01*
X177312310Y-39287544D01*
X177389397Y-38900000D01*
X177312310Y-38512456D01*
X177092784Y-38183913D01*
X176940706Y-38082297D01*
X177057975Y-38058971D01*
X177500066Y-37763574D01*
X177795463Y-37321483D01*
X177899192Y-36800000D01*
X182100808Y-36800000D01*
X182204537Y-37321483D01*
X182499934Y-37763574D01*
X182942025Y-38058971D01*
X183059294Y-38082297D01*
X182907216Y-38183913D01*
X182687690Y-38512456D01*
X182610603Y-38900000D01*
X182687690Y-39287544D01*
X182907216Y-39616087D01*
X183235759Y-39835613D01*
X183496430Y-39887463D01*
X183202702Y-39962037D01*
X182877808Y-40204609D01*
X182708190Y-40506524D01*
X182792790Y-40658700D01*
X183758700Y-40658700D01*
X183758700Y-40638700D01*
X184241300Y-40638700D01*
X184241300Y-40658700D01*
X185207210Y-40658700D01*
X185291810Y-40506524D01*
X185122192Y-40204609D01*
X184797298Y-39962037D01*
X184503570Y-39887463D01*
X184764241Y-39835613D01*
X185092784Y-39616087D01*
X185312310Y-39287544D01*
X185389397Y-38900000D01*
X185312310Y-38512456D01*
X185092784Y-38183913D01*
X184940706Y-38082297D01*
X185057975Y-38058971D01*
X185500066Y-37763574D01*
X185795463Y-37321483D01*
X185899192Y-36800000D01*
X190100808Y-36800000D01*
X190204537Y-37321483D01*
X190499934Y-37763574D01*
X190942025Y-38058971D01*
X191059294Y-38082297D01*
X190907216Y-38183913D01*
X190687690Y-38512456D01*
X190610603Y-38900000D01*
X190687690Y-39287544D01*
X190907216Y-39616087D01*
X191235759Y-39835613D01*
X191496430Y-39887463D01*
X191202702Y-39962037D01*
X190877808Y-40204609D01*
X190708190Y-40506524D01*
X190792790Y-40658700D01*
X191758700Y-40658700D01*
X191758700Y-40638700D01*
X192241300Y-40638700D01*
X192241300Y-40658700D01*
X193207210Y-40658700D01*
X193291810Y-40506524D01*
X193122192Y-40204609D01*
X192797298Y-39962037D01*
X192503570Y-39887463D01*
X192764241Y-39835613D01*
X193092784Y-39616087D01*
X193312310Y-39287544D01*
X193389397Y-38900000D01*
X193312310Y-38512456D01*
X193092784Y-38183913D01*
X192940706Y-38082297D01*
X193057975Y-38058971D01*
X193500066Y-37763574D01*
X193795463Y-37321483D01*
X193899192Y-36800000D01*
X198100808Y-36800000D01*
X198204537Y-37321483D01*
X198499934Y-37763574D01*
X198942025Y-38058971D01*
X199059294Y-38082297D01*
X198907216Y-38183913D01*
X198687690Y-38512456D01*
X198610603Y-38900000D01*
X198687690Y-39287544D01*
X198907216Y-39616087D01*
X199235759Y-39835613D01*
X199496430Y-39887463D01*
X199202702Y-39962037D01*
X198877808Y-40204609D01*
X198708190Y-40506524D01*
X198792790Y-40658700D01*
X199758700Y-40658700D01*
X199758700Y-40638700D01*
X200241300Y-40638700D01*
X200241300Y-40658700D01*
X201207210Y-40658700D01*
X201291810Y-40506524D01*
X201122192Y-40204609D01*
X200797298Y-39962037D01*
X200503570Y-39887463D01*
X200764241Y-39835613D01*
X201092784Y-39616087D01*
X201312310Y-39287544D01*
X201389397Y-38900000D01*
X201312310Y-38512456D01*
X201092784Y-38183913D01*
X200940706Y-38082297D01*
X201057975Y-38058971D01*
X201500066Y-37763574D01*
X201795463Y-37321483D01*
X201899192Y-36800000D01*
X201795463Y-36278517D01*
X201500066Y-35836426D01*
X201057975Y-35541029D01*
X200536492Y-35437300D01*
X199463508Y-35437300D01*
X198942025Y-35541029D01*
X198499934Y-35836426D01*
X198204537Y-36278517D01*
X198100808Y-36800000D01*
X193899192Y-36800000D01*
X193795463Y-36278517D01*
X193500066Y-35836426D01*
X193057975Y-35541029D01*
X192536492Y-35437300D01*
X191463508Y-35437300D01*
X190942025Y-35541029D01*
X190499934Y-35836426D01*
X190204537Y-36278517D01*
X190100808Y-36800000D01*
X185899192Y-36800000D01*
X185795463Y-36278517D01*
X185500066Y-35836426D01*
X185057975Y-35541029D01*
X184536492Y-35437300D01*
X183463508Y-35437300D01*
X182942025Y-35541029D01*
X182499934Y-35836426D01*
X182204537Y-36278517D01*
X182100808Y-36800000D01*
X177899192Y-36800000D01*
X177795463Y-36278517D01*
X177500066Y-35836426D01*
X177057975Y-35541029D01*
X176536492Y-35437300D01*
X175463508Y-35437300D01*
X174942025Y-35541029D01*
X174499934Y-35836426D01*
X174204537Y-36278517D01*
X174100808Y-36800000D01*
X173443407Y-36800000D01*
X173439375Y-36790244D01*
X173210959Y-36561428D01*
X172912365Y-36437441D01*
X172589053Y-36437159D01*
X172588712Y-36437300D01*
X170500709Y-36437300D01*
X170339053Y-36437159D01*
X170040244Y-36560625D01*
X169882834Y-36717760D01*
X169795463Y-36278517D01*
X169500066Y-35836426D01*
X169057975Y-35541029D01*
X168536492Y-35437300D01*
X167463508Y-35437300D01*
X166942025Y-35541029D01*
X166499934Y-35836426D01*
X166204537Y-36278517D01*
X166100808Y-36800000D01*
X161899192Y-36800000D01*
X161795463Y-36278517D01*
X161500066Y-35836426D01*
X161057975Y-35541029D01*
X160536492Y-35437300D01*
X159463508Y-35437300D01*
X158942025Y-35541029D01*
X158499934Y-35836426D01*
X158204537Y-36278517D01*
X158100808Y-36800000D01*
X153899192Y-36800000D01*
X153795463Y-36278517D01*
X153500066Y-35836426D01*
X153057975Y-35541029D01*
X152536492Y-35437300D01*
X151463508Y-35437300D01*
X150942025Y-35541029D01*
X150499934Y-35836426D01*
X150204537Y-36278517D01*
X150100808Y-36800000D01*
X149112700Y-36800000D01*
X149112700Y-35160947D01*
X169687159Y-35160947D01*
X169810625Y-35459756D01*
X170039041Y-35688572D01*
X170337635Y-35812559D01*
X170660947Y-35812841D01*
X170661288Y-35812700D01*
X172749291Y-35812700D01*
X172910947Y-35812841D01*
X173209756Y-35689375D01*
X173438572Y-35460959D01*
X173562559Y-35162365D01*
X173562841Y-34839053D01*
X173439375Y-34540244D01*
X173210959Y-34311428D01*
X172912365Y-34187441D01*
X172589053Y-34187159D01*
X172588712Y-34187300D01*
X170500709Y-34187300D01*
X170339053Y-34187159D01*
X170040244Y-34310625D01*
X169811428Y-34539041D01*
X169687441Y-34837635D01*
X169687159Y-35160947D01*
X149112700Y-35160947D01*
X149112700Y-34036632D01*
X149738384Y-33410947D01*
X169687159Y-33410947D01*
X169810625Y-33709756D01*
X170039041Y-33938572D01*
X170337635Y-34062559D01*
X170660947Y-34062841D01*
X170661288Y-34062700D01*
X174749291Y-34062700D01*
X174910947Y-34062841D01*
X175209756Y-33939375D01*
X175438572Y-33710959D01*
X175562559Y-33412365D01*
X175562841Y-33089053D01*
X175439375Y-32790244D01*
X175210959Y-32561428D01*
X174912365Y-32437441D01*
X174589053Y-32437159D01*
X174588712Y-32437300D01*
X170500709Y-32437300D01*
X170339053Y-32437159D01*
X170040244Y-32560625D01*
X169811428Y-32789041D01*
X169687441Y-33087635D01*
X169687159Y-33410947D01*
X149738384Y-33410947D01*
X150726587Y-32422744D01*
X151900000Y-32422744D01*
X152089995Y-32386994D01*
X152264494Y-32274707D01*
X152381559Y-32103377D01*
X152422744Y-31900000D01*
X152422744Y-31880397D01*
X152738725Y-32196930D01*
X153257764Y-32412454D01*
X153819770Y-32412944D01*
X154339185Y-32198327D01*
X154736930Y-31801275D01*
X154952454Y-31282236D01*
X154952944Y-30720230D01*
X154738327Y-30200815D01*
X154341275Y-29803070D01*
X153822236Y-29587546D01*
X153260230Y-29587056D01*
X152740815Y-29801673D01*
X152422744Y-30119190D01*
X152422744Y-30100000D01*
X152386994Y-29910005D01*
X152274707Y-29735506D01*
X152103377Y-29618441D01*
X151900000Y-29577256D01*
X150100000Y-29577256D01*
X149910005Y-29613006D01*
X149735506Y-29725293D01*
X149618441Y-29896623D01*
X149577256Y-30100000D01*
X149577256Y-31273413D01*
X147725334Y-33125334D01*
X147587700Y-33331318D01*
X147587700Y-27299524D01*
X147604482Y-27274408D01*
X147622000Y-27262700D01*
X161396216Y-27262700D01*
X161044815Y-27407896D01*
X161044815Y-27407896D01*
G37*
X161044815Y-27407896D02*
X160449985Y-28001689D01*
X160127668Y-28777914D01*
X160126934Y-29618398D01*
X160447896Y-30395185D01*
X161041689Y-30990015D01*
X161817914Y-31312332D01*
X162658398Y-31313066D01*
X163435185Y-30992104D01*
X164030015Y-30398311D01*
X164352332Y-29622086D01*
X164352700Y-29200000D01*
X164392737Y-29200000D01*
X164497502Y-29726687D01*
X164795846Y-30173191D01*
X165242350Y-30471535D01*
X165769037Y-30576300D01*
X165822963Y-30576300D01*
X166349650Y-30471535D01*
X166796154Y-30173191D01*
X167066000Y-29769337D01*
X167335846Y-30173191D01*
X167782350Y-30471535D01*
X168309037Y-30576300D01*
X168362963Y-30576300D01*
X168889650Y-30471535D01*
X169336154Y-30173191D01*
X169606000Y-29769337D01*
X169875846Y-30173191D01*
X170322350Y-30471535D01*
X170849037Y-30576300D01*
X170902963Y-30576300D01*
X171429650Y-30471535D01*
X171876154Y-30173191D01*
X172152291Y-29759923D01*
X172171374Y-29806010D01*
X172498026Y-30236178D01*
X172964431Y-30508597D01*
X173174700Y-30432952D01*
X173174700Y-29441300D01*
X173154700Y-29441300D01*
X173154700Y-28958700D01*
X173174700Y-28958700D01*
X173174700Y-27967048D01*
X173657300Y-27967048D01*
X173657300Y-28958700D01*
X173677300Y-28958700D01*
X173677300Y-29441300D01*
X173657300Y-29441300D01*
X173657300Y-30432952D01*
X173867569Y-30508597D01*
X174333974Y-30236178D01*
X174660626Y-29806010D01*
X174679709Y-29759923D01*
X174955846Y-30173191D01*
X175402350Y-30471535D01*
X175929037Y-30576300D01*
X175982963Y-30576300D01*
X176509650Y-30471535D01*
X176956154Y-30173191D01*
X177226000Y-29769337D01*
X177495846Y-30173191D01*
X177942350Y-30471535D01*
X178469037Y-30576300D01*
X178522963Y-30576300D01*
X179049650Y-30471535D01*
X179496154Y-30173191D01*
X179766000Y-29769337D01*
X180035846Y-30173191D01*
X180482350Y-30471535D01*
X181009037Y-30576300D01*
X181062963Y-30576300D01*
X181589650Y-30471535D01*
X182036154Y-30173191D01*
X182306000Y-29769337D01*
X182575846Y-30173191D01*
X183022350Y-30471535D01*
X183549037Y-30576300D01*
X183602963Y-30576300D01*
X183769785Y-30543117D01*
X185701332Y-32474663D01*
X185701334Y-32474666D01*
X185829981Y-32560625D01*
X185964993Y-32650837D01*
X186276000Y-32712701D01*
X186276005Y-32712700D01*
X200763368Y-32712700D01*
X202987300Y-34936631D01*
X202987300Y-54400000D01*
X203049163Y-54711007D01*
X203225334Y-54974666D01*
X210725332Y-62474663D01*
X210725334Y-62474666D01*
X210883205Y-62580152D01*
X210907216Y-62616087D01*
X211235759Y-62835613D01*
X211496430Y-62887463D01*
X211202702Y-62962037D01*
X210877808Y-63204609D01*
X210708190Y-63506524D01*
X210792790Y-63658700D01*
X211758700Y-63658700D01*
X211758700Y-63638700D01*
X212241300Y-63638700D01*
X212241300Y-63658700D01*
X213207210Y-63658700D01*
X213291810Y-63506524D01*
X213122192Y-63204609D01*
X212797298Y-62962037D01*
X212503570Y-62887463D01*
X212764241Y-62835613D01*
X213092784Y-62616087D01*
X213312310Y-62287544D01*
X213389397Y-61900000D01*
X213312310Y-61512456D01*
X213092784Y-61183913D01*
X212940706Y-61082297D01*
X213057975Y-61058971D01*
X213500066Y-60763574D01*
X213795463Y-60321483D01*
X213899192Y-59800000D01*
X213795463Y-59278517D01*
X213500066Y-58836426D01*
X213057975Y-58541029D01*
X212536492Y-58437300D01*
X211463508Y-58437300D01*
X210942025Y-58541029D01*
X210499934Y-58836426D01*
X210204537Y-59278517D01*
X210142041Y-59592709D01*
X204612700Y-54063368D01*
X204612700Y-49520000D01*
X209223737Y-49520000D01*
X209328502Y-50046687D01*
X209626846Y-50493191D01*
X210071053Y-50790000D01*
X209626846Y-51086809D01*
X209328502Y-51533313D01*
X209223737Y-52060000D01*
X209328502Y-52586687D01*
X209626846Y-53033191D01*
X210071053Y-53330000D01*
X209626846Y-53626809D01*
X209328502Y-54073313D01*
X209223737Y-54600000D01*
X209328502Y-55126687D01*
X209626846Y-55573191D01*
X210073350Y-55871535D01*
X210600037Y-55976300D01*
X210653963Y-55976300D01*
X211180650Y-55871535D01*
X211627154Y-55573191D01*
X211897000Y-55169337D01*
X212166846Y-55573191D01*
X212613350Y-55871535D01*
X213140037Y-55976300D01*
X213193963Y-55976300D01*
X213720650Y-55871535D01*
X214167154Y-55573191D01*
X214465498Y-55126687D01*
X214570263Y-54600000D01*
X214465498Y-54073313D01*
X214167154Y-53626809D01*
X213722947Y-53330000D01*
X214167154Y-53033191D01*
X214465498Y-52586687D01*
X214570263Y-52060000D01*
X214465498Y-51533313D01*
X214167154Y-51086809D01*
X213722947Y-50790000D01*
X214167154Y-50493191D01*
X214465498Y-50046687D01*
X214570263Y-49520000D01*
X214465498Y-48993313D01*
X214167154Y-48546809D01*
X213720650Y-48248465D01*
X213193963Y-48143700D01*
X213140037Y-48143700D01*
X212613350Y-48248465D01*
X212166846Y-48546809D01*
X211897000Y-48950663D01*
X211627154Y-48546809D01*
X211180650Y-48248465D01*
X210653963Y-48143700D01*
X210600037Y-48143700D01*
X210073350Y-48248465D01*
X209626846Y-48546809D01*
X209328502Y-48993313D01*
X209223737Y-49520000D01*
X204612700Y-49520000D01*
X204612700Y-45000000D01*
X206100808Y-45000000D01*
X206204537Y-45521483D01*
X206499934Y-45963574D01*
X206942025Y-46258971D01*
X207463508Y-46362700D01*
X208536492Y-46362700D01*
X209057975Y-46258971D01*
X209500066Y-45963574D01*
X209795463Y-45521483D01*
X209899192Y-45000000D01*
X209795463Y-44478517D01*
X209500066Y-44036426D01*
X209057975Y-43741029D01*
X208940706Y-43717703D01*
X209092784Y-43616087D01*
X209312310Y-43287544D01*
X209389397Y-42900000D01*
X209312310Y-42512456D01*
X209092784Y-42183913D01*
X208764241Y-41964387D01*
X208503570Y-41912537D01*
X208797298Y-41837963D01*
X209122192Y-41595391D01*
X209291810Y-41293476D01*
X209207210Y-41141300D01*
X208241300Y-41141300D01*
X208241300Y-41161300D01*
X207758700Y-41161300D01*
X207758700Y-41141300D01*
X206792790Y-41141300D01*
X206708190Y-41293476D01*
X206877808Y-41595391D01*
X207202702Y-41837963D01*
X207496430Y-41912537D01*
X207235759Y-41964387D01*
X206907216Y-42183913D01*
X206687690Y-42512456D01*
X206610603Y-42900000D01*
X206687690Y-43287544D01*
X206907216Y-43616087D01*
X207059294Y-43717703D01*
X206942025Y-43741029D01*
X206499934Y-44036426D01*
X206204537Y-44478517D01*
X206100808Y-45000000D01*
X204612700Y-45000000D01*
X204612700Y-36800000D01*
X206100808Y-36800000D01*
X206204537Y-37321483D01*
X206499934Y-37763574D01*
X206942025Y-38058971D01*
X207059294Y-38082297D01*
X206907216Y-38183913D01*
X206687690Y-38512456D01*
X206610603Y-38900000D01*
X206687690Y-39287544D01*
X206907216Y-39616087D01*
X207235759Y-39835613D01*
X207496430Y-39887463D01*
X207202702Y-39962037D01*
X206877808Y-40204609D01*
X206708190Y-40506524D01*
X206792790Y-40658700D01*
X207758700Y-40658700D01*
X207758700Y-40638700D01*
X208241300Y-40638700D01*
X208241300Y-40658700D01*
X209207210Y-40658700D01*
X209291810Y-40506524D01*
X209122192Y-40204609D01*
X208797298Y-39962037D01*
X208503570Y-39887463D01*
X208764241Y-39835613D01*
X209092784Y-39616087D01*
X209312310Y-39287544D01*
X209389397Y-38900000D01*
X209312310Y-38512456D01*
X209092784Y-38183913D01*
X208940706Y-38082297D01*
X209057975Y-38058971D01*
X209500066Y-37763574D01*
X209795463Y-37321483D01*
X209899192Y-36800000D01*
X209795463Y-36278517D01*
X209500066Y-35836426D01*
X209057975Y-35541029D01*
X208536492Y-35437300D01*
X207463508Y-35437300D01*
X206942025Y-35541029D01*
X206499934Y-35836426D01*
X206204537Y-36278517D01*
X206100808Y-36800000D01*
X204612700Y-36800000D01*
X204612700Y-34600005D01*
X204612701Y-34600000D01*
X204550837Y-34288993D01*
X204399633Y-34062700D01*
X204374666Y-34025334D01*
X204374663Y-34025332D01*
X201674666Y-31325334D01*
X201411007Y-31149163D01*
X201100000Y-31087300D01*
X186612631Y-31087300D01*
X186101631Y-30576300D01*
X186142963Y-30576300D01*
X186669650Y-30471535D01*
X187116154Y-30173191D01*
X187386000Y-29769337D01*
X187655846Y-30173191D01*
X188102350Y-30471535D01*
X188629037Y-30576300D01*
X188682963Y-30576300D01*
X189209650Y-30471535D01*
X189656154Y-30173191D01*
X189954498Y-29726687D01*
X190059263Y-29200000D01*
X191316737Y-29200000D01*
X191421502Y-29726687D01*
X191719846Y-30173191D01*
X192166350Y-30471535D01*
X192693037Y-30576300D01*
X192746963Y-30576300D01*
X193273650Y-30471535D01*
X193720154Y-30173191D01*
X193990000Y-29769337D01*
X194259846Y-30173191D01*
X194706350Y-30471535D01*
X195233037Y-30576300D01*
X195286963Y-30576300D01*
X195813650Y-30471535D01*
X196260154Y-30173191D01*
X196530000Y-29769337D01*
X196799846Y-30173191D01*
X197246350Y-30471535D01*
X197773037Y-30576300D01*
X197826963Y-30576300D01*
X198353650Y-30471535D01*
X198800154Y-30173191D01*
X199070000Y-29769337D01*
X199339846Y-30173191D01*
X199786350Y-30471535D01*
X200313037Y-30576300D01*
X200366963Y-30576300D01*
X200893650Y-30471535D01*
X201340154Y-30173191D01*
X201610000Y-29769337D01*
X201879846Y-30173191D01*
X202326350Y-30471535D01*
X202853037Y-30576300D01*
X202906963Y-30576300D01*
X203433650Y-30471535D01*
X203880154Y-30173191D01*
X204150000Y-29769337D01*
X204419846Y-30173191D01*
X204866350Y-30471535D01*
X205393037Y-30576300D01*
X205446963Y-30576300D01*
X205973650Y-30471535D01*
X206420154Y-30173191D01*
X206690000Y-29769337D01*
X206959846Y-30173191D01*
X207406350Y-30471535D01*
X207933037Y-30576300D01*
X207986963Y-30576300D01*
X208513650Y-30471535D01*
X208960154Y-30173191D01*
X209230000Y-29769337D01*
X209499846Y-30173191D01*
X209946350Y-30471535D01*
X210473037Y-30576300D01*
X210526963Y-30576300D01*
X211053650Y-30471535D01*
X211500154Y-30173191D01*
X211798498Y-29726687D01*
X211903263Y-29200000D01*
X211798498Y-28673313D01*
X211500154Y-28226809D01*
X211053650Y-27928465D01*
X210526963Y-27823700D01*
X210473037Y-27823700D01*
X209946350Y-27928465D01*
X209499846Y-28226809D01*
X209230000Y-28630663D01*
X208960154Y-28226809D01*
X208513650Y-27928465D01*
X207986963Y-27823700D01*
X207933037Y-27823700D01*
X207406350Y-27928465D01*
X206959846Y-28226809D01*
X206690000Y-28630663D01*
X206420154Y-28226809D01*
X205973650Y-27928465D01*
X205446963Y-27823700D01*
X205393037Y-27823700D01*
X204866350Y-27928465D01*
X204419846Y-28226809D01*
X204150000Y-28630663D01*
X203880154Y-28226809D01*
X203433650Y-27928465D01*
X202906963Y-27823700D01*
X202853037Y-27823700D01*
X202326350Y-27928465D01*
X201879846Y-28226809D01*
X201610000Y-28630663D01*
X201340154Y-28226809D01*
X200893650Y-27928465D01*
X200366963Y-27823700D01*
X200313037Y-27823700D01*
X199786350Y-27928465D01*
X199339846Y-28226809D01*
X199070000Y-28630663D01*
X198800154Y-28226809D01*
X198353650Y-27928465D01*
X197826963Y-27823700D01*
X197773037Y-27823700D01*
X197246350Y-27928465D01*
X196799846Y-28226809D01*
X196530000Y-28630663D01*
X196260154Y-28226809D01*
X195813650Y-27928465D01*
X195286963Y-27823700D01*
X195233037Y-27823700D01*
X194706350Y-27928465D01*
X194259846Y-28226809D01*
X193990000Y-28630663D01*
X193720154Y-28226809D01*
X193273650Y-27928465D01*
X192746963Y-27823700D01*
X192693037Y-27823700D01*
X192166350Y-27928465D01*
X191719846Y-28226809D01*
X191421502Y-28673313D01*
X191316737Y-29200000D01*
X190059263Y-29200000D01*
X189954498Y-28673313D01*
X189656154Y-28226809D01*
X189209650Y-27928465D01*
X188682963Y-27823700D01*
X188629037Y-27823700D01*
X188102350Y-27928465D01*
X187655846Y-28226809D01*
X187386000Y-28630663D01*
X187116154Y-28226809D01*
X186669650Y-27928465D01*
X186142963Y-27823700D01*
X186089037Y-27823700D01*
X185562350Y-27928465D01*
X185115846Y-28226809D01*
X184846000Y-28630663D01*
X184576154Y-28226809D01*
X184129650Y-27928465D01*
X183602963Y-27823700D01*
X183549037Y-27823700D01*
X183022350Y-27928465D01*
X182575846Y-28226809D01*
X182306000Y-28630663D01*
X182036154Y-28226809D01*
X181589650Y-27928465D01*
X181062963Y-27823700D01*
X181009037Y-27823700D01*
X180482350Y-27928465D01*
X180035846Y-28226809D01*
X179766000Y-28630663D01*
X179496154Y-28226809D01*
X179049650Y-27928465D01*
X178522963Y-27823700D01*
X178469037Y-27823700D01*
X177942350Y-27928465D01*
X177495846Y-28226809D01*
X177226000Y-28630663D01*
X176956154Y-28226809D01*
X176509650Y-27928465D01*
X175982963Y-27823700D01*
X175929037Y-27823700D01*
X175402350Y-27928465D01*
X174955846Y-28226809D01*
X174679709Y-28640077D01*
X174660626Y-28593990D01*
X174333974Y-28163822D01*
X173867569Y-27891403D01*
X173657300Y-27967048D01*
X173174700Y-27967048D01*
X172964431Y-27891403D01*
X172498026Y-28163822D01*
X172171374Y-28593990D01*
X172152291Y-28640077D01*
X171876154Y-28226809D01*
X171429650Y-27928465D01*
X170902963Y-27823700D01*
X170849037Y-27823700D01*
X170322350Y-27928465D01*
X169875846Y-28226809D01*
X169606000Y-28630663D01*
X169336154Y-28226809D01*
X168889650Y-27928465D01*
X168362963Y-27823700D01*
X168309037Y-27823700D01*
X167782350Y-27928465D01*
X167335846Y-28226809D01*
X167066000Y-28630663D01*
X166796154Y-28226809D01*
X166349650Y-27928465D01*
X165822963Y-27823700D01*
X165769037Y-27823700D01*
X165242350Y-27928465D01*
X164795846Y-28226809D01*
X164497502Y-28673313D01*
X164392737Y-29200000D01*
X164352700Y-29200000D01*
X164353066Y-28781602D01*
X164032104Y-28004815D01*
X163438311Y-27409985D01*
X163083610Y-27262700D01*
X211281566Y-27262700D01*
X212437300Y-28418433D01*
X212437300Y-39350000D01*
X212482036Y-39574903D01*
X212609433Y-39765567D01*
X214987300Y-42143433D01*
X214987300Y-43620418D01*
X214832104Y-43244815D01*
X214238311Y-42649985D01*
X213462086Y-42327668D01*
X212621602Y-42326934D01*
X211844815Y-42647896D01*
X211249985Y-43241689D01*
X210927668Y-44017914D01*
X210926934Y-44858398D01*
X211247896Y-45635185D01*
X211841689Y-46230015D01*
X212617914Y-46552332D01*
X213458398Y-46553066D01*
X214235185Y-46232104D01*
X214830015Y-45638311D01*
X214987300Y-45259527D01*
X214987300Y-71560418D01*
X214832104Y-71184815D01*
X214238311Y-70589985D01*
X213462086Y-70267668D01*
X212621602Y-70266934D01*
X211844815Y-70587896D01*
X211249985Y-71181689D01*
X210927668Y-71957914D01*
X210926934Y-72798398D01*
X211247896Y-73575185D01*
X211841689Y-74170015D01*
X212617914Y-74492332D01*
X213458398Y-74493066D01*
X214235185Y-74172104D01*
X214830015Y-73578311D01*
X214987300Y-73199527D01*
X214987300Y-75956567D01*
X212634433Y-78309433D01*
X212507036Y-78500097D01*
X212462300Y-78725000D01*
X212462300Y-79412300D01*
X161777481Y-79412300D01*
X162165185Y-79252104D01*
X162760015Y-78658311D01*
X163082332Y-77882086D01*
X163082700Y-77460000D01*
X173536737Y-77460000D01*
X173641502Y-77986687D01*
X173939846Y-78433191D01*
X174386350Y-78731535D01*
X174913037Y-78836300D01*
X174966963Y-78836300D01*
X175493650Y-78731535D01*
X175940154Y-78433191D01*
X176210000Y-78029337D01*
X176479846Y-78433191D01*
X176926350Y-78731535D01*
X177453037Y-78836300D01*
X177506963Y-78836300D01*
X178033650Y-78731535D01*
X178480154Y-78433191D01*
X178750000Y-78029337D01*
X179019846Y-78433191D01*
X179466350Y-78731535D01*
X179993037Y-78836300D01*
X180046963Y-78836300D01*
X180573650Y-78731535D01*
X181020154Y-78433191D01*
X181290000Y-78029337D01*
X181559846Y-78433191D01*
X182006350Y-78731535D01*
X182533037Y-78836300D01*
X182586963Y-78836300D01*
X183113650Y-78731535D01*
X183560154Y-78433191D01*
X183830000Y-78029337D01*
X184099846Y-78433191D01*
X184546350Y-78731535D01*
X185073037Y-78836300D01*
X185126963Y-78836300D01*
X185653650Y-78731535D01*
X186100154Y-78433191D01*
X186376291Y-78019923D01*
X186395374Y-78066010D01*
X186722026Y-78496178D01*
X187188431Y-78768597D01*
X187398700Y-78692952D01*
X187398700Y-77701300D01*
X187881300Y-77701300D01*
X187881300Y-78692952D01*
X188091569Y-78768597D01*
X188557974Y-78496178D01*
X188884626Y-78066010D01*
X188910000Y-78004731D01*
X188935374Y-78066010D01*
X189262026Y-78496178D01*
X189728431Y-78768597D01*
X189938700Y-78692952D01*
X189938700Y-77701300D01*
X188949308Y-77701300D01*
X188910000Y-77807420D01*
X188870692Y-77701300D01*
X187881300Y-77701300D01*
X187398700Y-77701300D01*
X187378700Y-77701300D01*
X187378700Y-77218700D01*
X187398700Y-77218700D01*
X187398700Y-76227048D01*
X187881300Y-76227048D01*
X187881300Y-77218700D01*
X188870692Y-77218700D01*
X188910000Y-77112580D01*
X188949308Y-77218700D01*
X189938700Y-77218700D01*
X189938700Y-76227048D01*
X190421300Y-76227048D01*
X190421300Y-77218700D01*
X190441300Y-77218700D01*
X190441300Y-77701300D01*
X190421300Y-77701300D01*
X190421300Y-78692952D01*
X190631569Y-78768597D01*
X191097974Y-78496178D01*
X191424626Y-78066010D01*
X191443709Y-78019923D01*
X191719846Y-78433191D01*
X192166350Y-78731535D01*
X192693037Y-78836300D01*
X192746963Y-78836300D01*
X193273650Y-78731535D01*
X193720154Y-78433191D01*
X194018498Y-77986687D01*
X194123263Y-77460000D01*
X196396737Y-77460000D01*
X196501502Y-77986687D01*
X196799846Y-78433191D01*
X197246350Y-78731535D01*
X197773037Y-78836300D01*
X197826963Y-78836300D01*
X198353650Y-78731535D01*
X198800154Y-78433191D01*
X199070000Y-78029337D01*
X199339846Y-78433191D01*
X199786350Y-78731535D01*
X200313037Y-78836300D01*
X200366963Y-78836300D01*
X200893650Y-78731535D01*
X201340154Y-78433191D01*
X201610000Y-78029337D01*
X201879846Y-78433191D01*
X202326350Y-78731535D01*
X202853037Y-78836300D01*
X202906963Y-78836300D01*
X203433650Y-78731535D01*
X203880154Y-78433191D01*
X204150000Y-78029337D01*
X204419846Y-78433191D01*
X204866350Y-78731535D01*
X205393037Y-78836300D01*
X205446963Y-78836300D01*
X205973650Y-78731535D01*
X206420154Y-78433191D01*
X206690000Y-78029337D01*
X206959846Y-78433191D01*
X207406350Y-78731535D01*
X207933037Y-78836300D01*
X207986963Y-78836300D01*
X208513650Y-78731535D01*
X208960154Y-78433191D01*
X209230000Y-78029337D01*
X209499846Y-78433191D01*
X209946350Y-78731535D01*
X210473037Y-78836300D01*
X210526963Y-78836300D01*
X211053650Y-78731535D01*
X211500154Y-78433191D01*
X211798498Y-77986687D01*
X211903263Y-77460000D01*
X211798498Y-76933313D01*
X211500154Y-76486809D01*
X211053650Y-76188465D01*
X210526963Y-76083700D01*
X210473037Y-76083700D01*
X209946350Y-76188465D01*
X209499846Y-76486809D01*
X209230000Y-76890663D01*
X208960154Y-76486809D01*
X208513650Y-76188465D01*
X207986963Y-76083700D01*
X207933037Y-76083700D01*
X207406350Y-76188465D01*
X206959846Y-76486809D01*
X206690000Y-76890663D01*
X206420154Y-76486809D01*
X205973650Y-76188465D01*
X205446963Y-76083700D01*
X205393037Y-76083700D01*
X204866350Y-76188465D01*
X204419846Y-76486809D01*
X204150000Y-76890663D01*
X203880154Y-76486809D01*
X203433650Y-76188465D01*
X202906963Y-76083700D01*
X202853037Y-76083700D01*
X202326350Y-76188465D01*
X201879846Y-76486809D01*
X201610000Y-76890663D01*
X201340154Y-76486809D01*
X200893650Y-76188465D01*
X200366963Y-76083700D01*
X200313037Y-76083700D01*
X199786350Y-76188465D01*
X199339846Y-76486809D01*
X199070000Y-76890663D01*
X198800154Y-76486809D01*
X198353650Y-76188465D01*
X197826963Y-76083700D01*
X197773037Y-76083700D01*
X197246350Y-76188465D01*
X196799846Y-76486809D01*
X196501502Y-76933313D01*
X196396737Y-77460000D01*
X194123263Y-77460000D01*
X194018498Y-76933313D01*
X193720154Y-76486809D01*
X193273650Y-76188465D01*
X192746963Y-76083700D01*
X192693037Y-76083700D01*
X192166350Y-76188465D01*
X191719846Y-76486809D01*
X191443709Y-76900077D01*
X191424626Y-76853990D01*
X191097974Y-76423822D01*
X190631569Y-76151403D01*
X190421300Y-76227048D01*
X189938700Y-76227048D01*
X189728431Y-76151403D01*
X189262026Y-76423822D01*
X188935374Y-76853990D01*
X188910000Y-76915269D01*
X188884626Y-76853990D01*
X188557974Y-76423822D01*
X188091569Y-76151403D01*
X187881300Y-76227048D01*
X187398700Y-76227048D01*
X187188431Y-76151403D01*
X186722026Y-76423822D01*
X186395374Y-76853990D01*
X186376291Y-76900077D01*
X186100154Y-76486809D01*
X185653650Y-76188465D01*
X185126963Y-76083700D01*
X185073037Y-76083700D01*
X184546350Y-76188465D01*
X184099846Y-76486809D01*
X183830000Y-76890663D01*
X183560154Y-76486809D01*
X183113650Y-76188465D01*
X182586963Y-76083700D01*
X182533037Y-76083700D01*
X182006350Y-76188465D01*
X181559846Y-76486809D01*
X181290000Y-76890663D01*
X181020154Y-76486809D01*
X180573650Y-76188465D01*
X180046963Y-76083700D01*
X179993037Y-76083700D01*
X179466350Y-76188465D01*
X179019846Y-76486809D01*
X178750000Y-76890663D01*
X178480154Y-76486809D01*
X178033650Y-76188465D01*
X177506963Y-76083700D01*
X177453037Y-76083700D01*
X176926350Y-76188465D01*
X176479846Y-76486809D01*
X176210000Y-76890663D01*
X175940154Y-76486809D01*
X175493650Y-76188465D01*
X174966963Y-76083700D01*
X174913037Y-76083700D01*
X174386350Y-76188465D01*
X173939846Y-76486809D01*
X173641502Y-76933313D01*
X173536737Y-77460000D01*
X163082700Y-77460000D01*
X163083066Y-77041602D01*
X162762104Y-76264815D01*
X162168311Y-75669985D01*
X161544479Y-75410947D01*
X182987159Y-75410947D01*
X183110625Y-75709756D01*
X183339041Y-75938572D01*
X183637635Y-76062559D01*
X183960947Y-76062841D01*
X183961288Y-76062700D01*
X186374291Y-76062700D01*
X186535947Y-76062841D01*
X186834756Y-75939375D01*
X187063572Y-75710959D01*
X187187559Y-75412365D01*
X187187841Y-75089053D01*
X187064375Y-74790244D01*
X186835959Y-74561428D01*
X186537365Y-74437441D01*
X186214053Y-74437159D01*
X186213712Y-74437300D01*
X183800709Y-74437300D01*
X183639053Y-74437159D01*
X183340244Y-74560625D01*
X183111428Y-74789041D01*
X182987441Y-75087635D01*
X182987159Y-75410947D01*
X161544479Y-75410947D01*
X161392086Y-75347668D01*
X160551602Y-75346934D01*
X159774815Y-75667896D01*
X159179985Y-76261689D01*
X158857668Y-77037914D01*
X158856934Y-77878398D01*
X159177896Y-78655185D01*
X159771689Y-79250015D01*
X160162514Y-79412300D01*
X147637034Y-79412300D01*
X147587700Y-79362956D01*
X147587700Y-71860947D01*
X195387159Y-71860947D01*
X195510625Y-72159756D01*
X195739041Y-72388572D01*
X195739381Y-72388713D01*
X197875332Y-74524663D01*
X197875334Y-74524666D01*
X198138993Y-74700837D01*
X198190593Y-74711101D01*
X198330944Y-74739019D01*
X198387635Y-74762559D01*
X198449558Y-74762613D01*
X198450000Y-74762701D01*
X198450005Y-74762700D01*
X198549291Y-74762700D01*
X198710947Y-74762841D01*
X199009756Y-74639375D01*
X199238572Y-74410959D01*
X199362559Y-74112365D01*
X199362841Y-73789053D01*
X199239375Y-73490244D01*
X199010959Y-73261428D01*
X198839608Y-73190277D01*
X196774666Y-71125334D01*
X196660959Y-71011428D01*
X196362365Y-70887441D01*
X196039053Y-70887159D01*
X195740244Y-71010625D01*
X195511428Y-71239041D01*
X195387441Y-71537635D01*
X195387159Y-71860947D01*
X147587700Y-71860947D01*
X147587700Y-70087097D01*
X163254153Y-70087097D01*
X163355686Y-70297346D01*
X163901204Y-70445160D01*
X164461763Y-70372962D01*
X164644314Y-70297346D01*
X164745847Y-70087097D01*
X164000000Y-69341250D01*
X163254153Y-70087097D01*
X147587700Y-70087097D01*
X147587700Y-68901204D01*
X162554840Y-68901204D01*
X162627038Y-69461763D01*
X162702654Y-69644314D01*
X162912903Y-69745847D01*
X163658750Y-69000000D01*
X164341250Y-69000000D01*
X165087097Y-69745847D01*
X165247607Y-69668334D01*
X165301673Y-69799185D01*
X165698725Y-70196930D01*
X166217764Y-70412454D01*
X166779770Y-70412944D01*
X167299185Y-70198327D01*
X167696930Y-69801275D01*
X167749864Y-69673796D01*
X167801673Y-69799185D01*
X168198725Y-70196930D01*
X168717764Y-70412454D01*
X169279770Y-70412944D01*
X169799185Y-70198327D01*
X169910609Y-70087097D01*
X192254153Y-70087097D01*
X192355686Y-70297346D01*
X192901204Y-70445160D01*
X193461763Y-70372962D01*
X193644314Y-70297346D01*
X193745847Y-70087097D01*
X193000000Y-69341250D01*
X192254153Y-70087097D01*
X169910609Y-70087097D01*
X170196930Y-69801275D01*
X170412454Y-69282236D01*
X170412786Y-68901204D01*
X191554840Y-68901204D01*
X191627038Y-69461763D01*
X191702654Y-69644314D01*
X191912903Y-69745847D01*
X192658750Y-69000000D01*
X193341250Y-69000000D01*
X194087097Y-69745847D01*
X194247607Y-69668334D01*
X194301673Y-69799185D01*
X194698725Y-70196930D01*
X195217764Y-70412454D01*
X195779770Y-70412944D01*
X196299185Y-70198327D01*
X196696930Y-69801275D01*
X196749864Y-69673796D01*
X196801673Y-69799185D01*
X197198725Y-70196930D01*
X197717764Y-70412454D01*
X198279770Y-70412944D01*
X198799185Y-70198327D01*
X199196930Y-69801275D01*
X199412454Y-69282236D01*
X199412944Y-68720230D01*
X199198327Y-68200815D01*
X198997862Y-68000000D01*
X210100808Y-68000000D01*
X210204537Y-68521483D01*
X210499934Y-68963574D01*
X210942025Y-69258971D01*
X211463508Y-69362700D01*
X212536492Y-69362700D01*
X213057975Y-69258971D01*
X213500066Y-68963574D01*
X213795463Y-68521483D01*
X213899192Y-68000000D01*
X213795463Y-67478517D01*
X213500066Y-67036426D01*
X213057975Y-66741029D01*
X212940706Y-66717703D01*
X213092784Y-66616087D01*
X213312310Y-66287544D01*
X213389397Y-65900000D01*
X213312310Y-65512456D01*
X213092784Y-65183913D01*
X212764241Y-64964387D01*
X212503570Y-64912537D01*
X212797298Y-64837963D01*
X213122192Y-64595391D01*
X213291810Y-64293476D01*
X213207210Y-64141300D01*
X212241300Y-64141300D01*
X212241300Y-64161300D01*
X211758700Y-64161300D01*
X211758700Y-64141300D01*
X210792790Y-64141300D01*
X210708190Y-64293476D01*
X210877808Y-64595391D01*
X211202702Y-64837963D01*
X211496430Y-64912537D01*
X211235759Y-64964387D01*
X210907216Y-65183913D01*
X210687690Y-65512456D01*
X210610603Y-65900000D01*
X210687690Y-66287544D01*
X210907216Y-66616087D01*
X211059294Y-66717703D01*
X210942025Y-66741029D01*
X210499934Y-67036426D01*
X210204537Y-67478517D01*
X210100808Y-68000000D01*
X198997862Y-68000000D01*
X198801275Y-67803070D01*
X198282236Y-67587546D01*
X197720230Y-67587056D01*
X197200815Y-67801673D01*
X196803070Y-68198725D01*
X196750136Y-68326204D01*
X196698327Y-68200815D01*
X196301275Y-67803070D01*
X195782236Y-67587546D01*
X195220230Y-67587056D01*
X194700815Y-67801673D01*
X194303070Y-68198725D01*
X194247824Y-68331771D01*
X194087097Y-68254153D01*
X193341250Y-69000000D01*
X192658750Y-69000000D01*
X191912903Y-68254153D01*
X191702654Y-68355686D01*
X191554840Y-68901204D01*
X170412786Y-68901204D01*
X170412944Y-68720230D01*
X170198327Y-68200815D01*
X169910917Y-67912903D01*
X192254153Y-67912903D01*
X193000000Y-68658750D01*
X193745847Y-67912903D01*
X193644314Y-67702654D01*
X193098796Y-67554840D01*
X192538237Y-67627038D01*
X192355686Y-67702654D01*
X192254153Y-67912903D01*
X169910917Y-67912903D01*
X169801275Y-67803070D01*
X169282236Y-67587546D01*
X168720230Y-67587056D01*
X168200815Y-67801673D01*
X167803070Y-68198725D01*
X167750136Y-68326204D01*
X167698327Y-68200815D01*
X167301275Y-67803070D01*
X166782236Y-67587546D01*
X166220230Y-67587056D01*
X165700815Y-67801673D01*
X165303070Y-68198725D01*
X165247824Y-68331771D01*
X165087097Y-68254153D01*
X164341250Y-69000000D01*
X163658750Y-69000000D01*
X162912903Y-68254153D01*
X162702654Y-68355686D01*
X162554840Y-68901204D01*
X147587700Y-68901204D01*
X147587700Y-67912903D01*
X163254153Y-67912903D01*
X164000000Y-68658750D01*
X164745847Y-67912903D01*
X164644314Y-67702654D01*
X164098796Y-67554840D01*
X163538237Y-67627038D01*
X163355686Y-67702654D01*
X163254153Y-67912903D01*
X147587700Y-67912903D01*
X147587700Y-62497614D01*
X159586865Y-62497614D01*
X159968594Y-63421471D01*
X160674811Y-64128922D01*
X161598000Y-64512263D01*
X162597614Y-64513135D01*
X163521471Y-64131406D01*
X164228922Y-63425189D01*
X164612263Y-62502000D01*
X164612266Y-62497614D01*
X168386865Y-62497614D01*
X168768594Y-63421471D01*
X169474811Y-64128922D01*
X170398000Y-64512263D01*
X171397614Y-64513135D01*
X172321471Y-64131406D01*
X173028922Y-63425189D01*
X173412263Y-62502000D01*
X173412266Y-62497614D01*
X188586865Y-62497614D01*
X188968594Y-63421471D01*
X189674811Y-64128922D01*
X190598000Y-64512263D01*
X191597614Y-64513135D01*
X192521471Y-64131406D01*
X193228922Y-63425189D01*
X193612263Y-62502000D01*
X193612266Y-62497614D01*
X197386865Y-62497614D01*
X197768594Y-63421471D01*
X198474811Y-64128922D01*
X199398000Y-64512263D01*
X200397614Y-64513135D01*
X201321471Y-64131406D01*
X202028922Y-63425189D01*
X202412263Y-62502000D01*
X202413135Y-61502386D01*
X202031406Y-60578529D01*
X201325189Y-59871078D01*
X200402000Y-59487737D01*
X199402386Y-59486865D01*
X198478529Y-59868594D01*
X197771078Y-60574811D01*
X197387737Y-61498000D01*
X197386865Y-62497614D01*
X193612266Y-62497614D01*
X193613135Y-61502386D01*
X193231406Y-60578529D01*
X192525189Y-59871078D01*
X191602000Y-59487737D01*
X190602386Y-59486865D01*
X189678529Y-59868594D01*
X188971078Y-60574811D01*
X188587737Y-61498000D01*
X188586865Y-62497614D01*
X173412266Y-62497614D01*
X173413135Y-61502386D01*
X173031406Y-60578529D01*
X172325189Y-59871078D01*
X171402000Y-59487737D01*
X170402386Y-59486865D01*
X169478529Y-59868594D01*
X168771078Y-60574811D01*
X168387737Y-61498000D01*
X168386865Y-62497614D01*
X164612266Y-62497614D01*
X164613135Y-61502386D01*
X164231406Y-60578529D01*
X163525189Y-59871078D01*
X162602000Y-59487737D01*
X161602386Y-59486865D01*
X160678529Y-59868594D01*
X159971078Y-60574811D01*
X159587737Y-61498000D01*
X159586865Y-62497614D01*
X147587700Y-62497614D01*
X147587700Y-58989405D01*
X147705067Y-58989405D01*
X147766550Y-59137892D01*
X148089244Y-59564401D01*
X148550592Y-59834954D01*
X148758700Y-59759139D01*
X148758700Y-58781300D01*
X149241300Y-58781300D01*
X149241300Y-59759139D01*
X149449408Y-59834954D01*
X149910756Y-59564401D01*
X150233450Y-59137892D01*
X150294933Y-58989405D01*
X150216831Y-58781300D01*
X149241300Y-58781300D01*
X148758700Y-58781300D01*
X147783169Y-58781300D01*
X147705067Y-58989405D01*
X147587700Y-58989405D01*
X147587700Y-55150000D01*
X147627256Y-55150000D01*
X147627256Y-56850000D01*
X147663006Y-57039995D01*
X147775293Y-57214494D01*
X147946623Y-57331559D01*
X148150000Y-57372744D01*
X148332841Y-57372744D01*
X148089244Y-57515599D01*
X147766550Y-57942108D01*
X147705067Y-58090595D01*
X147783169Y-58298700D01*
X148758700Y-58298700D01*
X148758700Y-58278700D01*
X149241300Y-58278700D01*
X149241300Y-58298700D01*
X150216831Y-58298700D01*
X150294933Y-58090595D01*
X150233450Y-57942108D01*
X149910756Y-57515599D01*
X149667159Y-57372744D01*
X149850000Y-57372744D01*
X150039995Y-57336994D01*
X150214494Y-57224707D01*
X150331559Y-57053377D01*
X150372744Y-56850000D01*
X150372744Y-55150000D01*
X150336994Y-54960005D01*
X150224707Y-54785506D01*
X150053377Y-54668441D01*
X149850000Y-54627256D01*
X148150000Y-54627256D01*
X147960005Y-54663006D01*
X147785506Y-54775293D01*
X147668441Y-54946623D01*
X147627256Y-55150000D01*
X147587700Y-55150000D01*
X147587700Y-50200000D01*
X149677256Y-50200000D01*
X149677256Y-51800000D01*
X149713006Y-51989995D01*
X149825293Y-52164494D01*
X149996623Y-52281559D01*
X150200000Y-52322744D01*
X151800000Y-52322744D01*
X151989995Y-52286994D01*
X152164494Y-52174707D01*
X152281559Y-52003377D01*
X152322744Y-51800000D01*
X152322744Y-51588316D01*
X152386498Y-51742613D01*
X152755444Y-52112204D01*
X153237742Y-52312471D01*
X153759967Y-52312927D01*
X154242613Y-52113502D01*
X154612204Y-51744556D01*
X154812471Y-51262258D01*
X154812927Y-50740033D01*
X154613502Y-50257387D01*
X154357074Y-50000510D01*
X159976506Y-50000510D01*
X159976506Y-51999490D01*
X160012256Y-52189485D01*
X160124543Y-52363984D01*
X160295873Y-52481049D01*
X160499250Y-52522234D01*
X162498230Y-52522234D01*
X162688225Y-52486484D01*
X162862724Y-52374197D01*
X162979789Y-52202867D01*
X163020974Y-51999490D01*
X163020974Y-50000510D01*
X169979026Y-50000510D01*
X169979026Y-51999490D01*
X170014776Y-52189485D01*
X170127063Y-52363984D01*
X170298393Y-52481049D01*
X170501770Y-52522234D01*
X172500750Y-52522234D01*
X172690745Y-52486484D01*
X172865244Y-52374197D01*
X172982309Y-52202867D01*
X173020625Y-52013655D01*
X177827594Y-52013655D01*
X177916531Y-52213600D01*
X178425369Y-52344504D01*
X178945570Y-52270720D01*
X179083469Y-52213600D01*
X179172406Y-52013655D01*
X178500000Y-51341250D01*
X177827594Y-52013655D01*
X173020625Y-52013655D01*
X173023494Y-51999490D01*
X173023494Y-50925369D01*
X177155496Y-50925369D01*
X177229280Y-51445570D01*
X177286400Y-51583469D01*
X177486345Y-51672406D01*
X178158750Y-51000000D01*
X178841250Y-51000000D01*
X179513655Y-51672406D01*
X179713600Y-51583469D01*
X179796824Y-51259967D01*
X182187073Y-51259967D01*
X182386498Y-51742613D01*
X182755444Y-52112204D01*
X183237742Y-52312471D01*
X183759967Y-52312927D01*
X184242613Y-52113502D01*
X184612204Y-51744556D01*
X184812471Y-51262258D01*
X184812927Y-50740033D01*
X184613502Y-50257387D01*
X184357074Y-50000510D01*
X188976506Y-50000510D01*
X188976506Y-51999490D01*
X189012256Y-52189485D01*
X189124543Y-52363984D01*
X189295873Y-52481049D01*
X189499250Y-52522234D01*
X191498230Y-52522234D01*
X191688225Y-52486484D01*
X191862724Y-52374197D01*
X191979789Y-52202867D01*
X192020974Y-51999490D01*
X192020974Y-51371475D01*
X198981070Y-51371475D01*
X198981070Y-52103063D01*
X199060342Y-52294443D01*
X199206817Y-52440918D01*
X199398196Y-52520190D01*
X200129785Y-52520190D01*
X200259960Y-52390015D01*
X200259960Y-51241300D01*
X200742560Y-51241300D01*
X200742560Y-52390015D01*
X200872735Y-52520190D01*
X201604324Y-52520190D01*
X201795703Y-52440918D01*
X201942178Y-52294443D01*
X202021450Y-52103063D01*
X202021450Y-51371475D01*
X201891275Y-51241300D01*
X200742560Y-51241300D01*
X200259960Y-51241300D01*
X199111245Y-51241300D01*
X198981070Y-51371475D01*
X192020974Y-51371475D01*
X192020974Y-50000510D01*
X192001486Y-49896937D01*
X198981070Y-49896937D01*
X198981070Y-50628525D01*
X199111245Y-50758700D01*
X200259960Y-50758700D01*
X200259960Y-49609985D01*
X200742560Y-49609985D01*
X200742560Y-50758700D01*
X201891275Y-50758700D01*
X202021450Y-50628525D01*
X202021450Y-49896937D01*
X201942178Y-49705557D01*
X201795703Y-49559082D01*
X201604324Y-49479810D01*
X200872735Y-49479810D01*
X200742560Y-49609985D01*
X200259960Y-49609985D01*
X200129785Y-49479810D01*
X199398196Y-49479810D01*
X199206817Y-49559082D01*
X199060342Y-49705557D01*
X198981070Y-49896937D01*
X192001486Y-49896937D01*
X191985224Y-49810515D01*
X191872937Y-49636016D01*
X191701607Y-49518951D01*
X191498230Y-49477766D01*
X189499250Y-49477766D01*
X189309255Y-49513516D01*
X189134756Y-49625803D01*
X189017691Y-49797133D01*
X188976506Y-50000510D01*
X184357074Y-50000510D01*
X184244556Y-49887796D01*
X183762258Y-49687529D01*
X183240033Y-49687073D01*
X182757387Y-49886498D01*
X182387796Y-50255444D01*
X182187529Y-50737742D01*
X182187073Y-51259967D01*
X179796824Y-51259967D01*
X179844504Y-51074631D01*
X179770720Y-50554430D01*
X179713600Y-50416531D01*
X179513655Y-50327594D01*
X178841250Y-51000000D01*
X178158750Y-51000000D01*
X177486345Y-50327594D01*
X177286400Y-50416531D01*
X177155496Y-50925369D01*
X173023494Y-50925369D01*
X173023494Y-50000510D01*
X173020829Y-49986345D01*
X177827594Y-49986345D01*
X178500000Y-50658750D01*
X179172406Y-49986345D01*
X179083469Y-49786400D01*
X178574631Y-49655496D01*
X178054430Y-49729280D01*
X177916531Y-49786400D01*
X177827594Y-49986345D01*
X173020829Y-49986345D01*
X172987744Y-49810515D01*
X172875457Y-49636016D01*
X172704127Y-49518951D01*
X172500750Y-49477766D01*
X170501770Y-49477766D01*
X170311775Y-49513516D01*
X170137276Y-49625803D01*
X170020211Y-49797133D01*
X169979026Y-50000510D01*
X163020974Y-50000510D01*
X162985224Y-49810515D01*
X162872937Y-49636016D01*
X162701607Y-49518951D01*
X162498230Y-49477766D01*
X160499250Y-49477766D01*
X160309255Y-49513516D01*
X160134756Y-49625803D01*
X160017691Y-49797133D01*
X159976506Y-50000510D01*
X154357074Y-50000510D01*
X154244556Y-49887796D01*
X153762258Y-49687529D01*
X153240033Y-49687073D01*
X152757387Y-49886498D01*
X152387796Y-50255444D01*
X152322744Y-50412107D01*
X152322744Y-50200000D01*
X152286994Y-50010005D01*
X152174707Y-49835506D01*
X152003377Y-49718441D01*
X151800000Y-49677256D01*
X150200000Y-49677256D01*
X150010005Y-49713006D01*
X149835506Y-49825293D01*
X149718441Y-49996623D01*
X149677256Y-50200000D01*
X147587700Y-50200000D01*
X147587700Y-46468682D01*
X147725334Y-46674666D01*
X149425334Y-48374666D01*
X149688993Y-48550837D01*
X150000000Y-48612700D01*
X185297148Y-48612700D01*
X185537635Y-48712559D01*
X185860947Y-48712841D01*
X186159756Y-48589375D01*
X186388572Y-48360959D01*
X186512559Y-48062365D01*
X186512841Y-47739053D01*
X186389375Y-47440244D01*
X186160959Y-47211428D01*
X186142191Y-47203635D01*
X185911007Y-47049163D01*
X185600000Y-46987300D01*
X150336632Y-46987300D01*
X149112700Y-45763368D01*
X149112700Y-45000000D01*
X150100808Y-45000000D01*
X150204537Y-45521483D01*
X150499934Y-45963574D01*
X150942025Y-46258971D01*
X151463508Y-46362700D01*
X152536492Y-46362700D01*
X153057975Y-46258971D01*
X153500066Y-45963574D01*
X153795463Y-45521483D01*
X153899192Y-45000000D01*
X158100808Y-45000000D01*
X158204537Y-45521483D01*
X158499934Y-45963574D01*
X158942025Y-46258971D01*
X159463508Y-46362700D01*
X160536492Y-46362700D01*
X161057975Y-46258971D01*
X161500066Y-45963574D01*
X161795463Y-45521483D01*
X161899192Y-45000000D01*
X166100808Y-45000000D01*
X166204537Y-45521483D01*
X166499934Y-45963574D01*
X166942025Y-46258971D01*
X167463508Y-46362700D01*
X168536492Y-46362700D01*
X169057975Y-46258971D01*
X169500066Y-45963574D01*
X169795463Y-45521483D01*
X169899192Y-45000000D01*
X174100808Y-45000000D01*
X174204537Y-45521483D01*
X174499934Y-45963574D01*
X174942025Y-46258971D01*
X175463508Y-46362700D01*
X176536492Y-46362700D01*
X177057975Y-46258971D01*
X177500066Y-45963574D01*
X177795463Y-45521483D01*
X177899192Y-45000000D01*
X182100808Y-45000000D01*
X182204537Y-45521483D01*
X182499934Y-45963574D01*
X182942025Y-46258971D01*
X183463508Y-46362700D01*
X184536492Y-46362700D01*
X185057975Y-46258971D01*
X185500066Y-45963574D01*
X185795463Y-45521483D01*
X185899192Y-45000000D01*
X190100808Y-45000000D01*
X190204537Y-45521483D01*
X190499934Y-45963574D01*
X190942025Y-46258971D01*
X191463508Y-46362700D01*
X192536492Y-46362700D01*
X193057975Y-46258971D01*
X193500066Y-45963574D01*
X193795463Y-45521483D01*
X193899192Y-45000000D01*
X198100808Y-45000000D01*
X198204537Y-45521483D01*
X198499934Y-45963574D01*
X198942025Y-46258971D01*
X199463508Y-46362700D01*
X200536492Y-46362700D01*
X201057975Y-46258971D01*
X201500066Y-45963574D01*
X201795463Y-45521483D01*
X201899192Y-45000000D01*
X201795463Y-44478517D01*
X201500066Y-44036426D01*
X201057975Y-43741029D01*
X200940706Y-43717703D01*
X201092784Y-43616087D01*
X201312310Y-43287544D01*
X201389397Y-42900000D01*
X201312310Y-42512456D01*
X201092784Y-42183913D01*
X200764241Y-41964387D01*
X200503570Y-41912537D01*
X200797298Y-41837963D01*
X201122192Y-41595391D01*
X201291810Y-41293476D01*
X201207210Y-41141300D01*
X200241300Y-41141300D01*
X200241300Y-41161300D01*
X199758700Y-41161300D01*
X199758700Y-41141300D01*
X198792790Y-41141300D01*
X198708190Y-41293476D01*
X198877808Y-41595391D01*
X199202702Y-41837963D01*
X199496430Y-41912537D01*
X199235759Y-41964387D01*
X198907216Y-42183913D01*
X198687690Y-42512456D01*
X198610603Y-42900000D01*
X198687690Y-43287544D01*
X198907216Y-43616087D01*
X199059294Y-43717703D01*
X198942025Y-43741029D01*
X198499934Y-44036426D01*
X198204537Y-44478517D01*
X198100808Y-45000000D01*
X193899192Y-45000000D01*
X193795463Y-44478517D01*
X193500066Y-44036426D01*
X193057975Y-43741029D01*
X192940706Y-43717703D01*
X193092784Y-43616087D01*
X193312310Y-43287544D01*
X193389397Y-42900000D01*
X193312310Y-42512456D01*
X193092784Y-42183913D01*
X192764241Y-41964387D01*
X192503570Y-41912537D01*
X192797298Y-41837963D01*
X193122192Y-41595391D01*
X193291810Y-41293476D01*
X193207210Y-41141300D01*
X192241300Y-41141300D01*
X192241300Y-41161300D01*
X191758700Y-41161300D01*
X191758700Y-41141300D01*
X190792790Y-41141300D01*
X190708190Y-41293476D01*
X190877808Y-41595391D01*
X191202702Y-41837963D01*
X191496430Y-41912537D01*
X191235759Y-41964387D01*
X190907216Y-42183913D01*
X190687690Y-42512456D01*
X190610603Y-42900000D01*
X190687690Y-43287544D01*
X190907216Y-43616087D01*
X191059294Y-43717703D01*
X190942025Y-43741029D01*
X190499934Y-44036426D01*
X190204537Y-44478517D01*
X190100808Y-45000000D01*
X185899192Y-45000000D01*
X185795463Y-44478517D01*
X185500066Y-44036426D01*
X185057975Y-43741029D01*
X184940706Y-43717703D01*
X185092784Y-43616087D01*
X185312310Y-43287544D01*
X185389397Y-42900000D01*
X185312310Y-42512456D01*
X185092784Y-42183913D01*
X184764241Y-41964387D01*
X184503570Y-41912537D01*
X184797298Y-41837963D01*
X185122192Y-41595391D01*
X185291810Y-41293476D01*
X185207210Y-41141300D01*
X184241300Y-41141300D01*
X184241300Y-41161300D01*
X183758700Y-41161300D01*
X183758700Y-41141300D01*
X182792790Y-41141300D01*
X182708190Y-41293476D01*
X182877808Y-41595391D01*
X183202702Y-41837963D01*
X183496430Y-41912537D01*
X183235759Y-41964387D01*
X182907216Y-42183913D01*
X182687690Y-42512456D01*
X182610603Y-42900000D01*
X182687690Y-43287544D01*
X182907216Y-43616087D01*
X183059294Y-43717703D01*
X182942025Y-43741029D01*
X182499934Y-44036426D01*
X182204537Y-44478517D01*
X182100808Y-45000000D01*
X177899192Y-45000000D01*
X177795463Y-44478517D01*
X177500066Y-44036426D01*
X177057975Y-43741029D01*
X176940706Y-43717703D01*
X177092784Y-43616087D01*
X177312310Y-43287544D01*
X177389397Y-42900000D01*
X177312310Y-42512456D01*
X177092784Y-42183913D01*
X176764241Y-41964387D01*
X176503570Y-41912537D01*
X176797298Y-41837963D01*
X177122192Y-41595391D01*
X177291810Y-41293476D01*
X177207210Y-41141300D01*
X176241300Y-41141300D01*
X176241300Y-41161300D01*
X175758700Y-41161300D01*
X175758700Y-41141300D01*
X174792790Y-41141300D01*
X174708190Y-41293476D01*
X174877808Y-41595391D01*
X175202702Y-41837963D01*
X175496430Y-41912537D01*
X175235759Y-41964387D01*
X174907216Y-42183913D01*
X174687690Y-42512456D01*
X174610603Y-42900000D01*
X174687690Y-43287544D01*
X174907216Y-43616087D01*
X175059294Y-43717703D01*
X174942025Y-43741029D01*
X174499934Y-44036426D01*
X174204537Y-44478517D01*
X174100808Y-45000000D01*
X169899192Y-45000000D01*
X169795463Y-44478517D01*
X169500066Y-44036426D01*
X169057975Y-43741029D01*
X168940706Y-43717703D01*
X169092784Y-43616087D01*
X169312310Y-43287544D01*
X169389397Y-42900000D01*
X169312310Y-42512456D01*
X169092784Y-42183913D01*
X168764241Y-41964387D01*
X168503570Y-41912537D01*
X168797298Y-41837963D01*
X169122192Y-41595391D01*
X169291810Y-41293476D01*
X169207210Y-41141300D01*
X168241300Y-41141300D01*
X168241300Y-41161300D01*
X167758700Y-41161300D01*
X167758700Y-41141300D01*
X166792790Y-41141300D01*
X166708190Y-41293476D01*
X166877808Y-41595391D01*
X167202702Y-41837963D01*
X167496430Y-41912537D01*
X167235759Y-41964387D01*
X166907216Y-42183913D01*
X166687690Y-42512456D01*
X166610603Y-42900000D01*
X166687690Y-43287544D01*
X166907216Y-43616087D01*
X167059294Y-43717703D01*
X166942025Y-43741029D01*
X166499934Y-44036426D01*
X166204537Y-44478517D01*
X166100808Y-45000000D01*
X161899192Y-45000000D01*
X161795463Y-44478517D01*
X161500066Y-44036426D01*
X161057975Y-43741029D01*
X160940706Y-43717703D01*
X161092784Y-43616087D01*
X161312310Y-43287544D01*
X161389397Y-42900000D01*
X161312310Y-42512456D01*
X161092784Y-42183913D01*
X160764241Y-41964387D01*
X160503570Y-41912537D01*
X160797298Y-41837963D01*
X161122192Y-41595391D01*
X161291810Y-41293476D01*
X161207210Y-41141300D01*
X160241300Y-41141300D01*
X160241300Y-41161300D01*
X159758700Y-41161300D01*
X159758700Y-41141300D01*
X158792790Y-41141300D01*
X158708190Y-41293476D01*
X158877808Y-41595391D01*
X159202702Y-41837963D01*
X159496430Y-41912537D01*
X159235759Y-41964387D01*
X158907216Y-42183913D01*
X158687690Y-42512456D01*
X158610603Y-42900000D01*
X158687690Y-43287544D01*
X158907216Y-43616087D01*
X159059294Y-43717703D01*
X158942025Y-43741029D01*
X158499934Y-44036426D01*
X158204537Y-44478517D01*
X158100808Y-45000000D01*
X153899192Y-45000000D01*
X153795463Y-44478517D01*
X153500066Y-44036426D01*
X153057975Y-43741029D01*
X152940706Y-43717703D01*
X153092784Y-43616087D01*
X153312310Y-43287544D01*
X153389397Y-42900000D01*
X153312310Y-42512456D01*
X153092784Y-42183913D01*
X152764241Y-41964387D01*
X152503570Y-41912537D01*
X152797298Y-41837963D01*
X153122192Y-41595391D01*
X153291810Y-41293476D01*
X153207210Y-41141300D01*
X152241300Y-41141300D01*
X152241300Y-41161300D01*
X151758700Y-41161300D01*
X151758700Y-41141300D01*
X150792790Y-41141300D01*
X150708190Y-41293476D01*
X150877808Y-41595391D01*
X151202702Y-41837963D01*
X151496430Y-41912537D01*
X151235759Y-41964387D01*
X150907216Y-42183913D01*
X150687690Y-42512456D01*
X150610603Y-42900000D01*
X150687690Y-43287544D01*
X150907216Y-43616087D01*
X151059294Y-43717703D01*
X150942025Y-43741029D01*
X150499934Y-44036426D01*
X150204537Y-44478517D01*
X150100808Y-45000000D01*
X149112700Y-45000000D01*
X149112700Y-36800000D01*
X150100808Y-36800000D01*
X150204537Y-37321483D01*
X150499934Y-37763574D01*
X150942025Y-38058971D01*
X151059294Y-38082297D01*
X150907216Y-38183913D01*
X150687690Y-38512456D01*
X150610603Y-38900000D01*
X150687690Y-39287544D01*
X150907216Y-39616087D01*
X151235759Y-39835613D01*
X151496430Y-39887463D01*
X151202702Y-39962037D01*
X150877808Y-40204609D01*
X150708190Y-40506524D01*
X150792790Y-40658700D01*
X151758700Y-40658700D01*
X151758700Y-40638700D01*
X152241300Y-40638700D01*
X152241300Y-40658700D01*
X153207210Y-40658700D01*
X153291810Y-40506524D01*
X153122192Y-40204609D01*
X152797298Y-39962037D01*
X152503570Y-39887463D01*
X152764241Y-39835613D01*
X153092784Y-39616087D01*
X153312310Y-39287544D01*
X153389397Y-38900000D01*
X153312310Y-38512456D01*
X153092784Y-38183913D01*
X152940706Y-38082297D01*
X153057975Y-38058971D01*
X153500066Y-37763574D01*
X153795463Y-37321483D01*
X153899192Y-36800000D01*
X158100808Y-36800000D01*
X158204537Y-37321483D01*
X158499934Y-37763574D01*
X158942025Y-38058971D01*
X159059294Y-38082297D01*
X158907216Y-38183913D01*
X158687690Y-38512456D01*
X158610603Y-38900000D01*
X158687690Y-39287544D01*
X158907216Y-39616087D01*
X159235759Y-39835613D01*
X159496430Y-39887463D01*
X159202702Y-39962037D01*
X158877808Y-40204609D01*
X158708190Y-40506524D01*
X158792790Y-40658700D01*
X159758700Y-40658700D01*
X159758700Y-40638700D01*
X160241300Y-40638700D01*
X160241300Y-40658700D01*
X161207210Y-40658700D01*
X161291810Y-40506524D01*
X161122192Y-40204609D01*
X160797298Y-39962037D01*
X160503570Y-39887463D01*
X160764241Y-39835613D01*
X161092784Y-39616087D01*
X161312310Y-39287544D01*
X161389397Y-38900000D01*
X161312310Y-38512456D01*
X161092784Y-38183913D01*
X160940706Y-38082297D01*
X161057975Y-38058971D01*
X161500066Y-37763574D01*
X161795463Y-37321483D01*
X161899192Y-36800000D01*
X166100808Y-36800000D01*
X166204537Y-37321483D01*
X166499934Y-37763574D01*
X166942025Y-38058971D01*
X167059294Y-38082297D01*
X166907216Y-38183913D01*
X166687690Y-38512456D01*
X166610603Y-38900000D01*
X166687690Y-39287544D01*
X166907216Y-39616087D01*
X167235759Y-39835613D01*
X167496430Y-39887463D01*
X167202702Y-39962037D01*
X166877808Y-40204609D01*
X166708190Y-40506524D01*
X166792790Y-40658700D01*
X167758700Y-40658700D01*
X167758700Y-40638700D01*
X168241300Y-40638700D01*
X168241300Y-40658700D01*
X169207210Y-40658700D01*
X169291810Y-40506524D01*
X169122192Y-40204609D01*
X168797298Y-39962037D01*
X168503570Y-39887463D01*
X168764241Y-39835613D01*
X169092784Y-39616087D01*
X169312310Y-39287544D01*
X169389397Y-38900000D01*
X169312310Y-38512456D01*
X169092784Y-38183913D01*
X168940706Y-38082297D01*
X169057975Y-38058971D01*
X169500066Y-37763574D01*
X169705701Y-37455821D01*
X169810625Y-37709756D01*
X170039041Y-37938572D01*
X170337635Y-38062559D01*
X170660947Y-38062841D01*
X170661288Y-38062700D01*
X172749291Y-38062700D01*
X172910947Y-38062841D01*
X173209756Y-37939375D01*
X173438572Y-37710959D01*
X173562559Y-37412365D01*
X173562841Y-37089053D01*
X173443407Y-36800000D01*
X174100808Y-36800000D01*
X174204537Y-37321483D01*
X174499934Y-37763574D01*
X174942025Y-38058971D01*
X175059294Y-38082297D01*
X174907216Y-38183913D01*
X174687690Y-38512456D01*
X174610603Y-38900000D01*
X174687690Y-39287544D01*
X174907216Y-39616087D01*
X175235759Y-39835613D01*
X175496430Y-39887463D01*
X175202702Y-39962037D01*
X174877808Y-40204609D01*
X174708190Y-40506524D01*
X174792790Y-40658700D01*
X175758700Y-40658700D01*
X175758700Y-40638700D01*
X176241300Y-40638700D01*
X176241300Y-40658700D01*
X177207210Y-40658700D01*
X177291810Y-40506524D01*
X177122192Y-40204609D01*
X176797298Y-39962037D01*
X176503570Y-39887463D01*
X176764241Y-39835613D01*
X177092784Y-39616087D01*
X177312310Y-39287544D01*
X177389397Y-38900000D01*
X177312310Y-38512456D01*
X177092784Y-38183913D01*
X176940706Y-38082297D01*
X177057975Y-38058971D01*
X177500066Y-37763574D01*
X177795463Y-37321483D01*
X177899192Y-36800000D01*
X182100808Y-36800000D01*
X182204537Y-37321483D01*
X182499934Y-37763574D01*
X182942025Y-38058971D01*
X183059294Y-38082297D01*
X182907216Y-38183913D01*
X182687690Y-38512456D01*
X182610603Y-38900000D01*
X182687690Y-39287544D01*
X182907216Y-39616087D01*
X183235759Y-39835613D01*
X183496430Y-39887463D01*
X183202702Y-39962037D01*
X182877808Y-40204609D01*
X182708190Y-40506524D01*
X182792790Y-40658700D01*
X183758700Y-40658700D01*
X183758700Y-40638700D01*
X184241300Y-40638700D01*
X184241300Y-40658700D01*
X185207210Y-40658700D01*
X185291810Y-40506524D01*
X185122192Y-40204609D01*
X184797298Y-39962037D01*
X184503570Y-39887463D01*
X184764241Y-39835613D01*
X185092784Y-39616087D01*
X185312310Y-39287544D01*
X185389397Y-38900000D01*
X185312310Y-38512456D01*
X185092784Y-38183913D01*
X184940706Y-38082297D01*
X185057975Y-38058971D01*
X185500066Y-37763574D01*
X185795463Y-37321483D01*
X185899192Y-36800000D01*
X190100808Y-36800000D01*
X190204537Y-37321483D01*
X190499934Y-37763574D01*
X190942025Y-38058971D01*
X191059294Y-38082297D01*
X190907216Y-38183913D01*
X190687690Y-38512456D01*
X190610603Y-38900000D01*
X190687690Y-39287544D01*
X190907216Y-39616087D01*
X191235759Y-39835613D01*
X191496430Y-39887463D01*
X191202702Y-39962037D01*
X190877808Y-40204609D01*
X190708190Y-40506524D01*
X190792790Y-40658700D01*
X191758700Y-40658700D01*
X191758700Y-40638700D01*
X192241300Y-40638700D01*
X192241300Y-40658700D01*
X193207210Y-40658700D01*
X193291810Y-40506524D01*
X193122192Y-40204609D01*
X192797298Y-39962037D01*
X192503570Y-39887463D01*
X192764241Y-39835613D01*
X193092784Y-39616087D01*
X193312310Y-39287544D01*
X193389397Y-38900000D01*
X193312310Y-38512456D01*
X193092784Y-38183913D01*
X192940706Y-38082297D01*
X193057975Y-38058971D01*
X193500066Y-37763574D01*
X193795463Y-37321483D01*
X193899192Y-36800000D01*
X198100808Y-36800000D01*
X198204537Y-37321483D01*
X198499934Y-37763574D01*
X198942025Y-38058971D01*
X199059294Y-38082297D01*
X198907216Y-38183913D01*
X198687690Y-38512456D01*
X198610603Y-38900000D01*
X198687690Y-39287544D01*
X198907216Y-39616087D01*
X199235759Y-39835613D01*
X199496430Y-39887463D01*
X199202702Y-39962037D01*
X198877808Y-40204609D01*
X198708190Y-40506524D01*
X198792790Y-40658700D01*
X199758700Y-40658700D01*
X199758700Y-40638700D01*
X200241300Y-40638700D01*
X200241300Y-40658700D01*
X201207210Y-40658700D01*
X201291810Y-40506524D01*
X201122192Y-40204609D01*
X200797298Y-39962037D01*
X200503570Y-39887463D01*
X200764241Y-39835613D01*
X201092784Y-39616087D01*
X201312310Y-39287544D01*
X201389397Y-38900000D01*
X201312310Y-38512456D01*
X201092784Y-38183913D01*
X200940706Y-38082297D01*
X201057975Y-38058971D01*
X201500066Y-37763574D01*
X201795463Y-37321483D01*
X201899192Y-36800000D01*
X201795463Y-36278517D01*
X201500066Y-35836426D01*
X201057975Y-35541029D01*
X200536492Y-35437300D01*
X199463508Y-35437300D01*
X198942025Y-35541029D01*
X198499934Y-35836426D01*
X198204537Y-36278517D01*
X198100808Y-36800000D01*
X193899192Y-36800000D01*
X193795463Y-36278517D01*
X193500066Y-35836426D01*
X193057975Y-35541029D01*
X192536492Y-35437300D01*
X191463508Y-35437300D01*
X190942025Y-35541029D01*
X190499934Y-35836426D01*
X190204537Y-36278517D01*
X190100808Y-36800000D01*
X185899192Y-36800000D01*
X185795463Y-36278517D01*
X185500066Y-35836426D01*
X185057975Y-35541029D01*
X184536492Y-35437300D01*
X183463508Y-35437300D01*
X182942025Y-35541029D01*
X182499934Y-35836426D01*
X182204537Y-36278517D01*
X182100808Y-36800000D01*
X177899192Y-36800000D01*
X177795463Y-36278517D01*
X177500066Y-35836426D01*
X177057975Y-35541029D01*
X176536492Y-35437300D01*
X175463508Y-35437300D01*
X174942025Y-35541029D01*
X174499934Y-35836426D01*
X174204537Y-36278517D01*
X174100808Y-36800000D01*
X173443407Y-36800000D01*
X173439375Y-36790244D01*
X173210959Y-36561428D01*
X172912365Y-36437441D01*
X172589053Y-36437159D01*
X172588712Y-36437300D01*
X170500709Y-36437300D01*
X170339053Y-36437159D01*
X170040244Y-36560625D01*
X169882834Y-36717760D01*
X169795463Y-36278517D01*
X169500066Y-35836426D01*
X169057975Y-35541029D01*
X168536492Y-35437300D01*
X167463508Y-35437300D01*
X166942025Y-35541029D01*
X166499934Y-35836426D01*
X166204537Y-36278517D01*
X166100808Y-36800000D01*
X161899192Y-36800000D01*
X161795463Y-36278517D01*
X161500066Y-35836426D01*
X161057975Y-35541029D01*
X160536492Y-35437300D01*
X159463508Y-35437300D01*
X158942025Y-35541029D01*
X158499934Y-35836426D01*
X158204537Y-36278517D01*
X158100808Y-36800000D01*
X153899192Y-36800000D01*
X153795463Y-36278517D01*
X153500066Y-35836426D01*
X153057975Y-35541029D01*
X152536492Y-35437300D01*
X151463508Y-35437300D01*
X150942025Y-35541029D01*
X150499934Y-35836426D01*
X150204537Y-36278517D01*
X150100808Y-36800000D01*
X149112700Y-36800000D01*
X149112700Y-35160947D01*
X169687159Y-35160947D01*
X169810625Y-35459756D01*
X170039041Y-35688572D01*
X170337635Y-35812559D01*
X170660947Y-35812841D01*
X170661288Y-35812700D01*
X172749291Y-35812700D01*
X172910947Y-35812841D01*
X173209756Y-35689375D01*
X173438572Y-35460959D01*
X173562559Y-35162365D01*
X173562841Y-34839053D01*
X173439375Y-34540244D01*
X173210959Y-34311428D01*
X172912365Y-34187441D01*
X172589053Y-34187159D01*
X172588712Y-34187300D01*
X170500709Y-34187300D01*
X170339053Y-34187159D01*
X170040244Y-34310625D01*
X169811428Y-34539041D01*
X169687441Y-34837635D01*
X169687159Y-35160947D01*
X149112700Y-35160947D01*
X149112700Y-34036632D01*
X149738384Y-33410947D01*
X169687159Y-33410947D01*
X169810625Y-33709756D01*
X170039041Y-33938572D01*
X170337635Y-34062559D01*
X170660947Y-34062841D01*
X170661288Y-34062700D01*
X174749291Y-34062700D01*
X174910947Y-34062841D01*
X175209756Y-33939375D01*
X175438572Y-33710959D01*
X175562559Y-33412365D01*
X175562841Y-33089053D01*
X175439375Y-32790244D01*
X175210959Y-32561428D01*
X174912365Y-32437441D01*
X174589053Y-32437159D01*
X174588712Y-32437300D01*
X170500709Y-32437300D01*
X170339053Y-32437159D01*
X170040244Y-32560625D01*
X169811428Y-32789041D01*
X169687441Y-33087635D01*
X169687159Y-33410947D01*
X149738384Y-33410947D01*
X150726587Y-32422744D01*
X151900000Y-32422744D01*
X152089995Y-32386994D01*
X152264494Y-32274707D01*
X152381559Y-32103377D01*
X152422744Y-31900000D01*
X152422744Y-31880397D01*
X152738725Y-32196930D01*
X153257764Y-32412454D01*
X153819770Y-32412944D01*
X154339185Y-32198327D01*
X154736930Y-31801275D01*
X154952454Y-31282236D01*
X154952944Y-30720230D01*
X154738327Y-30200815D01*
X154341275Y-29803070D01*
X153822236Y-29587546D01*
X153260230Y-29587056D01*
X152740815Y-29801673D01*
X152422744Y-30119190D01*
X152422744Y-30100000D01*
X152386994Y-29910005D01*
X152274707Y-29735506D01*
X152103377Y-29618441D01*
X151900000Y-29577256D01*
X150100000Y-29577256D01*
X149910005Y-29613006D01*
X149735506Y-29725293D01*
X149618441Y-29896623D01*
X149577256Y-30100000D01*
X149577256Y-31273413D01*
X147725334Y-33125334D01*
X147587700Y-33331318D01*
X147587700Y-27299524D01*
X147604482Y-27274408D01*
X147622000Y-27262700D01*
X161396216Y-27262700D01*
X161044815Y-27407896D01*
M02*
