G04 #@! TF.FileFunction,Legend,Bot*
%FSLAX46Y46*%
G04 Gerber Fmt 4.6, Leading zero omitted, Abs format (unit mm)*
G04 Created by KiCad (PCBNEW 4.0.7) date Sunday, 25 '25e' March '25e' 2018, 13:05:41*
%MOMM*%
%LPD*%
G01*
G04 APERTURE LIST*
%ADD10C,0.100000*%
%ADD11C,0.200000*%
%ADD12C,0.010000*%
G04 APERTURE END LIST*
D10*
D11*
X195751190Y-72734524D02*
X195751190Y-73422619D01*
X195710714Y-73503571D01*
X195670238Y-73544048D01*
X195589285Y-73584524D01*
X195427381Y-73584524D01*
X195346428Y-73544048D01*
X195305952Y-73503571D01*
X195265476Y-73422619D01*
X195265476Y-72734524D01*
X194860714Y-73584524D02*
X194860714Y-72734524D01*
X194375000Y-73584524D01*
X194375000Y-72734524D01*
X193970238Y-73584524D02*
X193970238Y-72734524D01*
X193767857Y-72734524D01*
X193646429Y-72775000D01*
X193565476Y-72855952D01*
X193525000Y-72936905D01*
X193484524Y-73098810D01*
X193484524Y-73220238D01*
X193525000Y-73382143D01*
X193565476Y-73463095D01*
X193646429Y-73544048D01*
X193767857Y-73584524D01*
X193970238Y-73584524D01*
X193120238Y-73139286D02*
X192836905Y-73139286D01*
X192715476Y-73584524D02*
X193120238Y-73584524D01*
X193120238Y-72734524D01*
X192715476Y-72734524D01*
X191865476Y-73584524D02*
X192148809Y-73179762D01*
X192351190Y-73584524D02*
X192351190Y-72734524D01*
X192027381Y-72734524D01*
X191946428Y-72775000D01*
X191905952Y-72815476D01*
X191865476Y-72896429D01*
X191865476Y-73017857D01*
X191905952Y-73098810D01*
X191946428Y-73139286D01*
X192027381Y-73179762D01*
X192351190Y-73179762D01*
X190367857Y-73503571D02*
X190408333Y-73544048D01*
X190529762Y-73584524D01*
X190610714Y-73584524D01*
X190732142Y-73544048D01*
X190813095Y-73463095D01*
X190853571Y-73382143D01*
X190894047Y-73220238D01*
X190894047Y-73098810D01*
X190853571Y-72936905D01*
X190813095Y-72855952D01*
X190732142Y-72775000D01*
X190610714Y-72734524D01*
X190529762Y-72734524D01*
X190408333Y-72775000D01*
X190367857Y-72815476D01*
X189517857Y-73503571D02*
X189558333Y-73544048D01*
X189679762Y-73584524D01*
X189760714Y-73584524D01*
X189882142Y-73544048D01*
X189963095Y-73463095D01*
X190003571Y-73382143D01*
X190044047Y-73220238D01*
X190044047Y-73098810D01*
X190003571Y-72936905D01*
X189963095Y-72855952D01*
X189882142Y-72775000D01*
X189760714Y-72734524D01*
X189679762Y-72734524D01*
X189558333Y-72775000D01*
X189517857Y-72815476D01*
X188222619Y-73139286D02*
X188101190Y-73179762D01*
X188060714Y-73220238D01*
X188020238Y-73301190D01*
X188020238Y-73422619D01*
X188060714Y-73503571D01*
X188101190Y-73544048D01*
X188182143Y-73584524D01*
X188505952Y-73584524D01*
X188505952Y-72734524D01*
X188222619Y-72734524D01*
X188141666Y-72775000D01*
X188101190Y-72815476D01*
X188060714Y-72896429D01*
X188060714Y-72977381D01*
X188101190Y-73058333D01*
X188141666Y-73098810D01*
X188222619Y-73139286D01*
X188505952Y-73139286D01*
X187494047Y-73179762D02*
X187494047Y-73584524D01*
X187777381Y-72734524D02*
X187494047Y-73179762D01*
X187210714Y-72734524D01*
X186927381Y-73260714D02*
X186279762Y-73260714D01*
X185875000Y-73584524D02*
X185875000Y-72734524D01*
X185389286Y-73584524D01*
X185389286Y-72734524D01*
X184498810Y-73503571D02*
X184539286Y-73544048D01*
X184660715Y-73584524D01*
X184741667Y-73584524D01*
X184863095Y-73544048D01*
X184944048Y-73463095D01*
X184984524Y-73382143D01*
X185025000Y-73220238D01*
X185025000Y-73098810D01*
X184984524Y-72936905D01*
X184944048Y-72855952D01*
X184863095Y-72775000D01*
X184741667Y-72734524D01*
X184660715Y-72734524D01*
X184539286Y-72775000D01*
X184498810Y-72815476D01*
X184134524Y-73260714D02*
X183486905Y-73260714D01*
X183122619Y-73544048D02*
X183001191Y-73584524D01*
X182798810Y-73584524D01*
X182717857Y-73544048D01*
X182677381Y-73503571D01*
X182636905Y-73422619D01*
X182636905Y-73341667D01*
X182677381Y-73260714D01*
X182717857Y-73220238D01*
X182798810Y-73179762D01*
X182960714Y-73139286D01*
X183041667Y-73098810D01*
X183082143Y-73058333D01*
X183122619Y-72977381D01*
X183122619Y-72896429D01*
X183082143Y-72815476D01*
X183041667Y-72775000D01*
X182960714Y-72734524D01*
X182758334Y-72734524D01*
X182636905Y-72775000D01*
X182313095Y-73341667D02*
X181908333Y-73341667D01*
X182394048Y-73584524D02*
X182110714Y-72734524D01*
X181827381Y-73584524D01*
X180532143Y-73017857D02*
X180532143Y-73584524D01*
X180734524Y-72694048D02*
X180936905Y-73301190D01*
X180410715Y-73301190D01*
X180086905Y-73503571D02*
X180046429Y-73544048D01*
X180086905Y-73584524D01*
X180127381Y-73544048D01*
X180086905Y-73503571D01*
X180086905Y-73584524D01*
X179520238Y-72734524D02*
X179439286Y-72734524D01*
X179358334Y-72775000D01*
X179317857Y-72815476D01*
X179277381Y-72896429D01*
X179236905Y-73058333D01*
X179236905Y-73260714D01*
X179277381Y-73422619D01*
X179317857Y-73503571D01*
X179358334Y-73544048D01*
X179439286Y-73584524D01*
X179520238Y-73584524D01*
X179601191Y-73544048D01*
X179641667Y-73503571D01*
X179682143Y-73422619D01*
X179722619Y-73260714D01*
X179722619Y-73058333D01*
X179682143Y-72896429D01*
X179641667Y-72815476D01*
X179601191Y-72775000D01*
X179520238Y-72734524D01*
X177820238Y-73584524D02*
X178225000Y-73584524D01*
X178225000Y-72734524D01*
X177536905Y-73584524D02*
X177536905Y-72734524D01*
X176646429Y-73503571D02*
X176686905Y-73544048D01*
X176808334Y-73584524D01*
X176889286Y-73584524D01*
X177010714Y-73544048D01*
X177091667Y-73463095D01*
X177132143Y-73382143D01*
X177172619Y-73220238D01*
X177172619Y-73098810D01*
X177132143Y-72936905D01*
X177091667Y-72855952D01*
X177010714Y-72775000D01*
X176889286Y-72734524D01*
X176808334Y-72734524D01*
X176686905Y-72775000D01*
X176646429Y-72815476D01*
X176282143Y-73139286D02*
X175998810Y-73139286D01*
X175877381Y-73584524D02*
X176282143Y-73584524D01*
X176282143Y-72734524D01*
X175877381Y-72734524D01*
X175513095Y-73584524D02*
X175513095Y-72734524D01*
X175027381Y-73584524D01*
X175027381Y-72734524D01*
X174663095Y-73544048D02*
X174541667Y-73584524D01*
X174339286Y-73584524D01*
X174258333Y-73544048D01*
X174217857Y-73503571D01*
X174177381Y-73422619D01*
X174177381Y-73341667D01*
X174217857Y-73260714D01*
X174258333Y-73220238D01*
X174339286Y-73179762D01*
X174501190Y-73139286D01*
X174582143Y-73098810D01*
X174622619Y-73058333D01*
X174663095Y-72977381D01*
X174663095Y-72896429D01*
X174622619Y-72815476D01*
X174582143Y-72775000D01*
X174501190Y-72734524D01*
X174298810Y-72734524D01*
X174177381Y-72775000D01*
X173813095Y-73139286D02*
X173529762Y-73139286D01*
X173408333Y-73584524D02*
X173813095Y-73584524D01*
X173813095Y-72734524D01*
X173408333Y-72734524D01*
X195792856Y-75807143D02*
X195792856Y-74907143D01*
X195278571Y-75807143D01*
X195278571Y-74907143D01*
X194892856Y-75550000D02*
X194464285Y-75550000D01*
X194978571Y-75807143D02*
X194678571Y-74907143D01*
X194378571Y-75807143D01*
X194078570Y-75807143D02*
X194078570Y-74907143D01*
X193564285Y-75807143D01*
X193564285Y-74907143D01*
X192964285Y-74907143D02*
X192792856Y-74907143D01*
X192707142Y-74950000D01*
X192621428Y-75035714D01*
X192578570Y-75207143D01*
X192578570Y-75507143D01*
X192621428Y-75678571D01*
X192707142Y-75764286D01*
X192792856Y-75807143D01*
X192964285Y-75807143D01*
X193049999Y-75764286D01*
X193135713Y-75678571D01*
X193178570Y-75507143D01*
X193178570Y-75207143D01*
X193135713Y-75035714D01*
X193049999Y-74950000D01*
X192964285Y-74907143D01*
X191507142Y-75807143D02*
X191507142Y-74907143D01*
X191207142Y-75550000D01*
X190907142Y-74907143D01*
X190907142Y-75807143D01*
X190307143Y-74907143D02*
X190135714Y-74907143D01*
X190050000Y-74950000D01*
X189964286Y-75035714D01*
X189921428Y-75207143D01*
X189921428Y-75507143D01*
X189964286Y-75678571D01*
X190050000Y-75764286D01*
X190135714Y-75807143D01*
X190307143Y-75807143D01*
X190392857Y-75764286D01*
X190478571Y-75678571D01*
X190521428Y-75507143D01*
X190521428Y-75207143D01*
X190478571Y-75035714D01*
X190392857Y-74950000D01*
X190307143Y-74907143D01*
X189535714Y-75807143D02*
X189535714Y-74907143D01*
X189321429Y-74907143D01*
X189192857Y-74950000D01*
X189107143Y-75035714D01*
X189064286Y-75121429D01*
X189021429Y-75292857D01*
X189021429Y-75421429D01*
X189064286Y-75592857D01*
X189107143Y-75678571D01*
X189192857Y-75764286D01*
X189321429Y-75807143D01*
X189535714Y-75807143D01*
X188635714Y-74907143D02*
X188635714Y-75635714D01*
X188592857Y-75721429D01*
X188550000Y-75764286D01*
X188464286Y-75807143D01*
X188292857Y-75807143D01*
X188207143Y-75764286D01*
X188164286Y-75721429D01*
X188121429Y-75635714D01*
X188121429Y-74907143D01*
X187264286Y-75807143D02*
X187692857Y-75807143D01*
X187692857Y-74907143D01*
X186964286Y-75335714D02*
X186664286Y-75335714D01*
X186535715Y-75807143D02*
X186964286Y-75807143D01*
X186964286Y-74907143D01*
X186535715Y-74907143D01*
X186192857Y-75764286D02*
X186064286Y-75807143D01*
X185850000Y-75807143D01*
X185764286Y-75764286D01*
X185721429Y-75721429D01*
X185678572Y-75635714D01*
X185678572Y-75550000D01*
X185721429Y-75464286D01*
X185764286Y-75421429D01*
X185850000Y-75378571D01*
X186021429Y-75335714D01*
X186107143Y-75292857D01*
X186150000Y-75250000D01*
X186192857Y-75164286D01*
X186192857Y-75078571D01*
X186150000Y-74992857D01*
X186107143Y-74950000D01*
X186021429Y-74907143D01*
X185807143Y-74907143D01*
X185678572Y-74950000D01*
X184607143Y-75464286D02*
X183921429Y-75464286D01*
X182850000Y-74992857D02*
X182807143Y-74950000D01*
X182721429Y-74907143D01*
X182507143Y-74907143D01*
X182421429Y-74950000D01*
X182378572Y-74992857D01*
X182335715Y-75078571D01*
X182335715Y-75164286D01*
X182378572Y-75292857D01*
X182892858Y-75807143D01*
X182335715Y-75807143D01*
X181778572Y-74907143D02*
X181692857Y-74907143D01*
X181607143Y-74950000D01*
X181564286Y-74992857D01*
X181521429Y-75078571D01*
X181478572Y-75250000D01*
X181478572Y-75464286D01*
X181521429Y-75635714D01*
X181564286Y-75721429D01*
X181607143Y-75764286D01*
X181692857Y-75807143D01*
X181778572Y-75807143D01*
X181864286Y-75764286D01*
X181907143Y-75721429D01*
X181950000Y-75635714D01*
X181992857Y-75464286D01*
X181992857Y-75250000D01*
X181950000Y-75078571D01*
X181907143Y-74992857D01*
X181864286Y-74950000D01*
X181778572Y-74907143D01*
X180621429Y-75807143D02*
X181135714Y-75807143D01*
X180878572Y-75807143D02*
X180878572Y-74907143D01*
X180964286Y-75035714D01*
X181050000Y-75121429D01*
X181135714Y-75164286D01*
X180107143Y-75292857D02*
X180192857Y-75250000D01*
X180235714Y-75207143D01*
X180278571Y-75121429D01*
X180278571Y-75078571D01*
X180235714Y-74992857D01*
X180192857Y-74950000D01*
X180107143Y-74907143D01*
X179935714Y-74907143D01*
X179850000Y-74950000D01*
X179807143Y-74992857D01*
X179764286Y-75078571D01*
X179764286Y-75121429D01*
X179807143Y-75207143D01*
X179850000Y-75250000D01*
X179935714Y-75292857D01*
X180107143Y-75292857D01*
X180192857Y-75335714D01*
X180235714Y-75378571D01*
X180278571Y-75464286D01*
X180278571Y-75635714D01*
X180235714Y-75721429D01*
X180192857Y-75764286D01*
X180107143Y-75807143D01*
X179935714Y-75807143D01*
X179850000Y-75764286D01*
X179807143Y-75721429D01*
X179764286Y-75635714D01*
X179764286Y-75464286D01*
X179807143Y-75378571D01*
X179850000Y-75335714D01*
X179935714Y-75292857D01*
X195704762Y-71452381D02*
X195704762Y-70452381D01*
X195466667Y-70452381D01*
X195323809Y-70500000D01*
X195228571Y-70595238D01*
X195180952Y-70690476D01*
X195133333Y-70880952D01*
X195133333Y-71023810D01*
X195180952Y-71214286D01*
X195228571Y-71309524D01*
X195323809Y-71404762D01*
X195466667Y-71452381D01*
X195704762Y-71452381D01*
X194704762Y-70928571D02*
X194371428Y-70928571D01*
X194228571Y-71452381D02*
X194704762Y-71452381D01*
X194704762Y-70452381D01*
X194228571Y-70452381D01*
X193847619Y-71404762D02*
X193704762Y-71452381D01*
X193466666Y-71452381D01*
X193371428Y-71404762D01*
X193323809Y-71357143D01*
X193276190Y-71261905D01*
X193276190Y-71166667D01*
X193323809Y-71071429D01*
X193371428Y-71023810D01*
X193466666Y-70976190D01*
X193657143Y-70928571D01*
X193752381Y-70880952D01*
X193800000Y-70833333D01*
X193847619Y-70738095D01*
X193847619Y-70642857D01*
X193800000Y-70547619D01*
X193752381Y-70500000D01*
X193657143Y-70452381D01*
X193419047Y-70452381D01*
X193276190Y-70500000D01*
X192847619Y-71452381D02*
X192847619Y-70452381D01*
X191847619Y-70500000D02*
X191942857Y-70452381D01*
X192085714Y-70452381D01*
X192228572Y-70500000D01*
X192323810Y-70595238D01*
X192371429Y-70690476D01*
X192419048Y-70880952D01*
X192419048Y-71023810D01*
X192371429Y-71214286D01*
X192323810Y-71309524D01*
X192228572Y-71404762D01*
X192085714Y-71452381D01*
X191990476Y-71452381D01*
X191847619Y-71404762D01*
X191800000Y-71357143D01*
X191800000Y-71023810D01*
X191990476Y-71023810D01*
X191371429Y-71452381D02*
X191371429Y-70452381D01*
X190800000Y-71452381D01*
X190800000Y-70452381D01*
X189228571Y-70928571D02*
X189085714Y-70976190D01*
X189038095Y-71023810D01*
X188990476Y-71119048D01*
X188990476Y-71261905D01*
X189038095Y-71357143D01*
X189085714Y-71404762D01*
X189180952Y-71452381D01*
X189561905Y-71452381D01*
X189561905Y-70452381D01*
X189228571Y-70452381D01*
X189133333Y-70500000D01*
X189085714Y-70547619D01*
X189038095Y-70642857D01*
X189038095Y-70738095D01*
X189085714Y-70833333D01*
X189133333Y-70880952D01*
X189228571Y-70928571D01*
X189561905Y-70928571D01*
X188371429Y-70976190D02*
X188371429Y-71452381D01*
X188704762Y-70452381D02*
X188371429Y-70976190D01*
X188038095Y-70452381D01*
X186657142Y-70452381D02*
X186657142Y-71166667D01*
X186704762Y-71309524D01*
X186800000Y-71404762D01*
X186942857Y-71452381D01*
X187038095Y-71452381D01*
X185990476Y-70452381D02*
X185799999Y-70452381D01*
X185704761Y-70500000D01*
X185609523Y-70595238D01*
X185561904Y-70785714D01*
X185561904Y-71119048D01*
X185609523Y-71309524D01*
X185704761Y-71404762D01*
X185799999Y-71452381D01*
X185990476Y-71452381D01*
X186085714Y-71404762D01*
X186180952Y-71309524D01*
X186228571Y-71119048D01*
X186228571Y-70785714D01*
X186180952Y-70595238D01*
X186085714Y-70500000D01*
X185990476Y-70452381D01*
X184561904Y-71452381D02*
X184895238Y-70976190D01*
X185133333Y-71452381D02*
X185133333Y-70452381D01*
X184752380Y-70452381D01*
X184657142Y-70500000D01*
X184609523Y-70547619D01*
X184561904Y-70642857D01*
X184561904Y-70785714D01*
X184609523Y-70880952D01*
X184657142Y-70928571D01*
X184752380Y-70976190D01*
X185133333Y-70976190D01*
X183609523Y-70500000D02*
X183704761Y-70452381D01*
X183847618Y-70452381D01*
X183990476Y-70500000D01*
X184085714Y-70595238D01*
X184133333Y-70690476D01*
X184180952Y-70880952D01*
X184180952Y-71023810D01*
X184133333Y-71214286D01*
X184085714Y-71309524D01*
X183990476Y-71404762D01*
X183847618Y-71452381D01*
X183752380Y-71452381D01*
X183609523Y-71404762D01*
X183561904Y-71357143D01*
X183561904Y-71023810D01*
X183752380Y-71023810D01*
X183133333Y-70928571D02*
X182799999Y-70928571D01*
X182657142Y-71452381D02*
X183133333Y-71452381D01*
X183133333Y-70452381D01*
X182657142Y-70452381D01*
X180942856Y-70500000D02*
X181038094Y-70452381D01*
X181180951Y-70452381D01*
X181323809Y-70500000D01*
X181419047Y-70595238D01*
X181466666Y-70690476D01*
X181514285Y-70880952D01*
X181514285Y-71023810D01*
X181466666Y-71214286D01*
X181419047Y-71309524D01*
X181323809Y-71404762D01*
X181180951Y-71452381D01*
X181085713Y-71452381D01*
X180942856Y-71404762D01*
X180895237Y-71357143D01*
X180895237Y-71023810D01*
X181085713Y-71023810D01*
X180466666Y-70452381D02*
X180466666Y-71261905D01*
X180419047Y-71357143D01*
X180371428Y-71404762D01*
X180276190Y-71452381D01*
X180085713Y-71452381D01*
X179990475Y-71404762D01*
X179942856Y-71357143D01*
X179895237Y-71261905D01*
X179895237Y-70452381D01*
X179561904Y-70452381D02*
X178990475Y-70452381D01*
X179276190Y-71452381D02*
X179276190Y-70452381D01*
X178657142Y-71452381D02*
X178657142Y-70452381D01*
X178180952Y-70928571D02*
X177847618Y-70928571D01*
X177704761Y-71452381D02*
X178180952Y-71452381D01*
X178180952Y-70452381D01*
X177704761Y-70452381D01*
X177847618Y-70071429D02*
X177990476Y-70214286D01*
X176704761Y-71452381D02*
X177038095Y-70976190D01*
X177276190Y-71452381D02*
X177276190Y-70452381D01*
X176895237Y-70452381D01*
X176799999Y-70500000D01*
X176752380Y-70547619D01*
X176704761Y-70642857D01*
X176704761Y-70785714D01*
X176752380Y-70880952D01*
X176799999Y-70928571D01*
X176895237Y-70976190D01*
X177276190Y-70976190D01*
X175704761Y-71452381D02*
X176038095Y-70976190D01*
X176276190Y-71452381D02*
X176276190Y-70452381D01*
X175895237Y-70452381D01*
X175799999Y-70500000D01*
X175752380Y-70547619D01*
X175704761Y-70642857D01*
X175704761Y-70785714D01*
X175752380Y-70880952D01*
X175799999Y-70928571D01*
X175895237Y-70976190D01*
X176276190Y-70976190D01*
X175276190Y-70928571D02*
X174942856Y-70928571D01*
X174799999Y-71452381D02*
X175276190Y-71452381D01*
X175276190Y-70452381D01*
X174799999Y-70452381D01*
X174466666Y-70452381D02*
X173799999Y-70452381D01*
X174466666Y-71452381D01*
X173799999Y-71452381D01*
D12*
G36*
X208715771Y-70107740D02*
X208219510Y-70191754D01*
X207865161Y-70335595D01*
X207816360Y-70373549D01*
X207645099Y-70505466D01*
X207486356Y-70518183D01*
X207245135Y-70405076D01*
X207105768Y-70324000D01*
X206795110Y-70171806D01*
X206467307Y-70098573D01*
X206027050Y-70088383D01*
X205765565Y-70100199D01*
X205155068Y-70167167D01*
X204762809Y-70290604D01*
X204641360Y-70373549D01*
X204470099Y-70505466D01*
X204311356Y-70518183D01*
X204070135Y-70405076D01*
X203930768Y-70324000D01*
X203620110Y-70171806D01*
X203292307Y-70098573D01*
X202852050Y-70088383D01*
X202590565Y-70100199D01*
X201980068Y-70167167D01*
X201587809Y-70290604D01*
X201466360Y-70373549D01*
X201295099Y-70505466D01*
X201136356Y-70518183D01*
X200895135Y-70405076D01*
X200755768Y-70324000D01*
X200450824Y-70173757D01*
X200130378Y-70100155D01*
X199701413Y-70087956D01*
X199396197Y-70101293D01*
X198499921Y-70151937D01*
X196338829Y-72352235D01*
X196381665Y-73830391D01*
X196402595Y-74464969D01*
X196429547Y-74897876D01*
X196474212Y-75181379D01*
X196548283Y-75367743D01*
X196663451Y-75509236D01*
X196780832Y-75614773D01*
X196983227Y-75765480D01*
X197205322Y-75857040D01*
X197515449Y-75903746D01*
X197981943Y-75919893D01*
X198244824Y-75921000D01*
X198893725Y-75902823D01*
X199334674Y-75844146D01*
X199611394Y-75738750D01*
X199634742Y-75723298D01*
X199838597Y-75596592D01*
X199909846Y-75626415D01*
X199917000Y-75723298D01*
X199939236Y-75774079D01*
X200021288Y-75815468D01*
X200186169Y-75848402D01*
X200456897Y-75873817D01*
X200856484Y-75892647D01*
X201407948Y-75905829D01*
X202134303Y-75914299D01*
X203058563Y-75918992D01*
X204203745Y-75920844D01*
X204779525Y-75921000D01*
X209642049Y-75921000D01*
X210240525Y-75313387D01*
X210767861Y-74778000D01*
X210251522Y-74778000D01*
X209886500Y-75159000D01*
X209553672Y-75431518D01*
X209186943Y-75533406D01*
X209013479Y-75540000D01*
X208505479Y-75540000D01*
X208870500Y-75159000D01*
X209201212Y-74888214D01*
X208530304Y-74888214D01*
X208423803Y-75081262D01*
X208276863Y-75246064D01*
X207998397Y-75452393D01*
X207620992Y-75534130D01*
X207427602Y-75540000D01*
X206854479Y-75540000D01*
X207219500Y-75159000D01*
X207561020Y-74882504D01*
X207936379Y-74782395D01*
X208068761Y-74778000D01*
X207076522Y-74778000D01*
X206711500Y-75159000D01*
X206378672Y-75431518D01*
X206011943Y-75533406D01*
X205838479Y-75540000D01*
X205330479Y-75540000D01*
X205695500Y-75159000D01*
X206028329Y-74886481D01*
X206395058Y-74784593D01*
X206568522Y-74778000D01*
X205425522Y-74778000D01*
X205060500Y-75159000D01*
X204734888Y-75428159D01*
X204379207Y-75529360D01*
X204179490Y-75536277D01*
X203663500Y-75532554D01*
X204078254Y-75155277D01*
X204489128Y-74870504D01*
X204921903Y-74778427D01*
X204959265Y-74778000D01*
X203901522Y-74778000D01*
X203536500Y-75159000D01*
X203203672Y-75431518D01*
X202836943Y-75533406D01*
X202663479Y-75540000D01*
X202155479Y-75540000D01*
X202520500Y-75159000D01*
X202853329Y-74886481D01*
X202993307Y-74847591D01*
X202203000Y-74847591D01*
X202117043Y-74968845D01*
X201905110Y-75178618D01*
X201853750Y-75224578D01*
X201589616Y-75386859D01*
X201261329Y-75501688D01*
X200948692Y-75553555D01*
X200731505Y-75526946D01*
X200679000Y-75452935D01*
X200757580Y-75308611D01*
X200947418Y-75080187D01*
X200955138Y-75071935D01*
X201306281Y-74837536D01*
X201717138Y-74778000D01*
X202027121Y-74794107D01*
X202193824Y-74834136D01*
X202203000Y-74847591D01*
X202993307Y-74847591D01*
X203220058Y-74784593D01*
X203393522Y-74778000D01*
X203901522Y-74778000D01*
X204959265Y-74778000D01*
X205425522Y-74778000D01*
X206568522Y-74778000D01*
X207076522Y-74778000D01*
X208068761Y-74778000D01*
X208417419Y-74799411D01*
X208530304Y-74888214D01*
X209201212Y-74888214D01*
X209203329Y-74886481D01*
X209570058Y-74784593D01*
X209743522Y-74778000D01*
X210251522Y-74778000D01*
X210767861Y-74778000D01*
X210839001Y-74705775D01*
X210839001Y-74460500D01*
X200996500Y-74460500D01*
X200688613Y-74809750D01*
X200440402Y-75075139D01*
X200319880Y-75157539D01*
X200298000Y-75117637D01*
X200383195Y-75015535D01*
X200593493Y-74816271D01*
X200628099Y-74785445D01*
X200107500Y-74785445D01*
X199678890Y-75175103D01*
X199456552Y-75365653D01*
X199258606Y-75478195D01*
X199012626Y-75529570D01*
X198646189Y-75536618D01*
X198192932Y-75520630D01*
X197610414Y-75476563D01*
X197186687Y-75403731D01*
X196970542Y-75311399D01*
X196886227Y-75117768D01*
X196832794Y-74723684D01*
X196807958Y-74107699D01*
X196805500Y-73762703D01*
X196805500Y-72379107D01*
X197694500Y-71460007D01*
X197758000Y-72812586D01*
X197790025Y-73417792D01*
X197827648Y-73824980D01*
X197885001Y-74089989D01*
X197976214Y-74268656D01*
X198115418Y-74416820D01*
X198177832Y-74471582D01*
X198439651Y-74652847D01*
X198745131Y-74747270D01*
X199187627Y-74780180D01*
X199320832Y-74781722D01*
X200107500Y-74785445D01*
X200628099Y-74785445D01*
X200647250Y-74768387D01*
X200996500Y-74460500D01*
X210839001Y-74460500D01*
X210839001Y-72828538D01*
X210837298Y-72691571D01*
X210458000Y-72691571D01*
X210458000Y-74397000D01*
X209323319Y-74397000D01*
X209287410Y-72978598D01*
X209258661Y-72279294D01*
X209212364Y-71814137D01*
X209145952Y-71563718D01*
X209092750Y-71507514D01*
X209021319Y-71545971D01*
X208973418Y-71737615D01*
X208945638Y-72112899D01*
X208934571Y-72702277D01*
X208934000Y-72925916D01*
X208934000Y-74397000D01*
X207644321Y-74397000D01*
X207685791Y-72691571D01*
X207283000Y-72691571D01*
X207283000Y-74397000D01*
X206719547Y-74397000D01*
X206369643Y-74384530D01*
X206198989Y-74313894D01*
X206132972Y-74135249D01*
X206116297Y-73994030D01*
X206036937Y-73661121D01*
X205917734Y-73534719D01*
X205808499Y-73622089D01*
X205759040Y-73930497D01*
X205759000Y-73941916D01*
X205759000Y-74397000D01*
X204469321Y-74397000D01*
X204510791Y-72691571D01*
X204108000Y-72691571D01*
X204108000Y-74397000D01*
X202973319Y-74397000D01*
X202937410Y-72978598D01*
X202908661Y-72279294D01*
X202862364Y-71814137D01*
X202795952Y-71563718D01*
X202742750Y-71507514D01*
X202671319Y-71545971D01*
X202623418Y-71737615D01*
X202595638Y-72112899D01*
X202584571Y-72702277D01*
X202584000Y-72925916D01*
X202584000Y-74397000D01*
X201314000Y-74397000D01*
X201314000Y-72760069D01*
X201317204Y-72494016D01*
X200933000Y-72494016D01*
X200929961Y-73138181D01*
X200915495Y-73576834D01*
X200881579Y-73858442D01*
X200820193Y-74031469D01*
X200723313Y-74144383D01*
X200650742Y-74199298D01*
X200382227Y-74298461D01*
X199959913Y-74366591D01*
X199473666Y-74399347D01*
X199013350Y-74392386D01*
X198668831Y-74341365D01*
X198570763Y-74299805D01*
X198372722Y-74087009D01*
X198240260Y-73736278D01*
X198165161Y-73211218D01*
X198139209Y-72475435D01*
X198139000Y-72387418D01*
X198154408Y-71668983D01*
X198218534Y-71163873D01*
X198358234Y-70832355D01*
X198600363Y-70634696D01*
X198971776Y-70531165D01*
X199423781Y-70486562D01*
X199903411Y-70471276D01*
X200220640Y-70511337D01*
X200464182Y-70623904D01*
X200583750Y-70710930D01*
X200731662Y-70835961D01*
X200830512Y-70967439D01*
X200890186Y-71155832D01*
X200920568Y-71451610D01*
X200931544Y-71905242D01*
X200933000Y-72494016D01*
X201317204Y-72494016D01*
X201323543Y-71967865D01*
X201364263Y-71392343D01*
X201454296Y-70996518D01*
X201611780Y-70743407D01*
X201854851Y-70596025D01*
X202201646Y-70517390D01*
X202426437Y-70491636D01*
X203107793Y-70475274D01*
X203600326Y-70582555D01*
X203908620Y-70786762D01*
X203992678Y-70917565D01*
X204050297Y-71140190D01*
X204085821Y-71496135D01*
X204103593Y-72026897D01*
X204108000Y-72691571D01*
X204510791Y-72691571D01*
X204510911Y-72686671D01*
X204534026Y-71961891D01*
X204566012Y-71448876D01*
X204612453Y-71105413D01*
X204678933Y-70889290D01*
X204765268Y-70763940D01*
X205032371Y-70622144D01*
X205457284Y-70518259D01*
X205944996Y-70465758D01*
X206400496Y-70478114D01*
X206568733Y-70508194D01*
X206839229Y-70594695D01*
X207031601Y-70723390D01*
X207158987Y-70934445D01*
X207234528Y-71268027D01*
X207271364Y-71764303D01*
X207282636Y-72463440D01*
X207283000Y-72691571D01*
X207685791Y-72691571D01*
X207685911Y-72686671D01*
X207709026Y-71961891D01*
X207741012Y-71448876D01*
X207787453Y-71105413D01*
X207853933Y-70889290D01*
X207940268Y-70763940D01*
X208207371Y-70622144D01*
X208632284Y-70518259D01*
X209119996Y-70465758D01*
X209575496Y-70478114D01*
X209743733Y-70508194D01*
X210014229Y-70594695D01*
X210206601Y-70723390D01*
X210333987Y-70934445D01*
X210409528Y-71268027D01*
X210446364Y-71764303D01*
X210457636Y-72463440D01*
X210458000Y-72691571D01*
X210837298Y-72691571D01*
X210830373Y-72134720D01*
X210806576Y-71524351D01*
X210770736Y-71048162D01*
X210725979Y-70756884D01*
X210708236Y-70706965D01*
X210507008Y-70480689D01*
X210198422Y-70266783D01*
X210180937Y-70257573D01*
X209783993Y-70136357D01*
X209266435Y-70087843D01*
X208715771Y-70107740D01*
X208715771Y-70107740D01*
G37*
X208715771Y-70107740D02*
X208219510Y-70191754D01*
X207865161Y-70335595D01*
X207816360Y-70373549D01*
X207645099Y-70505466D01*
X207486356Y-70518183D01*
X207245135Y-70405076D01*
X207105768Y-70324000D01*
X206795110Y-70171806D01*
X206467307Y-70098573D01*
X206027050Y-70088383D01*
X205765565Y-70100199D01*
X205155068Y-70167167D01*
X204762809Y-70290604D01*
X204641360Y-70373549D01*
X204470099Y-70505466D01*
X204311356Y-70518183D01*
X204070135Y-70405076D01*
X203930768Y-70324000D01*
X203620110Y-70171806D01*
X203292307Y-70098573D01*
X202852050Y-70088383D01*
X202590565Y-70100199D01*
X201980068Y-70167167D01*
X201587809Y-70290604D01*
X201466360Y-70373549D01*
X201295099Y-70505466D01*
X201136356Y-70518183D01*
X200895135Y-70405076D01*
X200755768Y-70324000D01*
X200450824Y-70173757D01*
X200130378Y-70100155D01*
X199701413Y-70087956D01*
X199396197Y-70101293D01*
X198499921Y-70151937D01*
X196338829Y-72352235D01*
X196381665Y-73830391D01*
X196402595Y-74464969D01*
X196429547Y-74897876D01*
X196474212Y-75181379D01*
X196548283Y-75367743D01*
X196663451Y-75509236D01*
X196780832Y-75614773D01*
X196983227Y-75765480D01*
X197205322Y-75857040D01*
X197515449Y-75903746D01*
X197981943Y-75919893D01*
X198244824Y-75921000D01*
X198893725Y-75902823D01*
X199334674Y-75844146D01*
X199611394Y-75738750D01*
X199634742Y-75723298D01*
X199838597Y-75596592D01*
X199909846Y-75626415D01*
X199917000Y-75723298D01*
X199939236Y-75774079D01*
X200021288Y-75815468D01*
X200186169Y-75848402D01*
X200456897Y-75873817D01*
X200856484Y-75892647D01*
X201407948Y-75905829D01*
X202134303Y-75914299D01*
X203058563Y-75918992D01*
X204203745Y-75920844D01*
X204779525Y-75921000D01*
X209642049Y-75921000D01*
X210240525Y-75313387D01*
X210767861Y-74778000D01*
X210251522Y-74778000D01*
X209886500Y-75159000D01*
X209553672Y-75431518D01*
X209186943Y-75533406D01*
X209013479Y-75540000D01*
X208505479Y-75540000D01*
X208870500Y-75159000D01*
X209201212Y-74888214D01*
X208530304Y-74888214D01*
X208423803Y-75081262D01*
X208276863Y-75246064D01*
X207998397Y-75452393D01*
X207620992Y-75534130D01*
X207427602Y-75540000D01*
X206854479Y-75540000D01*
X207219500Y-75159000D01*
X207561020Y-74882504D01*
X207936379Y-74782395D01*
X208068761Y-74778000D01*
X207076522Y-74778000D01*
X206711500Y-75159000D01*
X206378672Y-75431518D01*
X206011943Y-75533406D01*
X205838479Y-75540000D01*
X205330479Y-75540000D01*
X205695500Y-75159000D01*
X206028329Y-74886481D01*
X206395058Y-74784593D01*
X206568522Y-74778000D01*
X205425522Y-74778000D01*
X205060500Y-75159000D01*
X204734888Y-75428159D01*
X204379207Y-75529360D01*
X204179490Y-75536277D01*
X203663500Y-75532554D01*
X204078254Y-75155277D01*
X204489128Y-74870504D01*
X204921903Y-74778427D01*
X204959265Y-74778000D01*
X203901522Y-74778000D01*
X203536500Y-75159000D01*
X203203672Y-75431518D01*
X202836943Y-75533406D01*
X202663479Y-75540000D01*
X202155479Y-75540000D01*
X202520500Y-75159000D01*
X202853329Y-74886481D01*
X202993307Y-74847591D01*
X202203000Y-74847591D01*
X202117043Y-74968845D01*
X201905110Y-75178618D01*
X201853750Y-75224578D01*
X201589616Y-75386859D01*
X201261329Y-75501688D01*
X200948692Y-75553555D01*
X200731505Y-75526946D01*
X200679000Y-75452935D01*
X200757580Y-75308611D01*
X200947418Y-75080187D01*
X200955138Y-75071935D01*
X201306281Y-74837536D01*
X201717138Y-74778000D01*
X202027121Y-74794107D01*
X202193824Y-74834136D01*
X202203000Y-74847591D01*
X202993307Y-74847591D01*
X203220058Y-74784593D01*
X203393522Y-74778000D01*
X203901522Y-74778000D01*
X204959265Y-74778000D01*
X205425522Y-74778000D01*
X206568522Y-74778000D01*
X207076522Y-74778000D01*
X208068761Y-74778000D01*
X208417419Y-74799411D01*
X208530304Y-74888214D01*
X209201212Y-74888214D01*
X209203329Y-74886481D01*
X209570058Y-74784593D01*
X209743522Y-74778000D01*
X210251522Y-74778000D01*
X210767861Y-74778000D01*
X210839001Y-74705775D01*
X210839001Y-74460500D01*
X200996500Y-74460500D01*
X200688613Y-74809750D01*
X200440402Y-75075139D01*
X200319880Y-75157539D01*
X200298000Y-75117637D01*
X200383195Y-75015535D01*
X200593493Y-74816271D01*
X200628099Y-74785445D01*
X200107500Y-74785445D01*
X199678890Y-75175103D01*
X199456552Y-75365653D01*
X199258606Y-75478195D01*
X199012626Y-75529570D01*
X198646189Y-75536618D01*
X198192932Y-75520630D01*
X197610414Y-75476563D01*
X197186687Y-75403731D01*
X196970542Y-75311399D01*
X196886227Y-75117768D01*
X196832794Y-74723684D01*
X196807958Y-74107699D01*
X196805500Y-73762703D01*
X196805500Y-72379107D01*
X197694500Y-71460007D01*
X197758000Y-72812586D01*
X197790025Y-73417792D01*
X197827648Y-73824980D01*
X197885001Y-74089989D01*
X197976214Y-74268656D01*
X198115418Y-74416820D01*
X198177832Y-74471582D01*
X198439651Y-74652847D01*
X198745131Y-74747270D01*
X199187627Y-74780180D01*
X199320832Y-74781722D01*
X200107500Y-74785445D01*
X200628099Y-74785445D01*
X200647250Y-74768387D01*
X200996500Y-74460500D01*
X210839001Y-74460500D01*
X210839001Y-72828538D01*
X210837298Y-72691571D01*
X210458000Y-72691571D01*
X210458000Y-74397000D01*
X209323319Y-74397000D01*
X209287410Y-72978598D01*
X209258661Y-72279294D01*
X209212364Y-71814137D01*
X209145952Y-71563718D01*
X209092750Y-71507514D01*
X209021319Y-71545971D01*
X208973418Y-71737615D01*
X208945638Y-72112899D01*
X208934571Y-72702277D01*
X208934000Y-72925916D01*
X208934000Y-74397000D01*
X207644321Y-74397000D01*
X207685791Y-72691571D01*
X207283000Y-72691571D01*
X207283000Y-74397000D01*
X206719547Y-74397000D01*
X206369643Y-74384530D01*
X206198989Y-74313894D01*
X206132972Y-74135249D01*
X206116297Y-73994030D01*
X206036937Y-73661121D01*
X205917734Y-73534719D01*
X205808499Y-73622089D01*
X205759040Y-73930497D01*
X205759000Y-73941916D01*
X205759000Y-74397000D01*
X204469321Y-74397000D01*
X204510791Y-72691571D01*
X204108000Y-72691571D01*
X204108000Y-74397000D01*
X202973319Y-74397000D01*
X202937410Y-72978598D01*
X202908661Y-72279294D01*
X202862364Y-71814137D01*
X202795952Y-71563718D01*
X202742750Y-71507514D01*
X202671319Y-71545971D01*
X202623418Y-71737615D01*
X202595638Y-72112899D01*
X202584571Y-72702277D01*
X202584000Y-72925916D01*
X202584000Y-74397000D01*
X201314000Y-74397000D01*
X201314000Y-72760069D01*
X201317204Y-72494016D01*
X200933000Y-72494016D01*
X200929961Y-73138181D01*
X200915495Y-73576834D01*
X200881579Y-73858442D01*
X200820193Y-74031469D01*
X200723313Y-74144383D01*
X200650742Y-74199298D01*
X200382227Y-74298461D01*
X199959913Y-74366591D01*
X199473666Y-74399347D01*
X199013350Y-74392386D01*
X198668831Y-74341365D01*
X198570763Y-74299805D01*
X198372722Y-74087009D01*
X198240260Y-73736278D01*
X198165161Y-73211218D01*
X198139209Y-72475435D01*
X198139000Y-72387418D01*
X198154408Y-71668983D01*
X198218534Y-71163873D01*
X198358234Y-70832355D01*
X198600363Y-70634696D01*
X198971776Y-70531165D01*
X199423781Y-70486562D01*
X199903411Y-70471276D01*
X200220640Y-70511337D01*
X200464182Y-70623904D01*
X200583750Y-70710930D01*
X200731662Y-70835961D01*
X200830512Y-70967439D01*
X200890186Y-71155832D01*
X200920568Y-71451610D01*
X200931544Y-71905242D01*
X200933000Y-72494016D01*
X201317204Y-72494016D01*
X201323543Y-71967865D01*
X201364263Y-71392343D01*
X201454296Y-70996518D01*
X201611780Y-70743407D01*
X201854851Y-70596025D01*
X202201646Y-70517390D01*
X202426437Y-70491636D01*
X203107793Y-70475274D01*
X203600326Y-70582555D01*
X203908620Y-70786762D01*
X203992678Y-70917565D01*
X204050297Y-71140190D01*
X204085821Y-71496135D01*
X204103593Y-72026897D01*
X204108000Y-72691571D01*
X204510791Y-72691571D01*
X204510911Y-72686671D01*
X204534026Y-71961891D01*
X204566012Y-71448876D01*
X204612453Y-71105413D01*
X204678933Y-70889290D01*
X204765268Y-70763940D01*
X205032371Y-70622144D01*
X205457284Y-70518259D01*
X205944996Y-70465758D01*
X206400496Y-70478114D01*
X206568733Y-70508194D01*
X206839229Y-70594695D01*
X207031601Y-70723390D01*
X207158987Y-70934445D01*
X207234528Y-71268027D01*
X207271364Y-71764303D01*
X207282636Y-72463440D01*
X207283000Y-72691571D01*
X207685791Y-72691571D01*
X207685911Y-72686671D01*
X207709026Y-71961891D01*
X207741012Y-71448876D01*
X207787453Y-71105413D01*
X207853933Y-70889290D01*
X207940268Y-70763940D01*
X208207371Y-70622144D01*
X208632284Y-70518259D01*
X209119996Y-70465758D01*
X209575496Y-70478114D01*
X209743733Y-70508194D01*
X210014229Y-70594695D01*
X210206601Y-70723390D01*
X210333987Y-70934445D01*
X210409528Y-71268027D01*
X210446364Y-71764303D01*
X210457636Y-72463440D01*
X210458000Y-72691571D01*
X210837298Y-72691571D01*
X210830373Y-72134720D01*
X210806576Y-71524351D01*
X210770736Y-71048162D01*
X210725979Y-70756884D01*
X210708236Y-70706965D01*
X210507008Y-70480689D01*
X210198422Y-70266783D01*
X210180937Y-70257573D01*
X209783993Y-70136357D01*
X209266435Y-70087843D01*
X208715771Y-70107740D01*
G36*
X205816757Y-71559456D02*
X205767116Y-71819472D01*
X205759000Y-72100416D01*
X205790575Y-72492942D01*
X205871566Y-72716568D01*
X205981369Y-72742168D01*
X206089435Y-72567589D01*
X206134393Y-72280034D01*
X206108070Y-71937016D01*
X206027470Y-71643583D01*
X205917750Y-71506947D01*
X205816757Y-71559456D01*
X205816757Y-71559456D01*
G37*
X205816757Y-71559456D02*
X205767116Y-71819472D01*
X205759000Y-72100416D01*
X205790575Y-72492942D01*
X205871566Y-72716568D01*
X205981369Y-72742168D01*
X206089435Y-72567589D01*
X206134393Y-72280034D01*
X206108070Y-71937016D01*
X206027470Y-71643583D01*
X205917750Y-71506947D01*
X205816757Y-71559456D01*
G36*
X199501757Y-71523854D02*
X199443097Y-71697483D01*
X199415065Y-72041987D01*
X199409000Y-72492000D01*
X199422845Y-73051391D01*
X199469188Y-73380715D01*
X199555243Y-73502645D01*
X199688223Y-73439851D01*
X199705334Y-73423333D01*
X199746585Y-73263277D01*
X199776718Y-72919876D01*
X199789847Y-72463734D01*
X199790000Y-72407333D01*
X199779641Y-71911324D01*
X199742261Y-71622505D01*
X199668410Y-71494673D01*
X199599500Y-71476000D01*
X199501757Y-71523854D01*
X199501757Y-71523854D01*
G37*
X199501757Y-71523854D02*
X199443097Y-71697483D01*
X199415065Y-72041987D01*
X199409000Y-72492000D01*
X199422845Y-73051391D01*
X199469188Y-73380715D01*
X199555243Y-73502645D01*
X199688223Y-73439851D01*
X199705334Y-73423333D01*
X199746585Y-73263277D01*
X199776718Y-72919876D01*
X199789847Y-72463734D01*
X199790000Y-72407333D01*
X199779641Y-71911324D01*
X199742261Y-71622505D01*
X199668410Y-71494673D01*
X199599500Y-71476000D01*
X199501757Y-71523854D01*
M02*
