M48
;DRILL file {KiCad 4.0.7} date Sunday, 25 '25e' March '25e' 2018, 12:10:02
;FORMAT={-:-/ absolute / inch / decimal}
FMAT,2
INCH,TZ
T1C0.059
T2C0.079
T3C0.126
%
G90
G05
M72
T1
X5.9843Y-1.4488
X5.9843Y-1.7717
X6.2992Y-1.4488
X6.2992Y-1.7717
X6.6142Y-1.4488
X6.6142Y-1.7717
X6.9291Y-1.4488
X6.9291Y-1.7717
X7.2441Y-1.4488
X7.2441Y-1.7717
X7.5591Y-1.4488
X7.5591Y-1.7717
X7.874Y-1.4488
X7.874Y-1.7717
X8.189Y-1.4488
X8.189Y-1.7717
X8.3465Y-2.3543
X8.3465Y-2.6772
T2
X6.3819Y-2.4409
X6.7283Y-2.4409
X7.5236Y-2.4409
X7.8701Y-2.4409
T3
X6.3374Y-3.0496
X6.3874Y-1.1496
X8.3874Y-1.7496
X8.3874Y-2.8496
T0
M30
