G04 #@! TF.FileFunction,Copper,L1,Top,Signal*
%FSLAX46Y46*%
G04 Gerber Fmt 4.6, Leading zero omitted, Abs format (unit mm)*
G04 Created by KiCad (PCBNEW 4.0.7) date Sunday, 25 '25e' March '25e' 2018, 12:09:58*
%MOMM*%
%LPD*%
G01*
G04 APERTURE LIST*
%ADD10C,0.100000*%
%ADD11R,1.600000X1.600000*%
%ADD12C,1.600000*%
%ADD13R,1.800000X1.800000*%
%ADD14C,1.800000*%
%ADD15R,3.000000X2.500000*%
%ADD16R,2.500000X3.000000*%
%ADD17R,1.700000X1.700000*%
%ADD18O,1.700000X1.700000*%
%ADD19R,1.998980X1.998980*%
%ADD20C,4.000000*%
%ADD21O,1.727200X1.727200*%
%ADD22O,2.700000X1.700000*%
%ADD23O,1.700000X1.000000*%
%ADD24C,0.600000*%
%ADD25C,0.600000*%
%ADD26C,1.000000*%
%ADD27C,0.025400*%
G04 APERTURE END LIST*
D10*
D11*
X151000000Y-51000000D03*
D12*
X153500000Y-51000000D03*
X183500000Y-51000000D03*
X178500000Y-51000000D03*
D13*
X151000000Y-31000000D03*
D14*
X153540000Y-31000000D03*
D15*
X156725000Y-77350000D03*
X156725000Y-67850000D03*
X149225000Y-75350000D03*
D16*
X152225000Y-64100000D03*
D17*
X149000000Y-56000000D03*
D18*
X149000000Y-58540000D03*
D10*
G36*
X162336940Y-52198880D02*
X162336940Y-49801120D01*
X165837060Y-50199900D01*
X165837060Y-51800100D01*
X162336940Y-52198880D01*
X162336940Y-52198880D01*
G37*
G36*
X170663060Y-49801120D02*
X170663060Y-52198880D01*
X167162940Y-51800100D01*
X167162940Y-50199900D01*
X170663060Y-49801120D01*
X170663060Y-49801120D01*
G37*
D19*
X161498740Y-51000000D03*
X171501260Y-51000000D03*
D10*
G36*
X199663060Y-49801120D02*
X199663060Y-52198880D01*
X196162940Y-51800100D01*
X196162940Y-50199900D01*
X199663060Y-49801120D01*
X199663060Y-49801120D01*
G37*
G36*
X191336940Y-52198880D02*
X191336940Y-49801120D01*
X194837060Y-50199900D01*
X194837060Y-51800100D01*
X191336940Y-52198880D01*
X191336940Y-52198880D01*
G37*
D19*
X200501260Y-51000000D03*
X190498740Y-51000000D03*
D14*
X193000000Y-69000000D03*
X195500000Y-69000000D03*
X198000000Y-69000000D03*
D20*
X191100000Y-62000000D03*
X199900000Y-62000000D03*
D14*
X164000000Y-69000000D03*
X166500000Y-69000000D03*
X169000000Y-69000000D03*
D20*
X162100000Y-62000000D03*
X170900000Y-62000000D03*
D21*
X210627000Y-54600000D03*
X213167000Y-54600000D03*
X213167000Y-52060000D03*
X210627000Y-52060000D03*
X213167000Y-49520000D03*
X197800000Y-77460000D03*
X192720000Y-77460000D03*
X190180000Y-77460000D03*
X187640000Y-77460000D03*
X185100000Y-77460000D03*
X182560000Y-77460000D03*
X180020000Y-77460000D03*
X177480000Y-77460000D03*
X210500000Y-29200000D03*
X207960000Y-29200000D03*
X205420000Y-29200000D03*
X202880000Y-29200000D03*
X200340000Y-29200000D03*
X197800000Y-29200000D03*
X195260000Y-29200000D03*
X192720000Y-29200000D03*
X173416000Y-29200000D03*
X188656000Y-29200000D03*
X186116000Y-29200000D03*
X183576000Y-29200000D03*
X165796000Y-29200000D03*
X168336000Y-29200000D03*
X170876000Y-29200000D03*
X175956000Y-29200000D03*
X178496000Y-29200000D03*
X181036000Y-29200000D03*
X174940000Y-77460000D03*
X200340000Y-77460000D03*
X202880000Y-77460000D03*
X205420000Y-77460000D03*
X207960000Y-77460000D03*
X210500000Y-77460000D03*
X210627000Y-49520000D03*
D22*
X208000000Y-36800000D03*
D23*
X208000000Y-38900000D03*
X208000000Y-40900000D03*
X208000000Y-42900000D03*
D22*
X208000000Y-45000000D03*
X200000000Y-36800000D03*
D23*
X200000000Y-38900000D03*
X200000000Y-40900000D03*
X200000000Y-42900000D03*
D22*
X200000000Y-45000000D03*
X192000000Y-36800000D03*
D23*
X192000000Y-38900000D03*
X192000000Y-40900000D03*
X192000000Y-42900000D03*
D22*
X192000000Y-45000000D03*
X184000000Y-36800000D03*
D23*
X184000000Y-38900000D03*
X184000000Y-40900000D03*
X184000000Y-42900000D03*
D22*
X184000000Y-45000000D03*
X176000000Y-36800000D03*
D23*
X176000000Y-38900000D03*
X176000000Y-40900000D03*
X176000000Y-42900000D03*
D22*
X176000000Y-45000000D03*
X168000000Y-36800000D03*
D23*
X168000000Y-38900000D03*
X168000000Y-40900000D03*
X168000000Y-42900000D03*
D22*
X168000000Y-45000000D03*
X160000000Y-36800000D03*
D23*
X160000000Y-38900000D03*
X160000000Y-40900000D03*
X160000000Y-42900000D03*
D22*
X160000000Y-45000000D03*
X152000000Y-36800000D03*
D23*
X152000000Y-38900000D03*
X152000000Y-40900000D03*
X152000000Y-42900000D03*
D22*
X152000000Y-45000000D03*
X212000000Y-59800000D03*
D23*
X212000000Y-61900000D03*
X212000000Y-63900000D03*
X212000000Y-65900000D03*
D22*
X212000000Y-68000000D03*
D24*
X154100000Y-72200000D03*
X152100000Y-70200000D03*
X163900000Y-40900000D03*
X172250000Y-30500000D03*
X172775000Y-40900000D03*
X170225000Y-40875000D03*
X185700000Y-47900000D03*
X198550000Y-73950000D03*
X196200000Y-71700000D03*
X186375000Y-75250000D03*
X183800000Y-75250000D03*
X170500000Y-37250000D03*
X172750000Y-37250000D03*
X172750000Y-35000000D03*
X170500000Y-35000000D03*
X170500000Y-33250000D03*
X174750000Y-33250000D03*
D25*
X156725000Y-67850000D02*
X156725000Y-59950000D01*
X151000000Y-54225000D02*
X151000000Y-51000000D01*
X156725000Y-59950000D02*
X151000000Y-54225000D01*
X149225000Y-75350000D02*
X156725000Y-67850000D01*
X183500000Y-51000000D02*
X182850000Y-51000000D01*
X182850000Y-51000000D02*
X179925000Y-53925000D01*
X179925000Y-53925000D02*
X167012000Y-53925000D01*
X167012000Y-53925000D02*
X164087000Y-51000000D01*
X164087000Y-51000000D02*
X161498740Y-51000000D01*
X153500000Y-51000000D02*
X161498740Y-51000000D01*
D26*
X200501260Y-51000000D02*
X205825000Y-51000000D01*
X205825000Y-51000000D02*
X207825000Y-49000000D01*
X178500000Y-51000000D02*
X178500000Y-46600000D01*
X180000000Y-45100000D02*
X180000000Y-40900000D01*
X178500000Y-46600000D02*
X180000000Y-45100000D01*
X149000000Y-58540000D02*
X149000000Y-67100000D01*
X156725000Y-74825000D02*
X156725000Y-77350000D01*
X154100000Y-72200000D02*
X156725000Y-74825000D01*
X149000000Y-67100000D02*
X152100000Y-70200000D01*
X160000000Y-40900000D02*
X163900000Y-40900000D01*
X163900000Y-40900000D02*
X168000000Y-40900000D01*
X173416000Y-29200000D02*
X173416000Y-29334000D01*
X173416000Y-29334000D02*
X172250000Y-30500000D01*
X200000000Y-40900000D02*
X208000000Y-40900000D01*
X176000000Y-40900000D02*
X172775000Y-40900000D01*
X170225000Y-40875000D02*
X170200000Y-40900000D01*
X170200000Y-40900000D02*
X163900000Y-40900000D01*
X160000000Y-40900000D02*
X152000000Y-40900000D01*
X192000000Y-40900000D02*
X184000000Y-40900000D01*
X184000000Y-40900000D02*
X180000000Y-40900000D01*
X180000000Y-40900000D02*
X176000000Y-40900000D01*
X210750000Y-63900000D02*
X210725000Y-63900000D01*
X210725000Y-63900000D02*
X207825000Y-61000000D01*
X207825000Y-61000000D02*
X207825000Y-49000000D01*
X209150000Y-40900000D02*
X200000000Y-40900000D01*
X207825000Y-49000000D02*
X210475000Y-46350000D01*
X210475000Y-46350000D02*
X210475000Y-42225000D01*
X210475000Y-42225000D02*
X209150000Y-40900000D01*
X200000000Y-40900000D02*
X192000000Y-40900000D01*
X197913000Y-51000000D02*
X200501260Y-51000000D01*
X164000000Y-69000000D02*
X164000000Y-71125000D01*
X185925000Y-79175000D02*
X187640000Y-77460000D01*
X172050000Y-79175000D02*
X185925000Y-79175000D01*
X164000000Y-71125000D02*
X172050000Y-79175000D01*
X187640000Y-77460000D02*
X190180000Y-77460000D01*
X155750000Y-76750000D02*
X156250000Y-76750000D01*
X156250000Y-76750000D02*
X164000000Y-69000000D01*
X190675000Y-66675000D02*
X207975000Y-66675000D01*
X210750000Y-63900000D02*
X212000000Y-63900000D01*
X207975000Y-66675000D02*
X210750000Y-63900000D01*
X164000000Y-69000000D02*
X164000000Y-68275000D01*
X164000000Y-68275000D02*
X165600000Y-66675000D01*
X165600000Y-66675000D02*
X190675000Y-66675000D01*
X190675000Y-66675000D02*
X193000000Y-69000000D01*
D25*
X190498740Y-51000000D02*
X188800000Y-51000000D01*
X188800000Y-51000000D02*
X185700000Y-47900000D01*
X193087000Y-51000000D02*
X190498740Y-51000000D01*
X149000000Y-56000000D02*
X149000000Y-35600000D01*
X153000000Y-33500000D02*
X154750000Y-31750000D01*
X151100000Y-33500000D02*
X153000000Y-33500000D01*
X149000000Y-35600000D02*
X151100000Y-33500000D01*
X153540000Y-31000000D02*
X154000000Y-31000000D01*
X154000000Y-31000000D02*
X154750000Y-31750000D01*
X154750000Y-31750000D02*
X172750000Y-31750000D01*
X172750000Y-31750000D02*
X173750000Y-30750000D01*
X173750000Y-30750000D02*
X175250000Y-30750000D01*
X175250000Y-30750000D02*
X175956000Y-30044000D01*
X175956000Y-30044000D02*
X175956000Y-29200000D01*
X171501260Y-51000000D02*
X171501260Y-34773740D01*
X181036000Y-30339000D02*
X181036000Y-29200000D01*
X179600000Y-31775000D02*
X181036000Y-30339000D01*
X174500000Y-31775000D02*
X179600000Y-31775000D01*
X171501260Y-34773740D02*
X174500000Y-31775000D01*
X168913000Y-51000000D02*
X171501260Y-51000000D01*
X195500000Y-69000000D02*
X195500000Y-71000000D01*
X206965000Y-73925000D02*
X210500000Y-77460000D01*
X198575000Y-73925000D02*
X206965000Y-73925000D01*
X198550000Y-73950000D02*
X198575000Y-73925000D01*
X195500000Y-71000000D02*
X196200000Y-71700000D01*
D26*
X185100000Y-73950000D02*
X171275000Y-73950000D01*
X169000000Y-71675000D02*
X169000000Y-69000000D01*
X171275000Y-73950000D02*
X169000000Y-71675000D01*
X185100000Y-77460000D02*
X185100000Y-73950000D01*
X185100000Y-73950000D02*
X185100000Y-73925000D01*
X198000000Y-71575000D02*
X198000000Y-69000000D01*
X195650000Y-73925000D02*
X198000000Y-71575000D01*
X191100000Y-73925000D02*
X195650000Y-73925000D01*
X185100000Y-73925000D02*
X191100000Y-73925000D01*
D25*
X166500000Y-69000000D02*
X166500000Y-70950000D01*
X205875000Y-75250000D02*
X207960000Y-77335000D01*
X204350000Y-75250000D02*
X205875000Y-75250000D01*
X198575000Y-75250000D02*
X204350000Y-75250000D01*
X186375000Y-75250000D02*
X198575000Y-75250000D01*
X170800000Y-75250000D02*
X183800000Y-75250000D01*
X166500000Y-70950000D02*
X170800000Y-75250000D01*
X207960000Y-77335000D02*
X207960000Y-77460000D01*
X208000000Y-38900000D02*
X206400000Y-38900000D01*
X205500000Y-38000000D02*
X205500000Y-29280000D01*
X206400000Y-38900000D02*
X205500000Y-38000000D01*
X205500000Y-29280000D02*
X205420000Y-29200000D01*
X200000000Y-38900000D02*
X201600000Y-38900000D01*
X202880000Y-37620000D02*
X202880000Y-29200000D01*
X201600000Y-38900000D02*
X202880000Y-37620000D01*
X200340000Y-29200000D02*
X200340000Y-33660000D01*
X195100000Y-38900000D02*
X192000000Y-38900000D01*
X200340000Y-33660000D02*
X195100000Y-38900000D01*
X197800000Y-29200000D02*
X197800000Y-30700000D01*
X186600000Y-38900000D02*
X184000000Y-38900000D01*
X190500000Y-35000000D02*
X186600000Y-38900000D01*
X193500000Y-35000000D02*
X190500000Y-35000000D01*
X197800000Y-30700000D02*
X193500000Y-35000000D01*
X176000000Y-38900000D02*
X179100000Y-38900000D01*
X195260000Y-30740000D02*
X195260000Y-29200000D01*
X192000000Y-34000000D02*
X195260000Y-30740000D01*
X184000000Y-34000000D02*
X192000000Y-34000000D01*
X179100000Y-38900000D02*
X184000000Y-34000000D01*
X192720000Y-29200000D02*
X192720000Y-31530000D01*
X170500000Y-37250000D02*
X168850000Y-38900000D01*
X174750000Y-35250000D02*
X172750000Y-37250000D01*
X181250000Y-35250000D02*
X174750000Y-35250000D01*
X183500000Y-33000000D02*
X181250000Y-35250000D01*
X191250000Y-33000000D02*
X183500000Y-33000000D01*
X192720000Y-31530000D02*
X191250000Y-33000000D01*
X168850000Y-38900000D02*
X168000000Y-38900000D01*
X160000000Y-38900000D02*
X162850000Y-38900000D01*
X188656000Y-30844000D02*
X188656000Y-29200000D01*
X187500000Y-32000000D02*
X188656000Y-30844000D01*
X183000000Y-32000000D02*
X187500000Y-32000000D01*
X180750000Y-34250000D02*
X183000000Y-32000000D01*
X173500000Y-34250000D02*
X180750000Y-34250000D01*
X172750000Y-35000000D02*
X173500000Y-34250000D01*
X166750000Y-35000000D02*
X170500000Y-35000000D01*
X162850000Y-38900000D02*
X166750000Y-35000000D01*
X170500000Y-33250000D02*
X160750000Y-33250000D01*
X180250000Y-33250000D02*
X174750000Y-33250000D01*
X182500000Y-31000000D02*
X180250000Y-33250000D01*
X185750000Y-31000000D02*
X182500000Y-31000000D01*
X186116000Y-30634000D02*
X185750000Y-31000000D01*
X186116000Y-29200000D02*
X186116000Y-30634000D01*
X155100000Y-38900000D02*
X152000000Y-38900000D01*
X160750000Y-33250000D02*
X155100000Y-38900000D01*
D27*
G36*
X212437300Y-28418433D02*
X212437300Y-39350000D01*
X212482036Y-39574903D01*
X212609433Y-39765567D01*
X214987300Y-42143433D01*
X214987300Y-43620418D01*
X214832104Y-43244815D01*
X214238311Y-42649985D01*
X213462086Y-42327668D01*
X212621602Y-42326934D01*
X211844815Y-42647896D01*
X211249985Y-43241689D01*
X210927668Y-44017914D01*
X210926934Y-44858398D01*
X211247896Y-45635185D01*
X211841689Y-46230015D01*
X212617914Y-46552332D01*
X213458398Y-46553066D01*
X214235185Y-46232104D01*
X214830015Y-45638311D01*
X214987300Y-45259527D01*
X214987300Y-71560418D01*
X214832104Y-71184815D01*
X214238311Y-70589985D01*
X213462086Y-70267668D01*
X212621602Y-70266934D01*
X211844815Y-70587896D01*
X211249985Y-71181689D01*
X210927668Y-71957914D01*
X210926934Y-72798398D01*
X211247896Y-73575185D01*
X211841689Y-74170015D01*
X212617914Y-74492332D01*
X213458398Y-74493066D01*
X214235185Y-74172104D01*
X214830015Y-73578311D01*
X214987300Y-73199527D01*
X214987300Y-75956567D01*
X212634433Y-78309433D01*
X212507036Y-78500097D01*
X212462300Y-78725000D01*
X212462300Y-79412300D01*
X161777481Y-79412300D01*
X162165185Y-79252104D01*
X162760015Y-78658311D01*
X163082332Y-77882086D01*
X163083066Y-77041602D01*
X162762104Y-76264815D01*
X162168311Y-75669985D01*
X161392086Y-75347668D01*
X160551602Y-75346934D01*
X159774815Y-75667896D01*
X159179985Y-76261689D01*
X158857668Y-77037914D01*
X158856934Y-77878398D01*
X159177896Y-78655185D01*
X159771689Y-79250015D01*
X160162514Y-79412300D01*
X147637034Y-79412300D01*
X147587700Y-79362956D01*
X147587700Y-77721475D01*
X154704300Y-77721475D01*
X154704300Y-78703574D01*
X154783572Y-78894953D01*
X154930047Y-79041428D01*
X155121427Y-79120700D01*
X156353525Y-79120700D01*
X156483700Y-78990525D01*
X156483700Y-77591300D01*
X156966300Y-77591300D01*
X156966300Y-78990525D01*
X157096475Y-79120700D01*
X158328573Y-79120700D01*
X158519953Y-79041428D01*
X158666428Y-78894953D01*
X158745700Y-78703574D01*
X158745700Y-77721475D01*
X158615525Y-77591300D01*
X156966300Y-77591300D01*
X156483700Y-77591300D01*
X154834475Y-77591300D01*
X154704300Y-77721475D01*
X147587700Y-77721475D01*
X147587700Y-77094940D01*
X147725000Y-77122744D01*
X150725000Y-77122744D01*
X150914995Y-77086994D01*
X151089494Y-76974707D01*
X151206559Y-76803377D01*
X151247744Y-76600000D01*
X151247744Y-75996426D01*
X154704300Y-75996426D01*
X154704300Y-76978525D01*
X154834475Y-77108700D01*
X156483700Y-77108700D01*
X156483700Y-75709475D01*
X156966300Y-75709475D01*
X156966300Y-77108700D01*
X158615525Y-77108700D01*
X158745700Y-76978525D01*
X158745700Y-75996426D01*
X158666428Y-75805047D01*
X158519953Y-75658572D01*
X158328573Y-75579300D01*
X157096475Y-75579300D01*
X156966300Y-75709475D01*
X156483700Y-75709475D01*
X156353525Y-75579300D01*
X155121427Y-75579300D01*
X154930047Y-75658572D01*
X154783572Y-75805047D01*
X154704300Y-75996426D01*
X151247744Y-75996426D01*
X151247744Y-74476588D01*
X155637234Y-70087097D01*
X163254153Y-70087097D01*
X163355686Y-70297346D01*
X163901204Y-70445160D01*
X164461763Y-70372962D01*
X164644314Y-70297346D01*
X164745847Y-70087097D01*
X164000000Y-69341250D01*
X163254153Y-70087097D01*
X155637234Y-70087097D01*
X156101587Y-69622744D01*
X158225000Y-69622744D01*
X158414995Y-69586994D01*
X158589494Y-69474707D01*
X158706559Y-69303377D01*
X158747744Y-69100000D01*
X158747744Y-68901204D01*
X162554840Y-68901204D01*
X162627038Y-69461763D01*
X162702654Y-69644314D01*
X162912903Y-69745847D01*
X163658750Y-69000000D01*
X164341250Y-69000000D01*
X165087097Y-69745847D01*
X165247607Y-69668334D01*
X165301673Y-69799185D01*
X165687300Y-70185485D01*
X165687300Y-70950000D01*
X165749163Y-71261007D01*
X165925334Y-71524666D01*
X170225332Y-75824663D01*
X170225334Y-75824666D01*
X170488993Y-76000837D01*
X170800000Y-76062700D01*
X183799291Y-76062700D01*
X183960947Y-76062841D01*
X184087300Y-76010633D01*
X184087300Y-76505585D01*
X183830000Y-76890663D01*
X183560154Y-76486809D01*
X183113650Y-76188465D01*
X182586963Y-76083700D01*
X182533037Y-76083700D01*
X182006350Y-76188465D01*
X181559846Y-76486809D01*
X181290000Y-76890663D01*
X181020154Y-76486809D01*
X180573650Y-76188465D01*
X180046963Y-76083700D01*
X179993037Y-76083700D01*
X179466350Y-76188465D01*
X179019846Y-76486809D01*
X178750000Y-76890663D01*
X178480154Y-76486809D01*
X178033650Y-76188465D01*
X177506963Y-76083700D01*
X177453037Y-76083700D01*
X176926350Y-76188465D01*
X176479846Y-76486809D01*
X176210000Y-76890663D01*
X175940154Y-76486809D01*
X175493650Y-76188465D01*
X174966963Y-76083700D01*
X174913037Y-76083700D01*
X174386350Y-76188465D01*
X173939846Y-76486809D01*
X173641502Y-76933313D01*
X173536737Y-77460000D01*
X173641502Y-77986687D01*
X173939846Y-78433191D01*
X174386350Y-78731535D01*
X174913037Y-78836300D01*
X174966963Y-78836300D01*
X175493650Y-78731535D01*
X175940154Y-78433191D01*
X176210000Y-78029337D01*
X176479846Y-78433191D01*
X176926350Y-78731535D01*
X177453037Y-78836300D01*
X177506963Y-78836300D01*
X178033650Y-78731535D01*
X178480154Y-78433191D01*
X178750000Y-78029337D01*
X179019846Y-78433191D01*
X179466350Y-78731535D01*
X179993037Y-78836300D01*
X180046963Y-78836300D01*
X180573650Y-78731535D01*
X181020154Y-78433191D01*
X181290000Y-78029337D01*
X181559846Y-78433191D01*
X182006350Y-78731535D01*
X182533037Y-78836300D01*
X182586963Y-78836300D01*
X183113650Y-78731535D01*
X183560154Y-78433191D01*
X183830000Y-78029337D01*
X184099846Y-78433191D01*
X184546350Y-78731535D01*
X185073037Y-78836300D01*
X185126963Y-78836300D01*
X185653650Y-78731535D01*
X186100154Y-78433191D01*
X186376291Y-78019923D01*
X186395374Y-78066010D01*
X186722026Y-78496178D01*
X187188431Y-78768597D01*
X187398700Y-78692952D01*
X187398700Y-77701300D01*
X187881300Y-77701300D01*
X187881300Y-78692952D01*
X188091569Y-78768597D01*
X188557974Y-78496178D01*
X188884626Y-78066010D01*
X188910000Y-78004731D01*
X188935374Y-78066010D01*
X189262026Y-78496178D01*
X189728431Y-78768597D01*
X189938700Y-78692952D01*
X189938700Y-77701300D01*
X188949308Y-77701300D01*
X188910000Y-77807420D01*
X188870692Y-77701300D01*
X187881300Y-77701300D01*
X187398700Y-77701300D01*
X187378700Y-77701300D01*
X187378700Y-77218700D01*
X187398700Y-77218700D01*
X187398700Y-76227048D01*
X187881300Y-76227048D01*
X187881300Y-77218700D01*
X188870692Y-77218700D01*
X188910000Y-77112580D01*
X188949308Y-77218700D01*
X189938700Y-77218700D01*
X189938700Y-76227048D01*
X190421300Y-76227048D01*
X190421300Y-77218700D01*
X190441300Y-77218700D01*
X190441300Y-77701300D01*
X190421300Y-77701300D01*
X190421300Y-78692952D01*
X190631569Y-78768597D01*
X191097974Y-78496178D01*
X191424626Y-78066010D01*
X191443709Y-78019923D01*
X191719846Y-78433191D01*
X192166350Y-78731535D01*
X192693037Y-78836300D01*
X192746963Y-78836300D01*
X193273650Y-78731535D01*
X193720154Y-78433191D01*
X194018498Y-77986687D01*
X194123263Y-77460000D01*
X194018498Y-76933313D01*
X193720154Y-76486809D01*
X193273650Y-76188465D01*
X192746963Y-76083700D01*
X192693037Y-76083700D01*
X192166350Y-76188465D01*
X191719846Y-76486809D01*
X191443709Y-76900077D01*
X191424626Y-76853990D01*
X191097974Y-76423822D01*
X190631569Y-76151403D01*
X190421300Y-76227048D01*
X189938700Y-76227048D01*
X189728431Y-76151403D01*
X189262026Y-76423822D01*
X188935374Y-76853990D01*
X188910000Y-76915269D01*
X188884626Y-76853990D01*
X188557974Y-76423822D01*
X188091569Y-76151403D01*
X187881300Y-76227048D01*
X187398700Y-76227048D01*
X187188431Y-76151403D01*
X186722026Y-76423822D01*
X186395374Y-76853990D01*
X186376291Y-76900077D01*
X186112700Y-76505585D01*
X186112700Y-76021062D01*
X186212635Y-76062559D01*
X186535947Y-76062841D01*
X186536288Y-76062700D01*
X205538368Y-76062700D01*
X205587279Y-76111611D01*
X205446963Y-76083700D01*
X205393037Y-76083700D01*
X204866350Y-76188465D01*
X204419846Y-76486809D01*
X204150000Y-76890663D01*
X203880154Y-76486809D01*
X203433650Y-76188465D01*
X202906963Y-76083700D01*
X202853037Y-76083700D01*
X202326350Y-76188465D01*
X201879846Y-76486809D01*
X201610000Y-76890663D01*
X201340154Y-76486809D01*
X200893650Y-76188465D01*
X200366963Y-76083700D01*
X200313037Y-76083700D01*
X199786350Y-76188465D01*
X199339846Y-76486809D01*
X199070000Y-76890663D01*
X198800154Y-76486809D01*
X198353650Y-76188465D01*
X197826963Y-76083700D01*
X197773037Y-76083700D01*
X197246350Y-76188465D01*
X196799846Y-76486809D01*
X196501502Y-76933313D01*
X196396737Y-77460000D01*
X196501502Y-77986687D01*
X196799846Y-78433191D01*
X197246350Y-78731535D01*
X197773037Y-78836300D01*
X197826963Y-78836300D01*
X198353650Y-78731535D01*
X198800154Y-78433191D01*
X199070000Y-78029337D01*
X199339846Y-78433191D01*
X199786350Y-78731535D01*
X200313037Y-78836300D01*
X200366963Y-78836300D01*
X200893650Y-78731535D01*
X201340154Y-78433191D01*
X201610000Y-78029337D01*
X201879846Y-78433191D01*
X202326350Y-78731535D01*
X202853037Y-78836300D01*
X202906963Y-78836300D01*
X203433650Y-78731535D01*
X203880154Y-78433191D01*
X204150000Y-78029337D01*
X204419846Y-78433191D01*
X204866350Y-78731535D01*
X205393037Y-78836300D01*
X205446963Y-78836300D01*
X205973650Y-78731535D01*
X206420154Y-78433191D01*
X206690000Y-78029337D01*
X206959846Y-78433191D01*
X207406350Y-78731535D01*
X207933037Y-78836300D01*
X207986963Y-78836300D01*
X208513650Y-78731535D01*
X208960154Y-78433191D01*
X209230000Y-78029337D01*
X209499846Y-78433191D01*
X209946350Y-78731535D01*
X210473037Y-78836300D01*
X210526963Y-78836300D01*
X211053650Y-78731535D01*
X211500154Y-78433191D01*
X211798498Y-77986687D01*
X211903263Y-77460000D01*
X211798498Y-76933313D01*
X211500154Y-76486809D01*
X211053650Y-76188465D01*
X210526963Y-76083700D01*
X210473037Y-76083700D01*
X210306215Y-76116883D01*
X207539666Y-73350334D01*
X207276007Y-73174163D01*
X206965000Y-73112300D01*
X198575000Y-73112300D01*
X198449759Y-73137212D01*
X198389053Y-73137159D01*
X198332454Y-73160545D01*
X198263993Y-73174163D01*
X198206460Y-73212605D01*
X198090244Y-73260625D01*
X198000467Y-73350245D01*
X198000334Y-73350334D01*
X198000332Y-73350337D01*
X197975334Y-73375334D01*
X197861428Y-73489041D01*
X197737441Y-73787635D01*
X197737159Y-74110947D01*
X197860625Y-74409756D01*
X197888121Y-74437300D01*
X196569874Y-74437300D01*
X198716087Y-72291087D01*
X198803840Y-72159756D01*
X198935613Y-71962544D01*
X199012700Y-71575000D01*
X199012700Y-69985184D01*
X199196930Y-69801275D01*
X199412454Y-69282236D01*
X199412944Y-68720230D01*
X199198327Y-68200815D01*
X198997862Y-68000000D01*
X210100808Y-68000000D01*
X210204537Y-68521483D01*
X210499934Y-68963574D01*
X210942025Y-69258971D01*
X211463508Y-69362700D01*
X212536492Y-69362700D01*
X213057975Y-69258971D01*
X213500066Y-68963574D01*
X213795463Y-68521483D01*
X213899192Y-68000000D01*
X213795463Y-67478517D01*
X213500066Y-67036426D01*
X213057975Y-66741029D01*
X212940706Y-66717703D01*
X213092784Y-66616087D01*
X213312310Y-66287544D01*
X213389397Y-65900000D01*
X213312310Y-65512456D01*
X213092784Y-65183913D01*
X212764241Y-64964387D01*
X212503570Y-64912537D01*
X212797298Y-64837963D01*
X213122192Y-64595391D01*
X213291810Y-64293476D01*
X213207210Y-64141300D01*
X212241300Y-64141300D01*
X212241300Y-64161300D01*
X211758700Y-64161300D01*
X211758700Y-64141300D01*
X210792790Y-64141300D01*
X210708190Y-64293476D01*
X210877808Y-64595391D01*
X211202702Y-64837963D01*
X211496430Y-64912537D01*
X211235759Y-64964387D01*
X210907216Y-65183913D01*
X210687690Y-65512456D01*
X210610603Y-65900000D01*
X210687690Y-66287544D01*
X210907216Y-66616087D01*
X211059294Y-66717703D01*
X210942025Y-66741029D01*
X210499934Y-67036426D01*
X210204537Y-67478517D01*
X210100808Y-68000000D01*
X198997862Y-68000000D01*
X198801275Y-67803070D01*
X198282236Y-67587546D01*
X197720230Y-67587056D01*
X197200815Y-67801673D01*
X196803070Y-68198725D01*
X196750136Y-68326204D01*
X196698327Y-68200815D01*
X196301275Y-67803070D01*
X195782236Y-67587546D01*
X195220230Y-67587056D01*
X194700815Y-67801673D01*
X194303070Y-68198725D01*
X194247824Y-68331771D01*
X194087097Y-68254153D01*
X193341250Y-69000000D01*
X194087097Y-69745847D01*
X194247607Y-69668334D01*
X194301673Y-69799185D01*
X194687300Y-70185485D01*
X194687300Y-71000000D01*
X194749163Y-71311007D01*
X194925334Y-71574666D01*
X195624833Y-72274164D01*
X195739041Y-72388572D01*
X195749790Y-72393036D01*
X195230526Y-72912300D01*
X185100000Y-72912300D01*
X184974316Y-72937300D01*
X171694474Y-72937300D01*
X170012700Y-71255526D01*
X170012700Y-70087097D01*
X192254153Y-70087097D01*
X192355686Y-70297346D01*
X192901204Y-70445160D01*
X193461763Y-70372962D01*
X193644314Y-70297346D01*
X193745847Y-70087097D01*
X193000000Y-69341250D01*
X192254153Y-70087097D01*
X170012700Y-70087097D01*
X170012700Y-69985184D01*
X170196930Y-69801275D01*
X170412454Y-69282236D01*
X170412786Y-68901204D01*
X191554840Y-68901204D01*
X191627038Y-69461763D01*
X191702654Y-69644314D01*
X191912903Y-69745847D01*
X192658750Y-69000000D01*
X191912903Y-68254153D01*
X191702654Y-68355686D01*
X191554840Y-68901204D01*
X170412786Y-68901204D01*
X170412944Y-68720230D01*
X170198327Y-68200815D01*
X169910917Y-67912903D01*
X192254153Y-67912903D01*
X193000000Y-68658750D01*
X193745847Y-67912903D01*
X193644314Y-67702654D01*
X193098796Y-67554840D01*
X192538237Y-67627038D01*
X192355686Y-67702654D01*
X192254153Y-67912903D01*
X169910917Y-67912903D01*
X169801275Y-67803070D01*
X169282236Y-67587546D01*
X168720230Y-67587056D01*
X168200815Y-67801673D01*
X167803070Y-68198725D01*
X167750136Y-68326204D01*
X167698327Y-68200815D01*
X167301275Y-67803070D01*
X166782236Y-67587546D01*
X166220230Y-67587056D01*
X165700815Y-67801673D01*
X165303070Y-68198725D01*
X165247824Y-68331771D01*
X165087097Y-68254153D01*
X164341250Y-69000000D01*
X163658750Y-69000000D01*
X162912903Y-68254153D01*
X162702654Y-68355686D01*
X162554840Y-68901204D01*
X158747744Y-68901204D01*
X158747744Y-67912903D01*
X163254153Y-67912903D01*
X164000000Y-68658750D01*
X164745847Y-67912903D01*
X164644314Y-67702654D01*
X164098796Y-67554840D01*
X163538237Y-67627038D01*
X163355686Y-67702654D01*
X163254153Y-67912903D01*
X158747744Y-67912903D01*
X158747744Y-66600000D01*
X158711994Y-66410005D01*
X158599707Y-66235506D01*
X158428377Y-66118441D01*
X158225000Y-66077256D01*
X157537700Y-66077256D01*
X157537700Y-62497614D01*
X159586865Y-62497614D01*
X159968594Y-63421471D01*
X160674811Y-64128922D01*
X161598000Y-64512263D01*
X162597614Y-64513135D01*
X163521471Y-64131406D01*
X164228922Y-63425189D01*
X164612263Y-62502000D01*
X164612266Y-62497614D01*
X168386865Y-62497614D01*
X168768594Y-63421471D01*
X169474811Y-64128922D01*
X170398000Y-64512263D01*
X171397614Y-64513135D01*
X172321471Y-64131406D01*
X173028922Y-63425189D01*
X173412263Y-62502000D01*
X173412266Y-62497614D01*
X188586865Y-62497614D01*
X188968594Y-63421471D01*
X189674811Y-64128922D01*
X190598000Y-64512263D01*
X191597614Y-64513135D01*
X192521471Y-64131406D01*
X193228922Y-63425189D01*
X193612263Y-62502000D01*
X193612266Y-62497614D01*
X197386865Y-62497614D01*
X197768594Y-63421471D01*
X198474811Y-64128922D01*
X199398000Y-64512263D01*
X200397614Y-64513135D01*
X201321471Y-64131406D01*
X202028922Y-63425189D01*
X202412263Y-62502000D01*
X202413135Y-61502386D01*
X202031406Y-60578529D01*
X201325189Y-59871078D01*
X201154014Y-59800000D01*
X210100808Y-59800000D01*
X210204537Y-60321483D01*
X210499934Y-60763574D01*
X210942025Y-61058971D01*
X211059294Y-61082297D01*
X210907216Y-61183913D01*
X210687690Y-61512456D01*
X210610603Y-61900000D01*
X210687690Y-62287544D01*
X210907216Y-62616087D01*
X211235759Y-62835613D01*
X211496430Y-62887463D01*
X211202702Y-62962037D01*
X210877808Y-63204609D01*
X210708190Y-63506524D01*
X210792790Y-63658700D01*
X211758700Y-63658700D01*
X211758700Y-63638700D01*
X212241300Y-63638700D01*
X212241300Y-63658700D01*
X213207210Y-63658700D01*
X213291810Y-63506524D01*
X213122192Y-63204609D01*
X212797298Y-62962037D01*
X212503570Y-62887463D01*
X212764241Y-62835613D01*
X213092784Y-62616087D01*
X213312310Y-62287544D01*
X213389397Y-61900000D01*
X213312310Y-61512456D01*
X213092784Y-61183913D01*
X212940706Y-61082297D01*
X213057975Y-61058971D01*
X213500066Y-60763574D01*
X213795463Y-60321483D01*
X213899192Y-59800000D01*
X213795463Y-59278517D01*
X213500066Y-58836426D01*
X213057975Y-58541029D01*
X212536492Y-58437300D01*
X211463508Y-58437300D01*
X210942025Y-58541029D01*
X210499934Y-58836426D01*
X210204537Y-59278517D01*
X210100808Y-59800000D01*
X201154014Y-59800000D01*
X200402000Y-59487737D01*
X199402386Y-59486865D01*
X198478529Y-59868594D01*
X197771078Y-60574811D01*
X197387737Y-61498000D01*
X197386865Y-62497614D01*
X193612266Y-62497614D01*
X193613135Y-61502386D01*
X193231406Y-60578529D01*
X192525189Y-59871078D01*
X191602000Y-59487737D01*
X190602386Y-59486865D01*
X189678529Y-59868594D01*
X188971078Y-60574811D01*
X188587737Y-61498000D01*
X188586865Y-62497614D01*
X173412266Y-62497614D01*
X173413135Y-61502386D01*
X173031406Y-60578529D01*
X172325189Y-59871078D01*
X171402000Y-59487737D01*
X170402386Y-59486865D01*
X169478529Y-59868594D01*
X168771078Y-60574811D01*
X168387737Y-61498000D01*
X168386865Y-62497614D01*
X164612266Y-62497614D01*
X164613135Y-61502386D01*
X164231406Y-60578529D01*
X163525189Y-59871078D01*
X162602000Y-59487737D01*
X161602386Y-59486865D01*
X160678529Y-59868594D01*
X159971078Y-60574811D01*
X159587737Y-61498000D01*
X159586865Y-62497614D01*
X157537700Y-62497614D01*
X157537700Y-59950005D01*
X157537701Y-59950000D01*
X157475837Y-59638993D01*
X157374188Y-59486865D01*
X157299666Y-59375334D01*
X157299663Y-59375332D01*
X151812700Y-53888368D01*
X151812700Y-52320354D01*
X151989995Y-52286994D01*
X152164494Y-52174707D01*
X152281559Y-52003377D01*
X152322744Y-51800000D01*
X152322744Y-51588316D01*
X152386498Y-51742613D01*
X152755444Y-52112204D01*
X153237742Y-52312471D01*
X153759967Y-52312927D01*
X154242613Y-52113502D01*
X154543941Y-51812700D01*
X159976506Y-51812700D01*
X159976506Y-51999490D01*
X160012256Y-52189485D01*
X160124543Y-52363984D01*
X160295873Y-52481049D01*
X160499250Y-52522234D01*
X161939523Y-52522234D01*
X162005903Y-52603448D01*
X162189384Y-52700366D01*
X162396115Y-52718264D01*
X164424798Y-52487130D01*
X166437332Y-54499663D01*
X166437334Y-54499666D01*
X166681790Y-54663006D01*
X166700993Y-54675837D01*
X167012000Y-54737701D01*
X167012005Y-54737700D01*
X179925000Y-54737700D01*
X180236007Y-54675837D01*
X180499666Y-54499666D01*
X182848491Y-52150840D01*
X183237742Y-52312471D01*
X183759967Y-52312927D01*
X184242613Y-52113502D01*
X184612204Y-51744556D01*
X184812471Y-51262258D01*
X184812927Y-50740033D01*
X184613502Y-50257387D01*
X184244556Y-49887796D01*
X183762258Y-49687529D01*
X183240033Y-49687073D01*
X182757387Y-49886498D01*
X182387796Y-50255444D01*
X182333348Y-50386571D01*
X182275334Y-50425334D01*
X182275332Y-50425337D01*
X179588368Y-53112300D01*
X167348631Y-53112300D01*
X166286628Y-52050297D01*
X166318619Y-52003477D01*
X166359804Y-51800100D01*
X166359804Y-50199900D01*
X166342431Y-50066254D01*
X166250619Y-49880166D01*
X166093642Y-49744459D01*
X165896235Y-49680516D01*
X162396115Y-49281736D01*
X162146945Y-49314126D01*
X161972446Y-49426413D01*
X161937358Y-49477766D01*
X160499250Y-49477766D01*
X160309255Y-49513516D01*
X160134756Y-49625803D01*
X160017691Y-49797133D01*
X159976506Y-50000510D01*
X159976506Y-50187300D01*
X154543537Y-50187300D01*
X154244556Y-49887796D01*
X153762258Y-49687529D01*
X153240033Y-49687073D01*
X152757387Y-49886498D01*
X152387796Y-50255444D01*
X152322744Y-50412107D01*
X152322744Y-50200000D01*
X152286994Y-50010005D01*
X152174707Y-49835506D01*
X152003377Y-49718441D01*
X151800000Y-49677256D01*
X150200000Y-49677256D01*
X150010005Y-49713006D01*
X149835506Y-49825293D01*
X149812700Y-49858671D01*
X149812700Y-45000000D01*
X150100808Y-45000000D01*
X150204537Y-45521483D01*
X150499934Y-45963574D01*
X150942025Y-46258971D01*
X151463508Y-46362700D01*
X152536492Y-46362700D01*
X153057975Y-46258971D01*
X153500066Y-45963574D01*
X153795463Y-45521483D01*
X153899192Y-45000000D01*
X158100808Y-45000000D01*
X158204537Y-45521483D01*
X158499934Y-45963574D01*
X158942025Y-46258971D01*
X159463508Y-46362700D01*
X160536492Y-46362700D01*
X161057975Y-46258971D01*
X161500066Y-45963574D01*
X161795463Y-45521483D01*
X161899192Y-45000000D01*
X166100808Y-45000000D01*
X166204537Y-45521483D01*
X166499934Y-45963574D01*
X166942025Y-46258971D01*
X167463508Y-46362700D01*
X168536492Y-46362700D01*
X169057975Y-46258971D01*
X169500066Y-45963574D01*
X169795463Y-45521483D01*
X169899192Y-45000000D01*
X169795463Y-44478517D01*
X169500066Y-44036426D01*
X169057975Y-43741029D01*
X168940706Y-43717703D01*
X169092784Y-43616087D01*
X169312310Y-43287544D01*
X169389397Y-42900000D01*
X169312310Y-42512456D01*
X169092784Y-42183913D01*
X168764241Y-41964387D01*
X168503570Y-41912537D01*
X168797298Y-41837963D01*
X169122192Y-41595391D01*
X169291810Y-41293476D01*
X169207210Y-41141300D01*
X168241300Y-41141300D01*
X168241300Y-41161300D01*
X167758700Y-41161300D01*
X167758700Y-41141300D01*
X166792790Y-41141300D01*
X166708190Y-41293476D01*
X166877808Y-41595391D01*
X167202702Y-41837963D01*
X167496430Y-41912537D01*
X167235759Y-41964387D01*
X166907216Y-42183913D01*
X166687690Y-42512456D01*
X166610603Y-42900000D01*
X166687690Y-43287544D01*
X166907216Y-43616087D01*
X167059294Y-43717703D01*
X166942025Y-43741029D01*
X166499934Y-44036426D01*
X166204537Y-44478517D01*
X166100808Y-45000000D01*
X161899192Y-45000000D01*
X161795463Y-44478517D01*
X161500066Y-44036426D01*
X161057975Y-43741029D01*
X160940706Y-43717703D01*
X161092784Y-43616087D01*
X161312310Y-43287544D01*
X161389397Y-42900000D01*
X161312310Y-42512456D01*
X161092784Y-42183913D01*
X160764241Y-41964387D01*
X160503570Y-41912537D01*
X160797298Y-41837963D01*
X161122192Y-41595391D01*
X161291810Y-41293476D01*
X161207210Y-41141300D01*
X160241300Y-41141300D01*
X160241300Y-41161300D01*
X159758700Y-41161300D01*
X159758700Y-41141300D01*
X158792790Y-41141300D01*
X158708190Y-41293476D01*
X158877808Y-41595391D01*
X159202702Y-41837963D01*
X159496430Y-41912537D01*
X159235759Y-41964387D01*
X158907216Y-42183913D01*
X158687690Y-42512456D01*
X158610603Y-42900000D01*
X158687690Y-43287544D01*
X158907216Y-43616087D01*
X159059294Y-43717703D01*
X158942025Y-43741029D01*
X158499934Y-44036426D01*
X158204537Y-44478517D01*
X158100808Y-45000000D01*
X153899192Y-45000000D01*
X153795463Y-44478517D01*
X153500066Y-44036426D01*
X153057975Y-43741029D01*
X152940706Y-43717703D01*
X153092784Y-43616087D01*
X153312310Y-43287544D01*
X153389397Y-42900000D01*
X153312310Y-42512456D01*
X153092784Y-42183913D01*
X152764241Y-41964387D01*
X152503570Y-41912537D01*
X152797298Y-41837963D01*
X153122192Y-41595391D01*
X153291810Y-41293476D01*
X153207210Y-41141300D01*
X152241300Y-41141300D01*
X152241300Y-41161300D01*
X151758700Y-41161300D01*
X151758700Y-41141300D01*
X150792790Y-41141300D01*
X150708190Y-41293476D01*
X150877808Y-41595391D01*
X151202702Y-41837963D01*
X151496430Y-41912537D01*
X151235759Y-41964387D01*
X150907216Y-42183913D01*
X150687690Y-42512456D01*
X150610603Y-42900000D01*
X150687690Y-43287544D01*
X150907216Y-43616087D01*
X151059294Y-43717703D01*
X150942025Y-43741029D01*
X150499934Y-44036426D01*
X150204537Y-44478517D01*
X150100808Y-45000000D01*
X149812700Y-45000000D01*
X149812700Y-35936632D01*
X151436631Y-34312700D01*
X153000000Y-34312700D01*
X153311007Y-34250837D01*
X153574666Y-34074666D01*
X155086631Y-32562700D01*
X160343903Y-32562700D01*
X160175334Y-32675334D01*
X160175332Y-32675337D01*
X154763368Y-38087300D01*
X152948193Y-38087300D01*
X152940706Y-38082297D01*
X153057975Y-38058971D01*
X153500066Y-37763574D01*
X153795463Y-37321483D01*
X153899192Y-36800000D01*
X153795463Y-36278517D01*
X153500066Y-35836426D01*
X153057975Y-35541029D01*
X152536492Y-35437300D01*
X151463508Y-35437300D01*
X150942025Y-35541029D01*
X150499934Y-35836426D01*
X150204537Y-36278517D01*
X150100808Y-36800000D01*
X150204537Y-37321483D01*
X150499934Y-37763574D01*
X150942025Y-38058971D01*
X151059294Y-38082297D01*
X150907216Y-38183913D01*
X150687690Y-38512456D01*
X150610603Y-38900000D01*
X150687690Y-39287544D01*
X150907216Y-39616087D01*
X151235759Y-39835613D01*
X151496430Y-39887463D01*
X151202702Y-39962037D01*
X150877808Y-40204609D01*
X150708190Y-40506524D01*
X150792790Y-40658700D01*
X151758700Y-40658700D01*
X151758700Y-40638700D01*
X152241300Y-40638700D01*
X152241300Y-40658700D01*
X153207210Y-40658700D01*
X153291810Y-40506524D01*
X153122192Y-40204609D01*
X152797298Y-39962037D01*
X152503570Y-39887463D01*
X152764241Y-39835613D01*
X152948193Y-39712700D01*
X155100000Y-39712700D01*
X155411007Y-39650837D01*
X155674666Y-39474666D01*
X158142041Y-37007291D01*
X158204537Y-37321483D01*
X158499934Y-37763574D01*
X158942025Y-38058971D01*
X159059294Y-38082297D01*
X158907216Y-38183913D01*
X158687690Y-38512456D01*
X158610603Y-38900000D01*
X158687690Y-39287544D01*
X158907216Y-39616087D01*
X159235759Y-39835613D01*
X159496430Y-39887463D01*
X159202702Y-39962037D01*
X158877808Y-40204609D01*
X158708190Y-40506524D01*
X158792790Y-40658700D01*
X159758700Y-40658700D01*
X159758700Y-40638700D01*
X160241300Y-40638700D01*
X160241300Y-40658700D01*
X161207210Y-40658700D01*
X161291810Y-40506524D01*
X161122192Y-40204609D01*
X160797298Y-39962037D01*
X160503570Y-39887463D01*
X160764241Y-39835613D01*
X160948193Y-39712700D01*
X162850000Y-39712700D01*
X163161007Y-39650837D01*
X163424666Y-39474666D01*
X166101174Y-36798158D01*
X166100808Y-36800000D01*
X166204537Y-37321483D01*
X166499934Y-37763574D01*
X166942025Y-38058971D01*
X167059294Y-38082297D01*
X166907216Y-38183913D01*
X166687690Y-38512456D01*
X166610603Y-38900000D01*
X166687690Y-39287544D01*
X166907216Y-39616087D01*
X167235759Y-39835613D01*
X167496430Y-39887463D01*
X167202702Y-39962037D01*
X166877808Y-40204609D01*
X166708190Y-40506524D01*
X166792790Y-40658700D01*
X167758700Y-40658700D01*
X167758700Y-40638700D01*
X168241300Y-40638700D01*
X168241300Y-40658700D01*
X169207210Y-40658700D01*
X169291810Y-40506524D01*
X169122192Y-40204609D01*
X168797298Y-39962037D01*
X168503570Y-39887463D01*
X168764241Y-39835613D01*
X168989814Y-39684889D01*
X169161007Y-39650837D01*
X169424666Y-39474666D01*
X170688560Y-38210771D01*
X170688560Y-49289067D01*
X170603885Y-49281736D01*
X167103765Y-49680516D01*
X166972945Y-49712906D01*
X166798446Y-49825193D01*
X166681381Y-49996523D01*
X166640196Y-50199900D01*
X166640196Y-51800100D01*
X166657569Y-51933746D01*
X166749381Y-52119834D01*
X166906358Y-52255541D01*
X167103765Y-52319484D01*
X170603885Y-52718264D01*
X170853055Y-52685874D01*
X171027554Y-52573587D01*
X171062642Y-52522234D01*
X172500750Y-52522234D01*
X172690745Y-52486484D01*
X172865244Y-52374197D01*
X172982309Y-52202867D01*
X173020625Y-52013655D01*
X177827594Y-52013655D01*
X177916531Y-52213600D01*
X178425369Y-52344504D01*
X178945570Y-52270720D01*
X179083469Y-52213600D01*
X179172406Y-52013655D01*
X178500000Y-51341250D01*
X177827594Y-52013655D01*
X173020625Y-52013655D01*
X173023494Y-51999490D01*
X173023494Y-50925369D01*
X177155496Y-50925369D01*
X177229280Y-51445570D01*
X177286400Y-51583469D01*
X177486345Y-51672406D01*
X178158750Y-51000000D01*
X178841250Y-51000000D01*
X179513655Y-51672406D01*
X179713600Y-51583469D01*
X179844504Y-51074631D01*
X179770720Y-50554430D01*
X179713600Y-50416531D01*
X179513655Y-50327594D01*
X178841250Y-51000000D01*
X178158750Y-51000000D01*
X177486345Y-50327594D01*
X177286400Y-50416531D01*
X177155496Y-50925369D01*
X173023494Y-50925369D01*
X173023494Y-50000510D01*
X173020829Y-49986345D01*
X177827594Y-49986345D01*
X178500000Y-50658750D01*
X179172406Y-49986345D01*
X179083469Y-49786400D01*
X178574631Y-49655496D01*
X178054430Y-49729280D01*
X177916531Y-49786400D01*
X177827594Y-49986345D01*
X173020829Y-49986345D01*
X172987744Y-49810515D01*
X172875457Y-49636016D01*
X172704127Y-49518951D01*
X172500750Y-49477766D01*
X172313960Y-49477766D01*
X172313960Y-48060947D01*
X184887159Y-48060947D01*
X185010625Y-48359756D01*
X185239041Y-48588572D01*
X185239381Y-48588713D01*
X188225334Y-51574666D01*
X188488993Y-51750837D01*
X188800000Y-51812700D01*
X188976506Y-51812700D01*
X188976506Y-51999490D01*
X189012256Y-52189485D01*
X189124543Y-52363984D01*
X189295873Y-52481049D01*
X189499250Y-52522234D01*
X190939523Y-52522234D01*
X191005903Y-52603448D01*
X191189384Y-52700366D01*
X191396115Y-52718264D01*
X194896235Y-52319484D01*
X195027055Y-52287094D01*
X195201554Y-52174807D01*
X195318619Y-52003477D01*
X195359804Y-51800100D01*
X195359804Y-51241300D01*
X195632039Y-51241300D01*
X195632039Y-51800100D01*
X195649683Y-51935831D01*
X195742927Y-52124823D01*
X195902354Y-52262648D01*
X196102842Y-52327588D01*
X197671700Y-52506333D01*
X197671700Y-51241300D01*
X198154300Y-51241300D01*
X198154300Y-52561317D01*
X199602962Y-52726368D01*
X199856020Y-52693473D01*
X200033242Y-52579434D01*
X200073721Y-52520190D01*
X200129785Y-52520190D01*
X200259960Y-52390015D01*
X200259960Y-51241300D01*
X200742560Y-51241300D01*
X200742560Y-52390015D01*
X200872735Y-52520190D01*
X201604324Y-52520190D01*
X201795703Y-52440918D01*
X201942178Y-52294443D01*
X202021450Y-52103063D01*
X202021450Y-51371475D01*
X201891275Y-51241300D01*
X200742560Y-51241300D01*
X200259960Y-51241300D01*
X198154300Y-51241300D01*
X197671700Y-51241300D01*
X195632039Y-51241300D01*
X195359804Y-51241300D01*
X195359804Y-50199900D01*
X195632039Y-50199900D01*
X195632039Y-50758700D01*
X197671700Y-50758700D01*
X197671700Y-49493667D01*
X196102842Y-49672412D01*
X195969980Y-49705307D01*
X195792758Y-49819346D01*
X195673867Y-49993350D01*
X195632039Y-50199900D01*
X195359804Y-50199900D01*
X195342431Y-50066254D01*
X195250619Y-49880166D01*
X195093642Y-49744459D01*
X194896235Y-49680516D01*
X192773650Y-49438683D01*
X198154300Y-49438683D01*
X198154300Y-50758700D01*
X200259960Y-50758700D01*
X200259960Y-49609985D01*
X200742560Y-49609985D01*
X200742560Y-50758700D01*
X201891275Y-50758700D01*
X202021450Y-50628525D01*
X202021450Y-49896937D01*
X201942178Y-49705557D01*
X201795703Y-49559082D01*
X201701351Y-49520000D01*
X209223737Y-49520000D01*
X209328502Y-50046687D01*
X209626846Y-50493191D01*
X210071053Y-50790000D01*
X209626846Y-51086809D01*
X209328502Y-51533313D01*
X209223737Y-52060000D01*
X209328502Y-52586687D01*
X209626846Y-53033191D01*
X210071053Y-53330000D01*
X209626846Y-53626809D01*
X209328502Y-54073313D01*
X209223737Y-54600000D01*
X209328502Y-55126687D01*
X209626846Y-55573191D01*
X210073350Y-55871535D01*
X210600037Y-55976300D01*
X210653963Y-55976300D01*
X211180650Y-55871535D01*
X211627154Y-55573191D01*
X211897000Y-55169337D01*
X212166846Y-55573191D01*
X212613350Y-55871535D01*
X213140037Y-55976300D01*
X213193963Y-55976300D01*
X213720650Y-55871535D01*
X214167154Y-55573191D01*
X214465498Y-55126687D01*
X214570263Y-54600000D01*
X214465498Y-54073313D01*
X214167154Y-53626809D01*
X213722947Y-53330000D01*
X214167154Y-53033191D01*
X214465498Y-52586687D01*
X214570263Y-52060000D01*
X214465498Y-51533313D01*
X214167154Y-51086809D01*
X213722947Y-50790000D01*
X214167154Y-50493191D01*
X214465498Y-50046687D01*
X214570263Y-49520000D01*
X214465498Y-48993313D01*
X214167154Y-48546809D01*
X213720650Y-48248465D01*
X213193963Y-48143700D01*
X213140037Y-48143700D01*
X212613350Y-48248465D01*
X212166846Y-48546809D01*
X211897000Y-48950663D01*
X211627154Y-48546809D01*
X211180650Y-48248465D01*
X210653963Y-48143700D01*
X210600037Y-48143700D01*
X210073350Y-48248465D01*
X209626846Y-48546809D01*
X209328502Y-48993313D01*
X209223737Y-49520000D01*
X201701351Y-49520000D01*
X201604324Y-49479810D01*
X200872735Y-49479810D01*
X200742560Y-49609985D01*
X200259960Y-49609985D01*
X200129785Y-49479810D01*
X200072473Y-49479810D01*
X199999263Y-49390239D01*
X199812919Y-49291809D01*
X199602962Y-49273632D01*
X198154300Y-49438683D01*
X192773650Y-49438683D01*
X191396115Y-49281736D01*
X191146945Y-49314126D01*
X190972446Y-49426413D01*
X190937358Y-49477766D01*
X189499250Y-49477766D01*
X189309255Y-49513516D01*
X189134756Y-49625803D01*
X189017691Y-49797133D01*
X188976506Y-50000510D01*
X188976506Y-50027174D01*
X186274666Y-47325334D01*
X186160959Y-47211428D01*
X185862365Y-47087441D01*
X185539053Y-47087159D01*
X185240244Y-47210625D01*
X185011428Y-47439041D01*
X184887441Y-47737635D01*
X184887159Y-48060947D01*
X172313960Y-48060947D01*
X172313960Y-45000000D01*
X174100808Y-45000000D01*
X174204537Y-45521483D01*
X174499934Y-45963574D01*
X174942025Y-46258971D01*
X175463508Y-46362700D01*
X176536492Y-46362700D01*
X177057975Y-46258971D01*
X177500066Y-45963574D01*
X177795463Y-45521483D01*
X177899192Y-45000000D01*
X182100808Y-45000000D01*
X182204537Y-45521483D01*
X182499934Y-45963574D01*
X182942025Y-46258971D01*
X183463508Y-46362700D01*
X184536492Y-46362700D01*
X185057975Y-46258971D01*
X185500066Y-45963574D01*
X185795463Y-45521483D01*
X185899192Y-45000000D01*
X190100808Y-45000000D01*
X190204537Y-45521483D01*
X190499934Y-45963574D01*
X190942025Y-46258971D01*
X191463508Y-46362700D01*
X192536492Y-46362700D01*
X193057975Y-46258971D01*
X193500066Y-45963574D01*
X193795463Y-45521483D01*
X193899192Y-45000000D01*
X198100808Y-45000000D01*
X198204537Y-45521483D01*
X198499934Y-45963574D01*
X198942025Y-46258971D01*
X199463508Y-46362700D01*
X200536492Y-46362700D01*
X201057975Y-46258971D01*
X201500066Y-45963574D01*
X201795463Y-45521483D01*
X201899192Y-45000000D01*
X206100808Y-45000000D01*
X206204537Y-45521483D01*
X206499934Y-45963574D01*
X206942025Y-46258971D01*
X207463508Y-46362700D01*
X208536492Y-46362700D01*
X209057975Y-46258971D01*
X209500066Y-45963574D01*
X209795463Y-45521483D01*
X209899192Y-45000000D01*
X209795463Y-44478517D01*
X209500066Y-44036426D01*
X209057975Y-43741029D01*
X208940706Y-43717703D01*
X209092784Y-43616087D01*
X209312310Y-43287544D01*
X209389397Y-42900000D01*
X209312310Y-42512456D01*
X209092784Y-42183913D01*
X208764241Y-41964387D01*
X208503570Y-41912537D01*
X208797298Y-41837963D01*
X209122192Y-41595391D01*
X209291810Y-41293476D01*
X209207210Y-41141300D01*
X208241300Y-41141300D01*
X208241300Y-41161300D01*
X207758700Y-41161300D01*
X207758700Y-41141300D01*
X206792790Y-41141300D01*
X206708190Y-41293476D01*
X206877808Y-41595391D01*
X207202702Y-41837963D01*
X207496430Y-41912537D01*
X207235759Y-41964387D01*
X206907216Y-42183913D01*
X206687690Y-42512456D01*
X206610603Y-42900000D01*
X206687690Y-43287544D01*
X206907216Y-43616087D01*
X207059294Y-43717703D01*
X206942025Y-43741029D01*
X206499934Y-44036426D01*
X206204537Y-44478517D01*
X206100808Y-45000000D01*
X201899192Y-45000000D01*
X201795463Y-44478517D01*
X201500066Y-44036426D01*
X201057975Y-43741029D01*
X200940706Y-43717703D01*
X201092784Y-43616087D01*
X201312310Y-43287544D01*
X201389397Y-42900000D01*
X201312310Y-42512456D01*
X201092784Y-42183913D01*
X200764241Y-41964387D01*
X200503570Y-41912537D01*
X200797298Y-41837963D01*
X201122192Y-41595391D01*
X201291810Y-41293476D01*
X201207210Y-41141300D01*
X200241300Y-41141300D01*
X200241300Y-41161300D01*
X199758700Y-41161300D01*
X199758700Y-41141300D01*
X198792790Y-41141300D01*
X198708190Y-41293476D01*
X198877808Y-41595391D01*
X199202702Y-41837963D01*
X199496430Y-41912537D01*
X199235759Y-41964387D01*
X198907216Y-42183913D01*
X198687690Y-42512456D01*
X198610603Y-42900000D01*
X198687690Y-43287544D01*
X198907216Y-43616087D01*
X199059294Y-43717703D01*
X198942025Y-43741029D01*
X198499934Y-44036426D01*
X198204537Y-44478517D01*
X198100808Y-45000000D01*
X193899192Y-45000000D01*
X193795463Y-44478517D01*
X193500066Y-44036426D01*
X193057975Y-43741029D01*
X192940706Y-43717703D01*
X193092784Y-43616087D01*
X193312310Y-43287544D01*
X193389397Y-42900000D01*
X193312310Y-42512456D01*
X193092784Y-42183913D01*
X192764241Y-41964387D01*
X192503570Y-41912537D01*
X192797298Y-41837963D01*
X193122192Y-41595391D01*
X193291810Y-41293476D01*
X193207210Y-41141300D01*
X192241300Y-41141300D01*
X192241300Y-41161300D01*
X191758700Y-41161300D01*
X191758700Y-41141300D01*
X190792790Y-41141300D01*
X190708190Y-41293476D01*
X190877808Y-41595391D01*
X191202702Y-41837963D01*
X191496430Y-41912537D01*
X191235759Y-41964387D01*
X190907216Y-42183913D01*
X190687690Y-42512456D01*
X190610603Y-42900000D01*
X190687690Y-43287544D01*
X190907216Y-43616087D01*
X191059294Y-43717703D01*
X190942025Y-43741029D01*
X190499934Y-44036426D01*
X190204537Y-44478517D01*
X190100808Y-45000000D01*
X185899192Y-45000000D01*
X185795463Y-44478517D01*
X185500066Y-44036426D01*
X185057975Y-43741029D01*
X184940706Y-43717703D01*
X185092784Y-43616087D01*
X185312310Y-43287544D01*
X185389397Y-42900000D01*
X185312310Y-42512456D01*
X185092784Y-42183913D01*
X184764241Y-41964387D01*
X184503570Y-41912537D01*
X184797298Y-41837963D01*
X185122192Y-41595391D01*
X185291810Y-41293476D01*
X185207210Y-41141300D01*
X184241300Y-41141300D01*
X184241300Y-41161300D01*
X183758700Y-41161300D01*
X183758700Y-41141300D01*
X182792790Y-41141300D01*
X182708190Y-41293476D01*
X182877808Y-41595391D01*
X183202702Y-41837963D01*
X183496430Y-41912537D01*
X183235759Y-41964387D01*
X182907216Y-42183913D01*
X182687690Y-42512456D01*
X182610603Y-42900000D01*
X182687690Y-43287544D01*
X182907216Y-43616087D01*
X183059294Y-43717703D01*
X182942025Y-43741029D01*
X182499934Y-44036426D01*
X182204537Y-44478517D01*
X182100808Y-45000000D01*
X177899192Y-45000000D01*
X177795463Y-44478517D01*
X177500066Y-44036426D01*
X177057975Y-43741029D01*
X176940706Y-43717703D01*
X177092784Y-43616087D01*
X177312310Y-43287544D01*
X177389397Y-42900000D01*
X177312310Y-42512456D01*
X177092784Y-42183913D01*
X176764241Y-41964387D01*
X176503570Y-41912537D01*
X176797298Y-41837963D01*
X177122192Y-41595391D01*
X177291810Y-41293476D01*
X177207210Y-41141300D01*
X176241300Y-41141300D01*
X176241300Y-41161300D01*
X175758700Y-41161300D01*
X175758700Y-41141300D01*
X174792790Y-41141300D01*
X174708190Y-41293476D01*
X174877808Y-41595391D01*
X175202702Y-41837963D01*
X175496430Y-41912537D01*
X175235759Y-41964387D01*
X174907216Y-42183913D01*
X174687690Y-42512456D01*
X174610603Y-42900000D01*
X174687690Y-43287544D01*
X174907216Y-43616087D01*
X175059294Y-43717703D01*
X174942025Y-43741029D01*
X174499934Y-44036426D01*
X174204537Y-44478517D01*
X174100808Y-45000000D01*
X172313960Y-45000000D01*
X172313960Y-37948919D01*
X172587635Y-38062559D01*
X172910947Y-38062841D01*
X173209756Y-37939375D01*
X173438572Y-37710959D01*
X173438713Y-37710619D01*
X174142041Y-37007291D01*
X174204537Y-37321483D01*
X174499934Y-37763574D01*
X174942025Y-38058971D01*
X175059294Y-38082297D01*
X174907216Y-38183913D01*
X174687690Y-38512456D01*
X174610603Y-38900000D01*
X174687690Y-39287544D01*
X174907216Y-39616087D01*
X175235759Y-39835613D01*
X175496430Y-39887463D01*
X175202702Y-39962037D01*
X174877808Y-40204609D01*
X174708190Y-40506524D01*
X174792790Y-40658700D01*
X175758700Y-40658700D01*
X175758700Y-40638700D01*
X176241300Y-40638700D01*
X176241300Y-40658700D01*
X177207210Y-40658700D01*
X177291810Y-40506524D01*
X177122192Y-40204609D01*
X176797298Y-39962037D01*
X176503570Y-39887463D01*
X176764241Y-39835613D01*
X176948193Y-39712700D01*
X179100000Y-39712700D01*
X179411007Y-39650837D01*
X179674666Y-39474666D01*
X182142041Y-37007291D01*
X182204537Y-37321483D01*
X182499934Y-37763574D01*
X182942025Y-38058971D01*
X183059294Y-38082297D01*
X182907216Y-38183913D01*
X182687690Y-38512456D01*
X182610603Y-38900000D01*
X182687690Y-39287544D01*
X182907216Y-39616087D01*
X183235759Y-39835613D01*
X183496430Y-39887463D01*
X183202702Y-39962037D01*
X182877808Y-40204609D01*
X182708190Y-40506524D01*
X182792790Y-40658700D01*
X183758700Y-40658700D01*
X183758700Y-40638700D01*
X184241300Y-40638700D01*
X184241300Y-40658700D01*
X185207210Y-40658700D01*
X185291810Y-40506524D01*
X185122192Y-40204609D01*
X184797298Y-39962037D01*
X184503570Y-39887463D01*
X184764241Y-39835613D01*
X184948193Y-39712700D01*
X186600000Y-39712700D01*
X186911007Y-39650837D01*
X187174666Y-39474666D01*
X190163250Y-36486082D01*
X190100808Y-36800000D01*
X190204537Y-37321483D01*
X190499934Y-37763574D01*
X190942025Y-38058971D01*
X191059294Y-38082297D01*
X190907216Y-38183913D01*
X190687690Y-38512456D01*
X190610603Y-38900000D01*
X190687690Y-39287544D01*
X190907216Y-39616087D01*
X191235759Y-39835613D01*
X191496430Y-39887463D01*
X191202702Y-39962037D01*
X190877808Y-40204609D01*
X190708190Y-40506524D01*
X190792790Y-40658700D01*
X191758700Y-40658700D01*
X191758700Y-40638700D01*
X192241300Y-40638700D01*
X192241300Y-40658700D01*
X193207210Y-40658700D01*
X193291810Y-40506524D01*
X193122192Y-40204609D01*
X192797298Y-39962037D01*
X192503570Y-39887463D01*
X192764241Y-39835613D01*
X192948193Y-39712700D01*
X195100000Y-39712700D01*
X195411007Y-39650837D01*
X195674666Y-39474666D01*
X198142041Y-37007291D01*
X198204537Y-37321483D01*
X198499934Y-37763574D01*
X198942025Y-38058971D01*
X199059294Y-38082297D01*
X198907216Y-38183913D01*
X198687690Y-38512456D01*
X198610603Y-38900000D01*
X198687690Y-39287544D01*
X198907216Y-39616087D01*
X199235759Y-39835613D01*
X199496430Y-39887463D01*
X199202702Y-39962037D01*
X198877808Y-40204609D01*
X198708190Y-40506524D01*
X198792790Y-40658700D01*
X199758700Y-40658700D01*
X199758700Y-40638700D01*
X200241300Y-40638700D01*
X200241300Y-40658700D01*
X201207210Y-40658700D01*
X201291810Y-40506524D01*
X201122192Y-40204609D01*
X200797298Y-39962037D01*
X200503570Y-39887463D01*
X200764241Y-39835613D01*
X200948193Y-39712700D01*
X201600000Y-39712700D01*
X201911007Y-39650837D01*
X202174666Y-39474666D01*
X203454663Y-38194668D01*
X203454666Y-38194666D01*
X203630837Y-37931007D01*
X203692700Y-37620000D01*
X203692700Y-30298444D01*
X203880154Y-30173191D01*
X204150000Y-29769337D01*
X204419846Y-30173191D01*
X204687300Y-30351898D01*
X204687300Y-38000000D01*
X204749163Y-38311007D01*
X204925334Y-38574666D01*
X205825334Y-39474666D01*
X206088993Y-39650837D01*
X206400000Y-39712700D01*
X207051807Y-39712700D01*
X207235759Y-39835613D01*
X207496430Y-39887463D01*
X207202702Y-39962037D01*
X206877808Y-40204609D01*
X206708190Y-40506524D01*
X206792790Y-40658700D01*
X207758700Y-40658700D01*
X207758700Y-40638700D01*
X208241300Y-40638700D01*
X208241300Y-40658700D01*
X209207210Y-40658700D01*
X209291810Y-40506524D01*
X209122192Y-40204609D01*
X208797298Y-39962037D01*
X208503570Y-39887463D01*
X208764241Y-39835613D01*
X209092784Y-39616087D01*
X209312310Y-39287544D01*
X209389397Y-38900000D01*
X209312310Y-38512456D01*
X209092784Y-38183913D01*
X208940706Y-38082297D01*
X209057975Y-38058971D01*
X209500066Y-37763574D01*
X209795463Y-37321483D01*
X209899192Y-36800000D01*
X209795463Y-36278517D01*
X209500066Y-35836426D01*
X209057975Y-35541029D01*
X208536492Y-35437300D01*
X207463508Y-35437300D01*
X206942025Y-35541029D01*
X206499934Y-35836426D01*
X206312700Y-36116640D01*
X206312700Y-30244989D01*
X206420154Y-30173191D01*
X206690000Y-29769337D01*
X206959846Y-30173191D01*
X207406350Y-30471535D01*
X207933037Y-30576300D01*
X207986963Y-30576300D01*
X208513650Y-30471535D01*
X208960154Y-30173191D01*
X209230000Y-29769337D01*
X209499846Y-30173191D01*
X209946350Y-30471535D01*
X210473037Y-30576300D01*
X210526963Y-30576300D01*
X211053650Y-30471535D01*
X211500154Y-30173191D01*
X211798498Y-29726687D01*
X211903263Y-29200000D01*
X211798498Y-28673313D01*
X211500154Y-28226809D01*
X211053650Y-27928465D01*
X210526963Y-27823700D01*
X210473037Y-27823700D01*
X209946350Y-27928465D01*
X209499846Y-28226809D01*
X209230000Y-28630663D01*
X208960154Y-28226809D01*
X208513650Y-27928465D01*
X207986963Y-27823700D01*
X207933037Y-27823700D01*
X207406350Y-27928465D01*
X206959846Y-28226809D01*
X206690000Y-28630663D01*
X206420154Y-28226809D01*
X205973650Y-27928465D01*
X205446963Y-27823700D01*
X205393037Y-27823700D01*
X204866350Y-27928465D01*
X204419846Y-28226809D01*
X204150000Y-28630663D01*
X203880154Y-28226809D01*
X203433650Y-27928465D01*
X202906963Y-27823700D01*
X202853037Y-27823700D01*
X202326350Y-27928465D01*
X201879846Y-28226809D01*
X201610000Y-28630663D01*
X201340154Y-28226809D01*
X200893650Y-27928465D01*
X200366963Y-27823700D01*
X200313037Y-27823700D01*
X199786350Y-27928465D01*
X199339846Y-28226809D01*
X199070000Y-28630663D01*
X198800154Y-28226809D01*
X198353650Y-27928465D01*
X197826963Y-27823700D01*
X197773037Y-27823700D01*
X197246350Y-27928465D01*
X196799846Y-28226809D01*
X196530000Y-28630663D01*
X196260154Y-28226809D01*
X195813650Y-27928465D01*
X195286963Y-27823700D01*
X195233037Y-27823700D01*
X194706350Y-27928465D01*
X194259846Y-28226809D01*
X193990000Y-28630663D01*
X193720154Y-28226809D01*
X193273650Y-27928465D01*
X192746963Y-27823700D01*
X192693037Y-27823700D01*
X192166350Y-27928465D01*
X191719846Y-28226809D01*
X191421502Y-28673313D01*
X191316737Y-29200000D01*
X191421502Y-29726687D01*
X191719846Y-30173191D01*
X191907300Y-30298444D01*
X191907300Y-31193368D01*
X190913368Y-32187300D01*
X188462032Y-32187300D01*
X189230666Y-31418666D01*
X189406837Y-31155007D01*
X189468701Y-30844000D01*
X189468700Y-30843995D01*
X189468700Y-30298444D01*
X189656154Y-30173191D01*
X189954498Y-29726687D01*
X190059263Y-29200000D01*
X189954498Y-28673313D01*
X189656154Y-28226809D01*
X189209650Y-27928465D01*
X188682963Y-27823700D01*
X188629037Y-27823700D01*
X188102350Y-27928465D01*
X187655846Y-28226809D01*
X187386000Y-28630663D01*
X187116154Y-28226809D01*
X186669650Y-27928465D01*
X186142963Y-27823700D01*
X186089037Y-27823700D01*
X185562350Y-27928465D01*
X185115846Y-28226809D01*
X184846000Y-28630663D01*
X184576154Y-28226809D01*
X184129650Y-27928465D01*
X183602963Y-27823700D01*
X183549037Y-27823700D01*
X183022350Y-27928465D01*
X182575846Y-28226809D01*
X182306000Y-28630663D01*
X182036154Y-28226809D01*
X181589650Y-27928465D01*
X181062963Y-27823700D01*
X181009037Y-27823700D01*
X180482350Y-27928465D01*
X180035846Y-28226809D01*
X179766000Y-28630663D01*
X179496154Y-28226809D01*
X179049650Y-27928465D01*
X178522963Y-27823700D01*
X178469037Y-27823700D01*
X177942350Y-27928465D01*
X177495846Y-28226809D01*
X177226000Y-28630663D01*
X176956154Y-28226809D01*
X176509650Y-27928465D01*
X175982963Y-27823700D01*
X175929037Y-27823700D01*
X175402350Y-27928465D01*
X174955846Y-28226809D01*
X174679709Y-28640077D01*
X174660626Y-28593990D01*
X174333974Y-28163822D01*
X173867569Y-27891403D01*
X173657300Y-27967048D01*
X173657300Y-28958700D01*
X173677300Y-28958700D01*
X173677300Y-29441300D01*
X173657300Y-29441300D01*
X173657300Y-29461300D01*
X173174700Y-29461300D01*
X173174700Y-29441300D01*
X173154700Y-29441300D01*
X173154700Y-28958700D01*
X173174700Y-28958700D01*
X173174700Y-27967048D01*
X172964431Y-27891403D01*
X172498026Y-28163822D01*
X172171374Y-28593990D01*
X172152291Y-28640077D01*
X171876154Y-28226809D01*
X171429650Y-27928465D01*
X170902963Y-27823700D01*
X170849037Y-27823700D01*
X170322350Y-27928465D01*
X169875846Y-28226809D01*
X169606000Y-28630663D01*
X169336154Y-28226809D01*
X168889650Y-27928465D01*
X168362963Y-27823700D01*
X168309037Y-27823700D01*
X167782350Y-27928465D01*
X167335846Y-28226809D01*
X167066000Y-28630663D01*
X166796154Y-28226809D01*
X166349650Y-27928465D01*
X165822963Y-27823700D01*
X165769037Y-27823700D01*
X165242350Y-27928465D01*
X164795846Y-28226809D01*
X164497502Y-28673313D01*
X164392737Y-29200000D01*
X164497502Y-29726687D01*
X164795846Y-30173191D01*
X165242350Y-30471535D01*
X165769037Y-30576300D01*
X165822963Y-30576300D01*
X166349650Y-30471535D01*
X166796154Y-30173191D01*
X167066000Y-29769337D01*
X167335846Y-30173191D01*
X167782350Y-30471535D01*
X168309037Y-30576300D01*
X168362963Y-30576300D01*
X168889650Y-30471535D01*
X169336154Y-30173191D01*
X169606000Y-29769337D01*
X169875846Y-30173191D01*
X170322350Y-30471535D01*
X170849037Y-30576300D01*
X170902963Y-30576300D01*
X171429650Y-30471535D01*
X171876154Y-30173191D01*
X172152291Y-29759923D01*
X172171374Y-29806010D01*
X172498026Y-30236178D01*
X172887188Y-30463481D01*
X172413368Y-30937300D01*
X163490085Y-30937300D01*
X164030015Y-30398311D01*
X164352332Y-29622086D01*
X164353066Y-28781602D01*
X164032104Y-28004815D01*
X163438311Y-27409985D01*
X163083610Y-27262700D01*
X211281566Y-27262700D01*
X212437300Y-28418433D01*
X212437300Y-28418433D01*
G37*
X212437300Y-28418433D02*
X212437300Y-39350000D01*
X212482036Y-39574903D01*
X212609433Y-39765567D01*
X214987300Y-42143433D01*
X214987300Y-43620418D01*
X214832104Y-43244815D01*
X214238311Y-42649985D01*
X213462086Y-42327668D01*
X212621602Y-42326934D01*
X211844815Y-42647896D01*
X211249985Y-43241689D01*
X210927668Y-44017914D01*
X210926934Y-44858398D01*
X211247896Y-45635185D01*
X211841689Y-46230015D01*
X212617914Y-46552332D01*
X213458398Y-46553066D01*
X214235185Y-46232104D01*
X214830015Y-45638311D01*
X214987300Y-45259527D01*
X214987300Y-71560418D01*
X214832104Y-71184815D01*
X214238311Y-70589985D01*
X213462086Y-70267668D01*
X212621602Y-70266934D01*
X211844815Y-70587896D01*
X211249985Y-71181689D01*
X210927668Y-71957914D01*
X210926934Y-72798398D01*
X211247896Y-73575185D01*
X211841689Y-74170015D01*
X212617914Y-74492332D01*
X213458398Y-74493066D01*
X214235185Y-74172104D01*
X214830015Y-73578311D01*
X214987300Y-73199527D01*
X214987300Y-75956567D01*
X212634433Y-78309433D01*
X212507036Y-78500097D01*
X212462300Y-78725000D01*
X212462300Y-79412300D01*
X161777481Y-79412300D01*
X162165185Y-79252104D01*
X162760015Y-78658311D01*
X163082332Y-77882086D01*
X163083066Y-77041602D01*
X162762104Y-76264815D01*
X162168311Y-75669985D01*
X161392086Y-75347668D01*
X160551602Y-75346934D01*
X159774815Y-75667896D01*
X159179985Y-76261689D01*
X158857668Y-77037914D01*
X158856934Y-77878398D01*
X159177896Y-78655185D01*
X159771689Y-79250015D01*
X160162514Y-79412300D01*
X147637034Y-79412300D01*
X147587700Y-79362956D01*
X147587700Y-77721475D01*
X154704300Y-77721475D01*
X154704300Y-78703574D01*
X154783572Y-78894953D01*
X154930047Y-79041428D01*
X155121427Y-79120700D01*
X156353525Y-79120700D01*
X156483700Y-78990525D01*
X156483700Y-77591300D01*
X156966300Y-77591300D01*
X156966300Y-78990525D01*
X157096475Y-79120700D01*
X158328573Y-79120700D01*
X158519953Y-79041428D01*
X158666428Y-78894953D01*
X158745700Y-78703574D01*
X158745700Y-77721475D01*
X158615525Y-77591300D01*
X156966300Y-77591300D01*
X156483700Y-77591300D01*
X154834475Y-77591300D01*
X154704300Y-77721475D01*
X147587700Y-77721475D01*
X147587700Y-77094940D01*
X147725000Y-77122744D01*
X150725000Y-77122744D01*
X150914995Y-77086994D01*
X151089494Y-76974707D01*
X151206559Y-76803377D01*
X151247744Y-76600000D01*
X151247744Y-75996426D01*
X154704300Y-75996426D01*
X154704300Y-76978525D01*
X154834475Y-77108700D01*
X156483700Y-77108700D01*
X156483700Y-75709475D01*
X156966300Y-75709475D01*
X156966300Y-77108700D01*
X158615525Y-77108700D01*
X158745700Y-76978525D01*
X158745700Y-75996426D01*
X158666428Y-75805047D01*
X158519953Y-75658572D01*
X158328573Y-75579300D01*
X157096475Y-75579300D01*
X156966300Y-75709475D01*
X156483700Y-75709475D01*
X156353525Y-75579300D01*
X155121427Y-75579300D01*
X154930047Y-75658572D01*
X154783572Y-75805047D01*
X154704300Y-75996426D01*
X151247744Y-75996426D01*
X151247744Y-74476588D01*
X155637234Y-70087097D01*
X163254153Y-70087097D01*
X163355686Y-70297346D01*
X163901204Y-70445160D01*
X164461763Y-70372962D01*
X164644314Y-70297346D01*
X164745847Y-70087097D01*
X164000000Y-69341250D01*
X163254153Y-70087097D01*
X155637234Y-70087097D01*
X156101587Y-69622744D01*
X158225000Y-69622744D01*
X158414995Y-69586994D01*
X158589494Y-69474707D01*
X158706559Y-69303377D01*
X158747744Y-69100000D01*
X158747744Y-68901204D01*
X162554840Y-68901204D01*
X162627038Y-69461763D01*
X162702654Y-69644314D01*
X162912903Y-69745847D01*
X163658750Y-69000000D01*
X164341250Y-69000000D01*
X165087097Y-69745847D01*
X165247607Y-69668334D01*
X165301673Y-69799185D01*
X165687300Y-70185485D01*
X165687300Y-70950000D01*
X165749163Y-71261007D01*
X165925334Y-71524666D01*
X170225332Y-75824663D01*
X170225334Y-75824666D01*
X170488993Y-76000837D01*
X170800000Y-76062700D01*
X183799291Y-76062700D01*
X183960947Y-76062841D01*
X184087300Y-76010633D01*
X184087300Y-76505585D01*
X183830000Y-76890663D01*
X183560154Y-76486809D01*
X183113650Y-76188465D01*
X182586963Y-76083700D01*
X182533037Y-76083700D01*
X182006350Y-76188465D01*
X181559846Y-76486809D01*
X181290000Y-76890663D01*
X181020154Y-76486809D01*
X180573650Y-76188465D01*
X180046963Y-76083700D01*
X179993037Y-76083700D01*
X179466350Y-76188465D01*
X179019846Y-76486809D01*
X178750000Y-76890663D01*
X178480154Y-76486809D01*
X178033650Y-76188465D01*
X177506963Y-76083700D01*
X177453037Y-76083700D01*
X176926350Y-76188465D01*
X176479846Y-76486809D01*
X176210000Y-76890663D01*
X175940154Y-76486809D01*
X175493650Y-76188465D01*
X174966963Y-76083700D01*
X174913037Y-76083700D01*
X174386350Y-76188465D01*
X173939846Y-76486809D01*
X173641502Y-76933313D01*
X173536737Y-77460000D01*
X173641502Y-77986687D01*
X173939846Y-78433191D01*
X174386350Y-78731535D01*
X174913037Y-78836300D01*
X174966963Y-78836300D01*
X175493650Y-78731535D01*
X175940154Y-78433191D01*
X176210000Y-78029337D01*
X176479846Y-78433191D01*
X176926350Y-78731535D01*
X177453037Y-78836300D01*
X177506963Y-78836300D01*
X178033650Y-78731535D01*
X178480154Y-78433191D01*
X178750000Y-78029337D01*
X179019846Y-78433191D01*
X179466350Y-78731535D01*
X179993037Y-78836300D01*
X180046963Y-78836300D01*
X180573650Y-78731535D01*
X181020154Y-78433191D01*
X181290000Y-78029337D01*
X181559846Y-78433191D01*
X182006350Y-78731535D01*
X182533037Y-78836300D01*
X182586963Y-78836300D01*
X183113650Y-78731535D01*
X183560154Y-78433191D01*
X183830000Y-78029337D01*
X184099846Y-78433191D01*
X184546350Y-78731535D01*
X185073037Y-78836300D01*
X185126963Y-78836300D01*
X185653650Y-78731535D01*
X186100154Y-78433191D01*
X186376291Y-78019923D01*
X186395374Y-78066010D01*
X186722026Y-78496178D01*
X187188431Y-78768597D01*
X187398700Y-78692952D01*
X187398700Y-77701300D01*
X187881300Y-77701300D01*
X187881300Y-78692952D01*
X188091569Y-78768597D01*
X188557974Y-78496178D01*
X188884626Y-78066010D01*
X188910000Y-78004731D01*
X188935374Y-78066010D01*
X189262026Y-78496178D01*
X189728431Y-78768597D01*
X189938700Y-78692952D01*
X189938700Y-77701300D01*
X188949308Y-77701300D01*
X188910000Y-77807420D01*
X188870692Y-77701300D01*
X187881300Y-77701300D01*
X187398700Y-77701300D01*
X187378700Y-77701300D01*
X187378700Y-77218700D01*
X187398700Y-77218700D01*
X187398700Y-76227048D01*
X187881300Y-76227048D01*
X187881300Y-77218700D01*
X188870692Y-77218700D01*
X188910000Y-77112580D01*
X188949308Y-77218700D01*
X189938700Y-77218700D01*
X189938700Y-76227048D01*
X190421300Y-76227048D01*
X190421300Y-77218700D01*
X190441300Y-77218700D01*
X190441300Y-77701300D01*
X190421300Y-77701300D01*
X190421300Y-78692952D01*
X190631569Y-78768597D01*
X191097974Y-78496178D01*
X191424626Y-78066010D01*
X191443709Y-78019923D01*
X191719846Y-78433191D01*
X192166350Y-78731535D01*
X192693037Y-78836300D01*
X192746963Y-78836300D01*
X193273650Y-78731535D01*
X193720154Y-78433191D01*
X194018498Y-77986687D01*
X194123263Y-77460000D01*
X194018498Y-76933313D01*
X193720154Y-76486809D01*
X193273650Y-76188465D01*
X192746963Y-76083700D01*
X192693037Y-76083700D01*
X192166350Y-76188465D01*
X191719846Y-76486809D01*
X191443709Y-76900077D01*
X191424626Y-76853990D01*
X191097974Y-76423822D01*
X190631569Y-76151403D01*
X190421300Y-76227048D01*
X189938700Y-76227048D01*
X189728431Y-76151403D01*
X189262026Y-76423822D01*
X188935374Y-76853990D01*
X188910000Y-76915269D01*
X188884626Y-76853990D01*
X188557974Y-76423822D01*
X188091569Y-76151403D01*
X187881300Y-76227048D01*
X187398700Y-76227048D01*
X187188431Y-76151403D01*
X186722026Y-76423822D01*
X186395374Y-76853990D01*
X186376291Y-76900077D01*
X186112700Y-76505585D01*
X186112700Y-76021062D01*
X186212635Y-76062559D01*
X186535947Y-76062841D01*
X186536288Y-76062700D01*
X205538368Y-76062700D01*
X205587279Y-76111611D01*
X205446963Y-76083700D01*
X205393037Y-76083700D01*
X204866350Y-76188465D01*
X204419846Y-76486809D01*
X204150000Y-76890663D01*
X203880154Y-76486809D01*
X203433650Y-76188465D01*
X202906963Y-76083700D01*
X202853037Y-76083700D01*
X202326350Y-76188465D01*
X201879846Y-76486809D01*
X201610000Y-76890663D01*
X201340154Y-76486809D01*
X200893650Y-76188465D01*
X200366963Y-76083700D01*
X200313037Y-76083700D01*
X199786350Y-76188465D01*
X199339846Y-76486809D01*
X199070000Y-76890663D01*
X198800154Y-76486809D01*
X198353650Y-76188465D01*
X197826963Y-76083700D01*
X197773037Y-76083700D01*
X197246350Y-76188465D01*
X196799846Y-76486809D01*
X196501502Y-76933313D01*
X196396737Y-77460000D01*
X196501502Y-77986687D01*
X196799846Y-78433191D01*
X197246350Y-78731535D01*
X197773037Y-78836300D01*
X197826963Y-78836300D01*
X198353650Y-78731535D01*
X198800154Y-78433191D01*
X199070000Y-78029337D01*
X199339846Y-78433191D01*
X199786350Y-78731535D01*
X200313037Y-78836300D01*
X200366963Y-78836300D01*
X200893650Y-78731535D01*
X201340154Y-78433191D01*
X201610000Y-78029337D01*
X201879846Y-78433191D01*
X202326350Y-78731535D01*
X202853037Y-78836300D01*
X202906963Y-78836300D01*
X203433650Y-78731535D01*
X203880154Y-78433191D01*
X204150000Y-78029337D01*
X204419846Y-78433191D01*
X204866350Y-78731535D01*
X205393037Y-78836300D01*
X205446963Y-78836300D01*
X205973650Y-78731535D01*
X206420154Y-78433191D01*
X206690000Y-78029337D01*
X206959846Y-78433191D01*
X207406350Y-78731535D01*
X207933037Y-78836300D01*
X207986963Y-78836300D01*
X208513650Y-78731535D01*
X208960154Y-78433191D01*
X209230000Y-78029337D01*
X209499846Y-78433191D01*
X209946350Y-78731535D01*
X210473037Y-78836300D01*
X210526963Y-78836300D01*
X211053650Y-78731535D01*
X211500154Y-78433191D01*
X211798498Y-77986687D01*
X211903263Y-77460000D01*
X211798498Y-76933313D01*
X211500154Y-76486809D01*
X211053650Y-76188465D01*
X210526963Y-76083700D01*
X210473037Y-76083700D01*
X210306215Y-76116883D01*
X207539666Y-73350334D01*
X207276007Y-73174163D01*
X206965000Y-73112300D01*
X198575000Y-73112300D01*
X198449759Y-73137212D01*
X198389053Y-73137159D01*
X198332454Y-73160545D01*
X198263993Y-73174163D01*
X198206460Y-73212605D01*
X198090244Y-73260625D01*
X198000467Y-73350245D01*
X198000334Y-73350334D01*
X198000332Y-73350337D01*
X197975334Y-73375334D01*
X197861428Y-73489041D01*
X197737441Y-73787635D01*
X197737159Y-74110947D01*
X197860625Y-74409756D01*
X197888121Y-74437300D01*
X196569874Y-74437300D01*
X198716087Y-72291087D01*
X198803840Y-72159756D01*
X198935613Y-71962544D01*
X199012700Y-71575000D01*
X199012700Y-69985184D01*
X199196930Y-69801275D01*
X199412454Y-69282236D01*
X199412944Y-68720230D01*
X199198327Y-68200815D01*
X198997862Y-68000000D01*
X210100808Y-68000000D01*
X210204537Y-68521483D01*
X210499934Y-68963574D01*
X210942025Y-69258971D01*
X211463508Y-69362700D01*
X212536492Y-69362700D01*
X213057975Y-69258971D01*
X213500066Y-68963574D01*
X213795463Y-68521483D01*
X213899192Y-68000000D01*
X213795463Y-67478517D01*
X213500066Y-67036426D01*
X213057975Y-66741029D01*
X212940706Y-66717703D01*
X213092784Y-66616087D01*
X213312310Y-66287544D01*
X213389397Y-65900000D01*
X213312310Y-65512456D01*
X213092784Y-65183913D01*
X212764241Y-64964387D01*
X212503570Y-64912537D01*
X212797298Y-64837963D01*
X213122192Y-64595391D01*
X213291810Y-64293476D01*
X213207210Y-64141300D01*
X212241300Y-64141300D01*
X212241300Y-64161300D01*
X211758700Y-64161300D01*
X211758700Y-64141300D01*
X210792790Y-64141300D01*
X210708190Y-64293476D01*
X210877808Y-64595391D01*
X211202702Y-64837963D01*
X211496430Y-64912537D01*
X211235759Y-64964387D01*
X210907216Y-65183913D01*
X210687690Y-65512456D01*
X210610603Y-65900000D01*
X210687690Y-66287544D01*
X210907216Y-66616087D01*
X211059294Y-66717703D01*
X210942025Y-66741029D01*
X210499934Y-67036426D01*
X210204537Y-67478517D01*
X210100808Y-68000000D01*
X198997862Y-68000000D01*
X198801275Y-67803070D01*
X198282236Y-67587546D01*
X197720230Y-67587056D01*
X197200815Y-67801673D01*
X196803070Y-68198725D01*
X196750136Y-68326204D01*
X196698327Y-68200815D01*
X196301275Y-67803070D01*
X195782236Y-67587546D01*
X195220230Y-67587056D01*
X194700815Y-67801673D01*
X194303070Y-68198725D01*
X194247824Y-68331771D01*
X194087097Y-68254153D01*
X193341250Y-69000000D01*
X194087097Y-69745847D01*
X194247607Y-69668334D01*
X194301673Y-69799185D01*
X194687300Y-70185485D01*
X194687300Y-71000000D01*
X194749163Y-71311007D01*
X194925334Y-71574666D01*
X195624833Y-72274164D01*
X195739041Y-72388572D01*
X195749790Y-72393036D01*
X195230526Y-72912300D01*
X185100000Y-72912300D01*
X184974316Y-72937300D01*
X171694474Y-72937300D01*
X170012700Y-71255526D01*
X170012700Y-70087097D01*
X192254153Y-70087097D01*
X192355686Y-70297346D01*
X192901204Y-70445160D01*
X193461763Y-70372962D01*
X193644314Y-70297346D01*
X193745847Y-70087097D01*
X193000000Y-69341250D01*
X192254153Y-70087097D01*
X170012700Y-70087097D01*
X170012700Y-69985184D01*
X170196930Y-69801275D01*
X170412454Y-69282236D01*
X170412786Y-68901204D01*
X191554840Y-68901204D01*
X191627038Y-69461763D01*
X191702654Y-69644314D01*
X191912903Y-69745847D01*
X192658750Y-69000000D01*
X191912903Y-68254153D01*
X191702654Y-68355686D01*
X191554840Y-68901204D01*
X170412786Y-68901204D01*
X170412944Y-68720230D01*
X170198327Y-68200815D01*
X169910917Y-67912903D01*
X192254153Y-67912903D01*
X193000000Y-68658750D01*
X193745847Y-67912903D01*
X193644314Y-67702654D01*
X193098796Y-67554840D01*
X192538237Y-67627038D01*
X192355686Y-67702654D01*
X192254153Y-67912903D01*
X169910917Y-67912903D01*
X169801275Y-67803070D01*
X169282236Y-67587546D01*
X168720230Y-67587056D01*
X168200815Y-67801673D01*
X167803070Y-68198725D01*
X167750136Y-68326204D01*
X167698327Y-68200815D01*
X167301275Y-67803070D01*
X166782236Y-67587546D01*
X166220230Y-67587056D01*
X165700815Y-67801673D01*
X165303070Y-68198725D01*
X165247824Y-68331771D01*
X165087097Y-68254153D01*
X164341250Y-69000000D01*
X163658750Y-69000000D01*
X162912903Y-68254153D01*
X162702654Y-68355686D01*
X162554840Y-68901204D01*
X158747744Y-68901204D01*
X158747744Y-67912903D01*
X163254153Y-67912903D01*
X164000000Y-68658750D01*
X164745847Y-67912903D01*
X164644314Y-67702654D01*
X164098796Y-67554840D01*
X163538237Y-67627038D01*
X163355686Y-67702654D01*
X163254153Y-67912903D01*
X158747744Y-67912903D01*
X158747744Y-66600000D01*
X158711994Y-66410005D01*
X158599707Y-66235506D01*
X158428377Y-66118441D01*
X158225000Y-66077256D01*
X157537700Y-66077256D01*
X157537700Y-62497614D01*
X159586865Y-62497614D01*
X159968594Y-63421471D01*
X160674811Y-64128922D01*
X161598000Y-64512263D01*
X162597614Y-64513135D01*
X163521471Y-64131406D01*
X164228922Y-63425189D01*
X164612263Y-62502000D01*
X164612266Y-62497614D01*
X168386865Y-62497614D01*
X168768594Y-63421471D01*
X169474811Y-64128922D01*
X170398000Y-64512263D01*
X171397614Y-64513135D01*
X172321471Y-64131406D01*
X173028922Y-63425189D01*
X173412263Y-62502000D01*
X173412266Y-62497614D01*
X188586865Y-62497614D01*
X188968594Y-63421471D01*
X189674811Y-64128922D01*
X190598000Y-64512263D01*
X191597614Y-64513135D01*
X192521471Y-64131406D01*
X193228922Y-63425189D01*
X193612263Y-62502000D01*
X193612266Y-62497614D01*
X197386865Y-62497614D01*
X197768594Y-63421471D01*
X198474811Y-64128922D01*
X199398000Y-64512263D01*
X200397614Y-64513135D01*
X201321471Y-64131406D01*
X202028922Y-63425189D01*
X202412263Y-62502000D01*
X202413135Y-61502386D01*
X202031406Y-60578529D01*
X201325189Y-59871078D01*
X201154014Y-59800000D01*
X210100808Y-59800000D01*
X210204537Y-60321483D01*
X210499934Y-60763574D01*
X210942025Y-61058971D01*
X211059294Y-61082297D01*
X210907216Y-61183913D01*
X210687690Y-61512456D01*
X210610603Y-61900000D01*
X210687690Y-62287544D01*
X210907216Y-62616087D01*
X211235759Y-62835613D01*
X211496430Y-62887463D01*
X211202702Y-62962037D01*
X210877808Y-63204609D01*
X210708190Y-63506524D01*
X210792790Y-63658700D01*
X211758700Y-63658700D01*
X211758700Y-63638700D01*
X212241300Y-63638700D01*
X212241300Y-63658700D01*
X213207210Y-63658700D01*
X213291810Y-63506524D01*
X213122192Y-63204609D01*
X212797298Y-62962037D01*
X212503570Y-62887463D01*
X212764241Y-62835613D01*
X213092784Y-62616087D01*
X213312310Y-62287544D01*
X213389397Y-61900000D01*
X213312310Y-61512456D01*
X213092784Y-61183913D01*
X212940706Y-61082297D01*
X213057975Y-61058971D01*
X213500066Y-60763574D01*
X213795463Y-60321483D01*
X213899192Y-59800000D01*
X213795463Y-59278517D01*
X213500066Y-58836426D01*
X213057975Y-58541029D01*
X212536492Y-58437300D01*
X211463508Y-58437300D01*
X210942025Y-58541029D01*
X210499934Y-58836426D01*
X210204537Y-59278517D01*
X210100808Y-59800000D01*
X201154014Y-59800000D01*
X200402000Y-59487737D01*
X199402386Y-59486865D01*
X198478529Y-59868594D01*
X197771078Y-60574811D01*
X197387737Y-61498000D01*
X197386865Y-62497614D01*
X193612266Y-62497614D01*
X193613135Y-61502386D01*
X193231406Y-60578529D01*
X192525189Y-59871078D01*
X191602000Y-59487737D01*
X190602386Y-59486865D01*
X189678529Y-59868594D01*
X188971078Y-60574811D01*
X188587737Y-61498000D01*
X188586865Y-62497614D01*
X173412266Y-62497614D01*
X173413135Y-61502386D01*
X173031406Y-60578529D01*
X172325189Y-59871078D01*
X171402000Y-59487737D01*
X170402386Y-59486865D01*
X169478529Y-59868594D01*
X168771078Y-60574811D01*
X168387737Y-61498000D01*
X168386865Y-62497614D01*
X164612266Y-62497614D01*
X164613135Y-61502386D01*
X164231406Y-60578529D01*
X163525189Y-59871078D01*
X162602000Y-59487737D01*
X161602386Y-59486865D01*
X160678529Y-59868594D01*
X159971078Y-60574811D01*
X159587737Y-61498000D01*
X159586865Y-62497614D01*
X157537700Y-62497614D01*
X157537700Y-59950005D01*
X157537701Y-59950000D01*
X157475837Y-59638993D01*
X157374188Y-59486865D01*
X157299666Y-59375334D01*
X157299663Y-59375332D01*
X151812700Y-53888368D01*
X151812700Y-52320354D01*
X151989995Y-52286994D01*
X152164494Y-52174707D01*
X152281559Y-52003377D01*
X152322744Y-51800000D01*
X152322744Y-51588316D01*
X152386498Y-51742613D01*
X152755444Y-52112204D01*
X153237742Y-52312471D01*
X153759967Y-52312927D01*
X154242613Y-52113502D01*
X154543941Y-51812700D01*
X159976506Y-51812700D01*
X159976506Y-51999490D01*
X160012256Y-52189485D01*
X160124543Y-52363984D01*
X160295873Y-52481049D01*
X160499250Y-52522234D01*
X161939523Y-52522234D01*
X162005903Y-52603448D01*
X162189384Y-52700366D01*
X162396115Y-52718264D01*
X164424798Y-52487130D01*
X166437332Y-54499663D01*
X166437334Y-54499666D01*
X166681790Y-54663006D01*
X166700993Y-54675837D01*
X167012000Y-54737701D01*
X167012005Y-54737700D01*
X179925000Y-54737700D01*
X180236007Y-54675837D01*
X180499666Y-54499666D01*
X182848491Y-52150840D01*
X183237742Y-52312471D01*
X183759967Y-52312927D01*
X184242613Y-52113502D01*
X184612204Y-51744556D01*
X184812471Y-51262258D01*
X184812927Y-50740033D01*
X184613502Y-50257387D01*
X184244556Y-49887796D01*
X183762258Y-49687529D01*
X183240033Y-49687073D01*
X182757387Y-49886498D01*
X182387796Y-50255444D01*
X182333348Y-50386571D01*
X182275334Y-50425334D01*
X182275332Y-50425337D01*
X179588368Y-53112300D01*
X167348631Y-53112300D01*
X166286628Y-52050297D01*
X166318619Y-52003477D01*
X166359804Y-51800100D01*
X166359804Y-50199900D01*
X166342431Y-50066254D01*
X166250619Y-49880166D01*
X166093642Y-49744459D01*
X165896235Y-49680516D01*
X162396115Y-49281736D01*
X162146945Y-49314126D01*
X161972446Y-49426413D01*
X161937358Y-49477766D01*
X160499250Y-49477766D01*
X160309255Y-49513516D01*
X160134756Y-49625803D01*
X160017691Y-49797133D01*
X159976506Y-50000510D01*
X159976506Y-50187300D01*
X154543537Y-50187300D01*
X154244556Y-49887796D01*
X153762258Y-49687529D01*
X153240033Y-49687073D01*
X152757387Y-49886498D01*
X152387796Y-50255444D01*
X152322744Y-50412107D01*
X152322744Y-50200000D01*
X152286994Y-50010005D01*
X152174707Y-49835506D01*
X152003377Y-49718441D01*
X151800000Y-49677256D01*
X150200000Y-49677256D01*
X150010005Y-49713006D01*
X149835506Y-49825293D01*
X149812700Y-49858671D01*
X149812700Y-45000000D01*
X150100808Y-45000000D01*
X150204537Y-45521483D01*
X150499934Y-45963574D01*
X150942025Y-46258971D01*
X151463508Y-46362700D01*
X152536492Y-46362700D01*
X153057975Y-46258971D01*
X153500066Y-45963574D01*
X153795463Y-45521483D01*
X153899192Y-45000000D01*
X158100808Y-45000000D01*
X158204537Y-45521483D01*
X158499934Y-45963574D01*
X158942025Y-46258971D01*
X159463508Y-46362700D01*
X160536492Y-46362700D01*
X161057975Y-46258971D01*
X161500066Y-45963574D01*
X161795463Y-45521483D01*
X161899192Y-45000000D01*
X166100808Y-45000000D01*
X166204537Y-45521483D01*
X166499934Y-45963574D01*
X166942025Y-46258971D01*
X167463508Y-46362700D01*
X168536492Y-46362700D01*
X169057975Y-46258971D01*
X169500066Y-45963574D01*
X169795463Y-45521483D01*
X169899192Y-45000000D01*
X169795463Y-44478517D01*
X169500066Y-44036426D01*
X169057975Y-43741029D01*
X168940706Y-43717703D01*
X169092784Y-43616087D01*
X169312310Y-43287544D01*
X169389397Y-42900000D01*
X169312310Y-42512456D01*
X169092784Y-42183913D01*
X168764241Y-41964387D01*
X168503570Y-41912537D01*
X168797298Y-41837963D01*
X169122192Y-41595391D01*
X169291810Y-41293476D01*
X169207210Y-41141300D01*
X168241300Y-41141300D01*
X168241300Y-41161300D01*
X167758700Y-41161300D01*
X167758700Y-41141300D01*
X166792790Y-41141300D01*
X166708190Y-41293476D01*
X166877808Y-41595391D01*
X167202702Y-41837963D01*
X167496430Y-41912537D01*
X167235759Y-41964387D01*
X166907216Y-42183913D01*
X166687690Y-42512456D01*
X166610603Y-42900000D01*
X166687690Y-43287544D01*
X166907216Y-43616087D01*
X167059294Y-43717703D01*
X166942025Y-43741029D01*
X166499934Y-44036426D01*
X166204537Y-44478517D01*
X166100808Y-45000000D01*
X161899192Y-45000000D01*
X161795463Y-44478517D01*
X161500066Y-44036426D01*
X161057975Y-43741029D01*
X160940706Y-43717703D01*
X161092784Y-43616087D01*
X161312310Y-43287544D01*
X161389397Y-42900000D01*
X161312310Y-42512456D01*
X161092784Y-42183913D01*
X160764241Y-41964387D01*
X160503570Y-41912537D01*
X160797298Y-41837963D01*
X161122192Y-41595391D01*
X161291810Y-41293476D01*
X161207210Y-41141300D01*
X160241300Y-41141300D01*
X160241300Y-41161300D01*
X159758700Y-41161300D01*
X159758700Y-41141300D01*
X158792790Y-41141300D01*
X158708190Y-41293476D01*
X158877808Y-41595391D01*
X159202702Y-41837963D01*
X159496430Y-41912537D01*
X159235759Y-41964387D01*
X158907216Y-42183913D01*
X158687690Y-42512456D01*
X158610603Y-42900000D01*
X158687690Y-43287544D01*
X158907216Y-43616087D01*
X159059294Y-43717703D01*
X158942025Y-43741029D01*
X158499934Y-44036426D01*
X158204537Y-44478517D01*
X158100808Y-45000000D01*
X153899192Y-45000000D01*
X153795463Y-44478517D01*
X153500066Y-44036426D01*
X153057975Y-43741029D01*
X152940706Y-43717703D01*
X153092784Y-43616087D01*
X153312310Y-43287544D01*
X153389397Y-42900000D01*
X153312310Y-42512456D01*
X153092784Y-42183913D01*
X152764241Y-41964387D01*
X152503570Y-41912537D01*
X152797298Y-41837963D01*
X153122192Y-41595391D01*
X153291810Y-41293476D01*
X153207210Y-41141300D01*
X152241300Y-41141300D01*
X152241300Y-41161300D01*
X151758700Y-41161300D01*
X151758700Y-41141300D01*
X150792790Y-41141300D01*
X150708190Y-41293476D01*
X150877808Y-41595391D01*
X151202702Y-41837963D01*
X151496430Y-41912537D01*
X151235759Y-41964387D01*
X150907216Y-42183913D01*
X150687690Y-42512456D01*
X150610603Y-42900000D01*
X150687690Y-43287544D01*
X150907216Y-43616087D01*
X151059294Y-43717703D01*
X150942025Y-43741029D01*
X150499934Y-44036426D01*
X150204537Y-44478517D01*
X150100808Y-45000000D01*
X149812700Y-45000000D01*
X149812700Y-35936632D01*
X151436631Y-34312700D01*
X153000000Y-34312700D01*
X153311007Y-34250837D01*
X153574666Y-34074666D01*
X155086631Y-32562700D01*
X160343903Y-32562700D01*
X160175334Y-32675334D01*
X160175332Y-32675337D01*
X154763368Y-38087300D01*
X152948193Y-38087300D01*
X152940706Y-38082297D01*
X153057975Y-38058971D01*
X153500066Y-37763574D01*
X153795463Y-37321483D01*
X153899192Y-36800000D01*
X153795463Y-36278517D01*
X153500066Y-35836426D01*
X153057975Y-35541029D01*
X152536492Y-35437300D01*
X151463508Y-35437300D01*
X150942025Y-35541029D01*
X150499934Y-35836426D01*
X150204537Y-36278517D01*
X150100808Y-36800000D01*
X150204537Y-37321483D01*
X150499934Y-37763574D01*
X150942025Y-38058971D01*
X151059294Y-38082297D01*
X150907216Y-38183913D01*
X150687690Y-38512456D01*
X150610603Y-38900000D01*
X150687690Y-39287544D01*
X150907216Y-39616087D01*
X151235759Y-39835613D01*
X151496430Y-39887463D01*
X151202702Y-39962037D01*
X150877808Y-40204609D01*
X150708190Y-40506524D01*
X150792790Y-40658700D01*
X151758700Y-40658700D01*
X151758700Y-40638700D01*
X152241300Y-40638700D01*
X152241300Y-40658700D01*
X153207210Y-40658700D01*
X153291810Y-40506524D01*
X153122192Y-40204609D01*
X152797298Y-39962037D01*
X152503570Y-39887463D01*
X152764241Y-39835613D01*
X152948193Y-39712700D01*
X155100000Y-39712700D01*
X155411007Y-39650837D01*
X155674666Y-39474666D01*
X158142041Y-37007291D01*
X158204537Y-37321483D01*
X158499934Y-37763574D01*
X158942025Y-38058971D01*
X159059294Y-38082297D01*
X158907216Y-38183913D01*
X158687690Y-38512456D01*
X158610603Y-38900000D01*
X158687690Y-39287544D01*
X158907216Y-39616087D01*
X159235759Y-39835613D01*
X159496430Y-39887463D01*
X159202702Y-39962037D01*
X158877808Y-40204609D01*
X158708190Y-40506524D01*
X158792790Y-40658700D01*
X159758700Y-40658700D01*
X159758700Y-40638700D01*
X160241300Y-40638700D01*
X160241300Y-40658700D01*
X161207210Y-40658700D01*
X161291810Y-40506524D01*
X161122192Y-40204609D01*
X160797298Y-39962037D01*
X160503570Y-39887463D01*
X160764241Y-39835613D01*
X160948193Y-39712700D01*
X162850000Y-39712700D01*
X163161007Y-39650837D01*
X163424666Y-39474666D01*
X166101174Y-36798158D01*
X166100808Y-36800000D01*
X166204537Y-37321483D01*
X166499934Y-37763574D01*
X166942025Y-38058971D01*
X167059294Y-38082297D01*
X166907216Y-38183913D01*
X166687690Y-38512456D01*
X166610603Y-38900000D01*
X166687690Y-39287544D01*
X166907216Y-39616087D01*
X167235759Y-39835613D01*
X167496430Y-39887463D01*
X167202702Y-39962037D01*
X166877808Y-40204609D01*
X166708190Y-40506524D01*
X166792790Y-40658700D01*
X167758700Y-40658700D01*
X167758700Y-40638700D01*
X168241300Y-40638700D01*
X168241300Y-40658700D01*
X169207210Y-40658700D01*
X169291810Y-40506524D01*
X169122192Y-40204609D01*
X168797298Y-39962037D01*
X168503570Y-39887463D01*
X168764241Y-39835613D01*
X168989814Y-39684889D01*
X169161007Y-39650837D01*
X169424666Y-39474666D01*
X170688560Y-38210771D01*
X170688560Y-49289067D01*
X170603885Y-49281736D01*
X167103765Y-49680516D01*
X166972945Y-49712906D01*
X166798446Y-49825193D01*
X166681381Y-49996523D01*
X166640196Y-50199900D01*
X166640196Y-51800100D01*
X166657569Y-51933746D01*
X166749381Y-52119834D01*
X166906358Y-52255541D01*
X167103765Y-52319484D01*
X170603885Y-52718264D01*
X170853055Y-52685874D01*
X171027554Y-52573587D01*
X171062642Y-52522234D01*
X172500750Y-52522234D01*
X172690745Y-52486484D01*
X172865244Y-52374197D01*
X172982309Y-52202867D01*
X173020625Y-52013655D01*
X177827594Y-52013655D01*
X177916531Y-52213600D01*
X178425369Y-52344504D01*
X178945570Y-52270720D01*
X179083469Y-52213600D01*
X179172406Y-52013655D01*
X178500000Y-51341250D01*
X177827594Y-52013655D01*
X173020625Y-52013655D01*
X173023494Y-51999490D01*
X173023494Y-50925369D01*
X177155496Y-50925369D01*
X177229280Y-51445570D01*
X177286400Y-51583469D01*
X177486345Y-51672406D01*
X178158750Y-51000000D01*
X178841250Y-51000000D01*
X179513655Y-51672406D01*
X179713600Y-51583469D01*
X179844504Y-51074631D01*
X179770720Y-50554430D01*
X179713600Y-50416531D01*
X179513655Y-50327594D01*
X178841250Y-51000000D01*
X178158750Y-51000000D01*
X177486345Y-50327594D01*
X177286400Y-50416531D01*
X177155496Y-50925369D01*
X173023494Y-50925369D01*
X173023494Y-50000510D01*
X173020829Y-49986345D01*
X177827594Y-49986345D01*
X178500000Y-50658750D01*
X179172406Y-49986345D01*
X179083469Y-49786400D01*
X178574631Y-49655496D01*
X178054430Y-49729280D01*
X177916531Y-49786400D01*
X177827594Y-49986345D01*
X173020829Y-49986345D01*
X172987744Y-49810515D01*
X172875457Y-49636016D01*
X172704127Y-49518951D01*
X172500750Y-49477766D01*
X172313960Y-49477766D01*
X172313960Y-48060947D01*
X184887159Y-48060947D01*
X185010625Y-48359756D01*
X185239041Y-48588572D01*
X185239381Y-48588713D01*
X188225334Y-51574666D01*
X188488993Y-51750837D01*
X188800000Y-51812700D01*
X188976506Y-51812700D01*
X188976506Y-51999490D01*
X189012256Y-52189485D01*
X189124543Y-52363984D01*
X189295873Y-52481049D01*
X189499250Y-52522234D01*
X190939523Y-52522234D01*
X191005903Y-52603448D01*
X191189384Y-52700366D01*
X191396115Y-52718264D01*
X194896235Y-52319484D01*
X195027055Y-52287094D01*
X195201554Y-52174807D01*
X195318619Y-52003477D01*
X195359804Y-51800100D01*
X195359804Y-51241300D01*
X195632039Y-51241300D01*
X195632039Y-51800100D01*
X195649683Y-51935831D01*
X195742927Y-52124823D01*
X195902354Y-52262648D01*
X196102842Y-52327588D01*
X197671700Y-52506333D01*
X197671700Y-51241300D01*
X198154300Y-51241300D01*
X198154300Y-52561317D01*
X199602962Y-52726368D01*
X199856020Y-52693473D01*
X200033242Y-52579434D01*
X200073721Y-52520190D01*
X200129785Y-52520190D01*
X200259960Y-52390015D01*
X200259960Y-51241300D01*
X200742560Y-51241300D01*
X200742560Y-52390015D01*
X200872735Y-52520190D01*
X201604324Y-52520190D01*
X201795703Y-52440918D01*
X201942178Y-52294443D01*
X202021450Y-52103063D01*
X202021450Y-51371475D01*
X201891275Y-51241300D01*
X200742560Y-51241300D01*
X200259960Y-51241300D01*
X198154300Y-51241300D01*
X197671700Y-51241300D01*
X195632039Y-51241300D01*
X195359804Y-51241300D01*
X195359804Y-50199900D01*
X195632039Y-50199900D01*
X195632039Y-50758700D01*
X197671700Y-50758700D01*
X197671700Y-49493667D01*
X196102842Y-49672412D01*
X195969980Y-49705307D01*
X195792758Y-49819346D01*
X195673867Y-49993350D01*
X195632039Y-50199900D01*
X195359804Y-50199900D01*
X195342431Y-50066254D01*
X195250619Y-49880166D01*
X195093642Y-49744459D01*
X194896235Y-49680516D01*
X192773650Y-49438683D01*
X198154300Y-49438683D01*
X198154300Y-50758700D01*
X200259960Y-50758700D01*
X200259960Y-49609985D01*
X200742560Y-49609985D01*
X200742560Y-50758700D01*
X201891275Y-50758700D01*
X202021450Y-50628525D01*
X202021450Y-49896937D01*
X201942178Y-49705557D01*
X201795703Y-49559082D01*
X201701351Y-49520000D01*
X209223737Y-49520000D01*
X209328502Y-50046687D01*
X209626846Y-50493191D01*
X210071053Y-50790000D01*
X209626846Y-51086809D01*
X209328502Y-51533313D01*
X209223737Y-52060000D01*
X209328502Y-52586687D01*
X209626846Y-53033191D01*
X210071053Y-53330000D01*
X209626846Y-53626809D01*
X209328502Y-54073313D01*
X209223737Y-54600000D01*
X209328502Y-55126687D01*
X209626846Y-55573191D01*
X210073350Y-55871535D01*
X210600037Y-55976300D01*
X210653963Y-55976300D01*
X211180650Y-55871535D01*
X211627154Y-55573191D01*
X211897000Y-55169337D01*
X212166846Y-55573191D01*
X212613350Y-55871535D01*
X213140037Y-55976300D01*
X213193963Y-55976300D01*
X213720650Y-55871535D01*
X214167154Y-55573191D01*
X214465498Y-55126687D01*
X214570263Y-54600000D01*
X214465498Y-54073313D01*
X214167154Y-53626809D01*
X213722947Y-53330000D01*
X214167154Y-53033191D01*
X214465498Y-52586687D01*
X214570263Y-52060000D01*
X214465498Y-51533313D01*
X214167154Y-51086809D01*
X213722947Y-50790000D01*
X214167154Y-50493191D01*
X214465498Y-50046687D01*
X214570263Y-49520000D01*
X214465498Y-48993313D01*
X214167154Y-48546809D01*
X213720650Y-48248465D01*
X213193963Y-48143700D01*
X213140037Y-48143700D01*
X212613350Y-48248465D01*
X212166846Y-48546809D01*
X211897000Y-48950663D01*
X211627154Y-48546809D01*
X211180650Y-48248465D01*
X210653963Y-48143700D01*
X210600037Y-48143700D01*
X210073350Y-48248465D01*
X209626846Y-48546809D01*
X209328502Y-48993313D01*
X209223737Y-49520000D01*
X201701351Y-49520000D01*
X201604324Y-49479810D01*
X200872735Y-49479810D01*
X200742560Y-49609985D01*
X200259960Y-49609985D01*
X200129785Y-49479810D01*
X200072473Y-49479810D01*
X199999263Y-49390239D01*
X199812919Y-49291809D01*
X199602962Y-49273632D01*
X198154300Y-49438683D01*
X192773650Y-49438683D01*
X191396115Y-49281736D01*
X191146945Y-49314126D01*
X190972446Y-49426413D01*
X190937358Y-49477766D01*
X189499250Y-49477766D01*
X189309255Y-49513516D01*
X189134756Y-49625803D01*
X189017691Y-49797133D01*
X188976506Y-50000510D01*
X188976506Y-50027174D01*
X186274666Y-47325334D01*
X186160959Y-47211428D01*
X185862365Y-47087441D01*
X185539053Y-47087159D01*
X185240244Y-47210625D01*
X185011428Y-47439041D01*
X184887441Y-47737635D01*
X184887159Y-48060947D01*
X172313960Y-48060947D01*
X172313960Y-45000000D01*
X174100808Y-45000000D01*
X174204537Y-45521483D01*
X174499934Y-45963574D01*
X174942025Y-46258971D01*
X175463508Y-46362700D01*
X176536492Y-46362700D01*
X177057975Y-46258971D01*
X177500066Y-45963574D01*
X177795463Y-45521483D01*
X177899192Y-45000000D01*
X182100808Y-45000000D01*
X182204537Y-45521483D01*
X182499934Y-45963574D01*
X182942025Y-46258971D01*
X183463508Y-46362700D01*
X184536492Y-46362700D01*
X185057975Y-46258971D01*
X185500066Y-45963574D01*
X185795463Y-45521483D01*
X185899192Y-45000000D01*
X190100808Y-45000000D01*
X190204537Y-45521483D01*
X190499934Y-45963574D01*
X190942025Y-46258971D01*
X191463508Y-46362700D01*
X192536492Y-46362700D01*
X193057975Y-46258971D01*
X193500066Y-45963574D01*
X193795463Y-45521483D01*
X193899192Y-45000000D01*
X198100808Y-45000000D01*
X198204537Y-45521483D01*
X198499934Y-45963574D01*
X198942025Y-46258971D01*
X199463508Y-46362700D01*
X200536492Y-46362700D01*
X201057975Y-46258971D01*
X201500066Y-45963574D01*
X201795463Y-45521483D01*
X201899192Y-45000000D01*
X206100808Y-45000000D01*
X206204537Y-45521483D01*
X206499934Y-45963574D01*
X206942025Y-46258971D01*
X207463508Y-46362700D01*
X208536492Y-46362700D01*
X209057975Y-46258971D01*
X209500066Y-45963574D01*
X209795463Y-45521483D01*
X209899192Y-45000000D01*
X209795463Y-44478517D01*
X209500066Y-44036426D01*
X209057975Y-43741029D01*
X208940706Y-43717703D01*
X209092784Y-43616087D01*
X209312310Y-43287544D01*
X209389397Y-42900000D01*
X209312310Y-42512456D01*
X209092784Y-42183913D01*
X208764241Y-41964387D01*
X208503570Y-41912537D01*
X208797298Y-41837963D01*
X209122192Y-41595391D01*
X209291810Y-41293476D01*
X209207210Y-41141300D01*
X208241300Y-41141300D01*
X208241300Y-41161300D01*
X207758700Y-41161300D01*
X207758700Y-41141300D01*
X206792790Y-41141300D01*
X206708190Y-41293476D01*
X206877808Y-41595391D01*
X207202702Y-41837963D01*
X207496430Y-41912537D01*
X207235759Y-41964387D01*
X206907216Y-42183913D01*
X206687690Y-42512456D01*
X206610603Y-42900000D01*
X206687690Y-43287544D01*
X206907216Y-43616087D01*
X207059294Y-43717703D01*
X206942025Y-43741029D01*
X206499934Y-44036426D01*
X206204537Y-44478517D01*
X206100808Y-45000000D01*
X201899192Y-45000000D01*
X201795463Y-44478517D01*
X201500066Y-44036426D01*
X201057975Y-43741029D01*
X200940706Y-43717703D01*
X201092784Y-43616087D01*
X201312310Y-43287544D01*
X201389397Y-42900000D01*
X201312310Y-42512456D01*
X201092784Y-42183913D01*
X200764241Y-41964387D01*
X200503570Y-41912537D01*
X200797298Y-41837963D01*
X201122192Y-41595391D01*
X201291810Y-41293476D01*
X201207210Y-41141300D01*
X200241300Y-41141300D01*
X200241300Y-41161300D01*
X199758700Y-41161300D01*
X199758700Y-41141300D01*
X198792790Y-41141300D01*
X198708190Y-41293476D01*
X198877808Y-41595391D01*
X199202702Y-41837963D01*
X199496430Y-41912537D01*
X199235759Y-41964387D01*
X198907216Y-42183913D01*
X198687690Y-42512456D01*
X198610603Y-42900000D01*
X198687690Y-43287544D01*
X198907216Y-43616087D01*
X199059294Y-43717703D01*
X198942025Y-43741029D01*
X198499934Y-44036426D01*
X198204537Y-44478517D01*
X198100808Y-45000000D01*
X193899192Y-45000000D01*
X193795463Y-44478517D01*
X193500066Y-44036426D01*
X193057975Y-43741029D01*
X192940706Y-43717703D01*
X193092784Y-43616087D01*
X193312310Y-43287544D01*
X193389397Y-42900000D01*
X193312310Y-42512456D01*
X193092784Y-42183913D01*
X192764241Y-41964387D01*
X192503570Y-41912537D01*
X192797298Y-41837963D01*
X193122192Y-41595391D01*
X193291810Y-41293476D01*
X193207210Y-41141300D01*
X192241300Y-41141300D01*
X192241300Y-41161300D01*
X191758700Y-41161300D01*
X191758700Y-41141300D01*
X190792790Y-41141300D01*
X190708190Y-41293476D01*
X190877808Y-41595391D01*
X191202702Y-41837963D01*
X191496430Y-41912537D01*
X191235759Y-41964387D01*
X190907216Y-42183913D01*
X190687690Y-42512456D01*
X190610603Y-42900000D01*
X190687690Y-43287544D01*
X190907216Y-43616087D01*
X191059294Y-43717703D01*
X190942025Y-43741029D01*
X190499934Y-44036426D01*
X190204537Y-44478517D01*
X190100808Y-45000000D01*
X185899192Y-45000000D01*
X185795463Y-44478517D01*
X185500066Y-44036426D01*
X185057975Y-43741029D01*
X184940706Y-43717703D01*
X185092784Y-43616087D01*
X185312310Y-43287544D01*
X185389397Y-42900000D01*
X185312310Y-42512456D01*
X185092784Y-42183913D01*
X184764241Y-41964387D01*
X184503570Y-41912537D01*
X184797298Y-41837963D01*
X185122192Y-41595391D01*
X185291810Y-41293476D01*
X185207210Y-41141300D01*
X184241300Y-41141300D01*
X184241300Y-41161300D01*
X183758700Y-41161300D01*
X183758700Y-41141300D01*
X182792790Y-41141300D01*
X182708190Y-41293476D01*
X182877808Y-41595391D01*
X183202702Y-41837963D01*
X183496430Y-41912537D01*
X183235759Y-41964387D01*
X182907216Y-42183913D01*
X182687690Y-42512456D01*
X182610603Y-42900000D01*
X182687690Y-43287544D01*
X182907216Y-43616087D01*
X183059294Y-43717703D01*
X182942025Y-43741029D01*
X182499934Y-44036426D01*
X182204537Y-44478517D01*
X182100808Y-45000000D01*
X177899192Y-45000000D01*
X177795463Y-44478517D01*
X177500066Y-44036426D01*
X177057975Y-43741029D01*
X176940706Y-43717703D01*
X177092784Y-43616087D01*
X177312310Y-43287544D01*
X177389397Y-42900000D01*
X177312310Y-42512456D01*
X177092784Y-42183913D01*
X176764241Y-41964387D01*
X176503570Y-41912537D01*
X176797298Y-41837963D01*
X177122192Y-41595391D01*
X177291810Y-41293476D01*
X177207210Y-41141300D01*
X176241300Y-41141300D01*
X176241300Y-41161300D01*
X175758700Y-41161300D01*
X175758700Y-41141300D01*
X174792790Y-41141300D01*
X174708190Y-41293476D01*
X174877808Y-41595391D01*
X175202702Y-41837963D01*
X175496430Y-41912537D01*
X175235759Y-41964387D01*
X174907216Y-42183913D01*
X174687690Y-42512456D01*
X174610603Y-42900000D01*
X174687690Y-43287544D01*
X174907216Y-43616087D01*
X175059294Y-43717703D01*
X174942025Y-43741029D01*
X174499934Y-44036426D01*
X174204537Y-44478517D01*
X174100808Y-45000000D01*
X172313960Y-45000000D01*
X172313960Y-37948919D01*
X172587635Y-38062559D01*
X172910947Y-38062841D01*
X173209756Y-37939375D01*
X173438572Y-37710959D01*
X173438713Y-37710619D01*
X174142041Y-37007291D01*
X174204537Y-37321483D01*
X174499934Y-37763574D01*
X174942025Y-38058971D01*
X175059294Y-38082297D01*
X174907216Y-38183913D01*
X174687690Y-38512456D01*
X174610603Y-38900000D01*
X174687690Y-39287544D01*
X174907216Y-39616087D01*
X175235759Y-39835613D01*
X175496430Y-39887463D01*
X175202702Y-39962037D01*
X174877808Y-40204609D01*
X174708190Y-40506524D01*
X174792790Y-40658700D01*
X175758700Y-40658700D01*
X175758700Y-40638700D01*
X176241300Y-40638700D01*
X176241300Y-40658700D01*
X177207210Y-40658700D01*
X177291810Y-40506524D01*
X177122192Y-40204609D01*
X176797298Y-39962037D01*
X176503570Y-39887463D01*
X176764241Y-39835613D01*
X176948193Y-39712700D01*
X179100000Y-39712700D01*
X179411007Y-39650837D01*
X179674666Y-39474666D01*
X182142041Y-37007291D01*
X182204537Y-37321483D01*
X182499934Y-37763574D01*
X182942025Y-38058971D01*
X183059294Y-38082297D01*
X182907216Y-38183913D01*
X182687690Y-38512456D01*
X182610603Y-38900000D01*
X182687690Y-39287544D01*
X182907216Y-39616087D01*
X183235759Y-39835613D01*
X183496430Y-39887463D01*
X183202702Y-39962037D01*
X182877808Y-40204609D01*
X182708190Y-40506524D01*
X182792790Y-40658700D01*
X183758700Y-40658700D01*
X183758700Y-40638700D01*
X184241300Y-40638700D01*
X184241300Y-40658700D01*
X185207210Y-40658700D01*
X185291810Y-40506524D01*
X185122192Y-40204609D01*
X184797298Y-39962037D01*
X184503570Y-39887463D01*
X184764241Y-39835613D01*
X184948193Y-39712700D01*
X186600000Y-39712700D01*
X186911007Y-39650837D01*
X187174666Y-39474666D01*
X190163250Y-36486082D01*
X190100808Y-36800000D01*
X190204537Y-37321483D01*
X190499934Y-37763574D01*
X190942025Y-38058971D01*
X191059294Y-38082297D01*
X190907216Y-38183913D01*
X190687690Y-38512456D01*
X190610603Y-38900000D01*
X190687690Y-39287544D01*
X190907216Y-39616087D01*
X191235759Y-39835613D01*
X191496430Y-39887463D01*
X191202702Y-39962037D01*
X190877808Y-40204609D01*
X190708190Y-40506524D01*
X190792790Y-40658700D01*
X191758700Y-40658700D01*
X191758700Y-40638700D01*
X192241300Y-40638700D01*
X192241300Y-40658700D01*
X193207210Y-40658700D01*
X193291810Y-40506524D01*
X193122192Y-40204609D01*
X192797298Y-39962037D01*
X192503570Y-39887463D01*
X192764241Y-39835613D01*
X192948193Y-39712700D01*
X195100000Y-39712700D01*
X195411007Y-39650837D01*
X195674666Y-39474666D01*
X198142041Y-37007291D01*
X198204537Y-37321483D01*
X198499934Y-37763574D01*
X198942025Y-38058971D01*
X199059294Y-38082297D01*
X198907216Y-38183913D01*
X198687690Y-38512456D01*
X198610603Y-38900000D01*
X198687690Y-39287544D01*
X198907216Y-39616087D01*
X199235759Y-39835613D01*
X199496430Y-39887463D01*
X199202702Y-39962037D01*
X198877808Y-40204609D01*
X198708190Y-40506524D01*
X198792790Y-40658700D01*
X199758700Y-40658700D01*
X199758700Y-40638700D01*
X200241300Y-40638700D01*
X200241300Y-40658700D01*
X201207210Y-40658700D01*
X201291810Y-40506524D01*
X201122192Y-40204609D01*
X200797298Y-39962037D01*
X200503570Y-39887463D01*
X200764241Y-39835613D01*
X200948193Y-39712700D01*
X201600000Y-39712700D01*
X201911007Y-39650837D01*
X202174666Y-39474666D01*
X203454663Y-38194668D01*
X203454666Y-38194666D01*
X203630837Y-37931007D01*
X203692700Y-37620000D01*
X203692700Y-30298444D01*
X203880154Y-30173191D01*
X204150000Y-29769337D01*
X204419846Y-30173191D01*
X204687300Y-30351898D01*
X204687300Y-38000000D01*
X204749163Y-38311007D01*
X204925334Y-38574666D01*
X205825334Y-39474666D01*
X206088993Y-39650837D01*
X206400000Y-39712700D01*
X207051807Y-39712700D01*
X207235759Y-39835613D01*
X207496430Y-39887463D01*
X207202702Y-39962037D01*
X206877808Y-40204609D01*
X206708190Y-40506524D01*
X206792790Y-40658700D01*
X207758700Y-40658700D01*
X207758700Y-40638700D01*
X208241300Y-40638700D01*
X208241300Y-40658700D01*
X209207210Y-40658700D01*
X209291810Y-40506524D01*
X209122192Y-40204609D01*
X208797298Y-39962037D01*
X208503570Y-39887463D01*
X208764241Y-39835613D01*
X209092784Y-39616087D01*
X209312310Y-39287544D01*
X209389397Y-38900000D01*
X209312310Y-38512456D01*
X209092784Y-38183913D01*
X208940706Y-38082297D01*
X209057975Y-38058971D01*
X209500066Y-37763574D01*
X209795463Y-37321483D01*
X209899192Y-36800000D01*
X209795463Y-36278517D01*
X209500066Y-35836426D01*
X209057975Y-35541029D01*
X208536492Y-35437300D01*
X207463508Y-35437300D01*
X206942025Y-35541029D01*
X206499934Y-35836426D01*
X206312700Y-36116640D01*
X206312700Y-30244989D01*
X206420154Y-30173191D01*
X206690000Y-29769337D01*
X206959846Y-30173191D01*
X207406350Y-30471535D01*
X207933037Y-30576300D01*
X207986963Y-30576300D01*
X208513650Y-30471535D01*
X208960154Y-30173191D01*
X209230000Y-29769337D01*
X209499846Y-30173191D01*
X209946350Y-30471535D01*
X210473037Y-30576300D01*
X210526963Y-30576300D01*
X211053650Y-30471535D01*
X211500154Y-30173191D01*
X211798498Y-29726687D01*
X211903263Y-29200000D01*
X211798498Y-28673313D01*
X211500154Y-28226809D01*
X211053650Y-27928465D01*
X210526963Y-27823700D01*
X210473037Y-27823700D01*
X209946350Y-27928465D01*
X209499846Y-28226809D01*
X209230000Y-28630663D01*
X208960154Y-28226809D01*
X208513650Y-27928465D01*
X207986963Y-27823700D01*
X207933037Y-27823700D01*
X207406350Y-27928465D01*
X206959846Y-28226809D01*
X206690000Y-28630663D01*
X206420154Y-28226809D01*
X205973650Y-27928465D01*
X205446963Y-27823700D01*
X205393037Y-27823700D01*
X204866350Y-27928465D01*
X204419846Y-28226809D01*
X204150000Y-28630663D01*
X203880154Y-28226809D01*
X203433650Y-27928465D01*
X202906963Y-27823700D01*
X202853037Y-27823700D01*
X202326350Y-27928465D01*
X201879846Y-28226809D01*
X201610000Y-28630663D01*
X201340154Y-28226809D01*
X200893650Y-27928465D01*
X200366963Y-27823700D01*
X200313037Y-27823700D01*
X199786350Y-27928465D01*
X199339846Y-28226809D01*
X199070000Y-28630663D01*
X198800154Y-28226809D01*
X198353650Y-27928465D01*
X197826963Y-27823700D01*
X197773037Y-27823700D01*
X197246350Y-27928465D01*
X196799846Y-28226809D01*
X196530000Y-28630663D01*
X196260154Y-28226809D01*
X195813650Y-27928465D01*
X195286963Y-27823700D01*
X195233037Y-27823700D01*
X194706350Y-27928465D01*
X194259846Y-28226809D01*
X193990000Y-28630663D01*
X193720154Y-28226809D01*
X193273650Y-27928465D01*
X192746963Y-27823700D01*
X192693037Y-27823700D01*
X192166350Y-27928465D01*
X191719846Y-28226809D01*
X191421502Y-28673313D01*
X191316737Y-29200000D01*
X191421502Y-29726687D01*
X191719846Y-30173191D01*
X191907300Y-30298444D01*
X191907300Y-31193368D01*
X190913368Y-32187300D01*
X188462032Y-32187300D01*
X189230666Y-31418666D01*
X189406837Y-31155007D01*
X189468701Y-30844000D01*
X189468700Y-30843995D01*
X189468700Y-30298444D01*
X189656154Y-30173191D01*
X189954498Y-29726687D01*
X190059263Y-29200000D01*
X189954498Y-28673313D01*
X189656154Y-28226809D01*
X189209650Y-27928465D01*
X188682963Y-27823700D01*
X188629037Y-27823700D01*
X188102350Y-27928465D01*
X187655846Y-28226809D01*
X187386000Y-28630663D01*
X187116154Y-28226809D01*
X186669650Y-27928465D01*
X186142963Y-27823700D01*
X186089037Y-27823700D01*
X185562350Y-27928465D01*
X185115846Y-28226809D01*
X184846000Y-28630663D01*
X184576154Y-28226809D01*
X184129650Y-27928465D01*
X183602963Y-27823700D01*
X183549037Y-27823700D01*
X183022350Y-27928465D01*
X182575846Y-28226809D01*
X182306000Y-28630663D01*
X182036154Y-28226809D01*
X181589650Y-27928465D01*
X181062963Y-27823700D01*
X181009037Y-27823700D01*
X180482350Y-27928465D01*
X180035846Y-28226809D01*
X179766000Y-28630663D01*
X179496154Y-28226809D01*
X179049650Y-27928465D01*
X178522963Y-27823700D01*
X178469037Y-27823700D01*
X177942350Y-27928465D01*
X177495846Y-28226809D01*
X177226000Y-28630663D01*
X176956154Y-28226809D01*
X176509650Y-27928465D01*
X175982963Y-27823700D01*
X175929037Y-27823700D01*
X175402350Y-27928465D01*
X174955846Y-28226809D01*
X174679709Y-28640077D01*
X174660626Y-28593990D01*
X174333974Y-28163822D01*
X173867569Y-27891403D01*
X173657300Y-27967048D01*
X173657300Y-28958700D01*
X173677300Y-28958700D01*
X173677300Y-29441300D01*
X173657300Y-29441300D01*
X173657300Y-29461300D01*
X173174700Y-29461300D01*
X173174700Y-29441300D01*
X173154700Y-29441300D01*
X173154700Y-28958700D01*
X173174700Y-28958700D01*
X173174700Y-27967048D01*
X172964431Y-27891403D01*
X172498026Y-28163822D01*
X172171374Y-28593990D01*
X172152291Y-28640077D01*
X171876154Y-28226809D01*
X171429650Y-27928465D01*
X170902963Y-27823700D01*
X170849037Y-27823700D01*
X170322350Y-27928465D01*
X169875846Y-28226809D01*
X169606000Y-28630663D01*
X169336154Y-28226809D01*
X168889650Y-27928465D01*
X168362963Y-27823700D01*
X168309037Y-27823700D01*
X167782350Y-27928465D01*
X167335846Y-28226809D01*
X167066000Y-28630663D01*
X166796154Y-28226809D01*
X166349650Y-27928465D01*
X165822963Y-27823700D01*
X165769037Y-27823700D01*
X165242350Y-27928465D01*
X164795846Y-28226809D01*
X164497502Y-28673313D01*
X164392737Y-29200000D01*
X164497502Y-29726687D01*
X164795846Y-30173191D01*
X165242350Y-30471535D01*
X165769037Y-30576300D01*
X165822963Y-30576300D01*
X166349650Y-30471535D01*
X166796154Y-30173191D01*
X167066000Y-29769337D01*
X167335846Y-30173191D01*
X167782350Y-30471535D01*
X168309037Y-30576300D01*
X168362963Y-30576300D01*
X168889650Y-30471535D01*
X169336154Y-30173191D01*
X169606000Y-29769337D01*
X169875846Y-30173191D01*
X170322350Y-30471535D01*
X170849037Y-30576300D01*
X170902963Y-30576300D01*
X171429650Y-30471535D01*
X171876154Y-30173191D01*
X172152291Y-29759923D01*
X172171374Y-29806010D01*
X172498026Y-30236178D01*
X172887188Y-30463481D01*
X172413368Y-30937300D01*
X163490085Y-30937300D01*
X164030015Y-30398311D01*
X164352332Y-29622086D01*
X164353066Y-28781602D01*
X164032104Y-28004815D01*
X163438311Y-27409985D01*
X163083610Y-27262700D01*
X211281566Y-27262700D01*
X212437300Y-28418433D01*
G36*
X161044815Y-27407896D02*
X160449985Y-28001689D01*
X160127668Y-28777914D01*
X160126934Y-29618398D01*
X160447896Y-30395185D01*
X160989066Y-30937300D01*
X155086632Y-30937300D01*
X154952871Y-30803539D01*
X154952944Y-30720230D01*
X154738327Y-30200815D01*
X154341275Y-29803070D01*
X153822236Y-29587546D01*
X153260230Y-29587056D01*
X152740815Y-29801673D01*
X152422744Y-30119190D01*
X152422744Y-30100000D01*
X152386994Y-29910005D01*
X152274707Y-29735506D01*
X152103377Y-29618441D01*
X151900000Y-29577256D01*
X150100000Y-29577256D01*
X149910005Y-29613006D01*
X149735506Y-29725293D01*
X149618441Y-29896623D01*
X149577256Y-30100000D01*
X149577256Y-31900000D01*
X149613006Y-32089995D01*
X149725293Y-32264494D01*
X149896623Y-32381559D01*
X150100000Y-32422744D01*
X151900000Y-32422744D01*
X152089995Y-32386994D01*
X152264494Y-32274707D01*
X152381559Y-32103377D01*
X152422744Y-31900000D01*
X152422744Y-31880397D01*
X152738725Y-32196930D01*
X153031972Y-32318697D01*
X152663368Y-32687300D01*
X151100000Y-32687300D01*
X150788993Y-32749163D01*
X150525334Y-32925334D01*
X150525332Y-32925337D01*
X148425334Y-35025334D01*
X148249163Y-35288993D01*
X148187300Y-35600000D01*
X148187300Y-54627256D01*
X148150000Y-54627256D01*
X147960005Y-54663006D01*
X147785506Y-54775293D01*
X147668441Y-54946623D01*
X147627256Y-55150000D01*
X147627256Y-56850000D01*
X147663006Y-57039995D01*
X147775293Y-57214494D01*
X147946623Y-57331559D01*
X148150000Y-57372744D01*
X148332841Y-57372744D01*
X148089244Y-57515599D01*
X147766550Y-57942108D01*
X147705067Y-58090595D01*
X147783169Y-58298700D01*
X148758700Y-58298700D01*
X148758700Y-58278700D01*
X149241300Y-58278700D01*
X149241300Y-58298700D01*
X150216831Y-58298700D01*
X150294933Y-58090595D01*
X150233450Y-57942108D01*
X149910756Y-57515599D01*
X149667159Y-57372744D01*
X149850000Y-57372744D01*
X150039995Y-57336994D01*
X150214494Y-57224707D01*
X150331559Y-57053377D01*
X150372744Y-56850000D01*
X150372744Y-55150000D01*
X150336994Y-54960005D01*
X150224707Y-54785506D01*
X150053377Y-54668441D01*
X149850000Y-54627256D01*
X149812700Y-54627256D01*
X149812700Y-52144924D01*
X149825293Y-52164494D01*
X149996623Y-52281559D01*
X150187300Y-52320172D01*
X150187300Y-54225000D01*
X150249163Y-54536007D01*
X150425334Y-54799666D01*
X155912300Y-60286631D01*
X155912300Y-66077256D01*
X155225000Y-66077256D01*
X155035005Y-66113006D01*
X154860506Y-66225293D01*
X154743441Y-66396623D01*
X154702256Y-66600000D01*
X154702256Y-68723413D01*
X149848412Y-73577256D01*
X147725000Y-73577256D01*
X147587700Y-73603091D01*
X147587700Y-62600000D01*
X150452256Y-62600000D01*
X150452256Y-65600000D01*
X150488006Y-65789995D01*
X150600293Y-65964494D01*
X150771623Y-66081559D01*
X150975000Y-66122744D01*
X153475000Y-66122744D01*
X153664995Y-66086994D01*
X153839494Y-65974707D01*
X153956559Y-65803377D01*
X153997744Y-65600000D01*
X153997744Y-62600000D01*
X153961994Y-62410005D01*
X153849707Y-62235506D01*
X153678377Y-62118441D01*
X153475000Y-62077256D01*
X150975000Y-62077256D01*
X150785005Y-62113006D01*
X150610506Y-62225293D01*
X150493441Y-62396623D01*
X150452256Y-62600000D01*
X147587700Y-62600000D01*
X147587700Y-58989405D01*
X147705067Y-58989405D01*
X147766550Y-59137892D01*
X148089244Y-59564401D01*
X148550592Y-59834954D01*
X148758700Y-59759139D01*
X148758700Y-58781300D01*
X149241300Y-58781300D01*
X149241300Y-59759139D01*
X149449408Y-59834954D01*
X149910756Y-59564401D01*
X150233450Y-59137892D01*
X150294933Y-58989405D01*
X150216831Y-58781300D01*
X149241300Y-58781300D01*
X148758700Y-58781300D01*
X147783169Y-58781300D01*
X147705067Y-58989405D01*
X147587700Y-58989405D01*
X147587700Y-27299524D01*
X147604482Y-27274408D01*
X147622000Y-27262700D01*
X161396216Y-27262700D01*
X161044815Y-27407896D01*
X161044815Y-27407896D01*
G37*
X161044815Y-27407896D02*
X160449985Y-28001689D01*
X160127668Y-28777914D01*
X160126934Y-29618398D01*
X160447896Y-30395185D01*
X160989066Y-30937300D01*
X155086632Y-30937300D01*
X154952871Y-30803539D01*
X154952944Y-30720230D01*
X154738327Y-30200815D01*
X154341275Y-29803070D01*
X153822236Y-29587546D01*
X153260230Y-29587056D01*
X152740815Y-29801673D01*
X152422744Y-30119190D01*
X152422744Y-30100000D01*
X152386994Y-29910005D01*
X152274707Y-29735506D01*
X152103377Y-29618441D01*
X151900000Y-29577256D01*
X150100000Y-29577256D01*
X149910005Y-29613006D01*
X149735506Y-29725293D01*
X149618441Y-29896623D01*
X149577256Y-30100000D01*
X149577256Y-31900000D01*
X149613006Y-32089995D01*
X149725293Y-32264494D01*
X149896623Y-32381559D01*
X150100000Y-32422744D01*
X151900000Y-32422744D01*
X152089995Y-32386994D01*
X152264494Y-32274707D01*
X152381559Y-32103377D01*
X152422744Y-31900000D01*
X152422744Y-31880397D01*
X152738725Y-32196930D01*
X153031972Y-32318697D01*
X152663368Y-32687300D01*
X151100000Y-32687300D01*
X150788993Y-32749163D01*
X150525334Y-32925334D01*
X150525332Y-32925337D01*
X148425334Y-35025334D01*
X148249163Y-35288993D01*
X148187300Y-35600000D01*
X148187300Y-54627256D01*
X148150000Y-54627256D01*
X147960005Y-54663006D01*
X147785506Y-54775293D01*
X147668441Y-54946623D01*
X147627256Y-55150000D01*
X147627256Y-56850000D01*
X147663006Y-57039995D01*
X147775293Y-57214494D01*
X147946623Y-57331559D01*
X148150000Y-57372744D01*
X148332841Y-57372744D01*
X148089244Y-57515599D01*
X147766550Y-57942108D01*
X147705067Y-58090595D01*
X147783169Y-58298700D01*
X148758700Y-58298700D01*
X148758700Y-58278700D01*
X149241300Y-58278700D01*
X149241300Y-58298700D01*
X150216831Y-58298700D01*
X150294933Y-58090595D01*
X150233450Y-57942108D01*
X149910756Y-57515599D01*
X149667159Y-57372744D01*
X149850000Y-57372744D01*
X150039995Y-57336994D01*
X150214494Y-57224707D01*
X150331559Y-57053377D01*
X150372744Y-56850000D01*
X150372744Y-55150000D01*
X150336994Y-54960005D01*
X150224707Y-54785506D01*
X150053377Y-54668441D01*
X149850000Y-54627256D01*
X149812700Y-54627256D01*
X149812700Y-52144924D01*
X149825293Y-52164494D01*
X149996623Y-52281559D01*
X150187300Y-52320172D01*
X150187300Y-54225000D01*
X150249163Y-54536007D01*
X150425334Y-54799666D01*
X155912300Y-60286631D01*
X155912300Y-66077256D01*
X155225000Y-66077256D01*
X155035005Y-66113006D01*
X154860506Y-66225293D01*
X154743441Y-66396623D01*
X154702256Y-66600000D01*
X154702256Y-68723413D01*
X149848412Y-73577256D01*
X147725000Y-73577256D01*
X147587700Y-73603091D01*
X147587700Y-62600000D01*
X150452256Y-62600000D01*
X150452256Y-65600000D01*
X150488006Y-65789995D01*
X150600293Y-65964494D01*
X150771623Y-66081559D01*
X150975000Y-66122744D01*
X153475000Y-66122744D01*
X153664995Y-66086994D01*
X153839494Y-65974707D01*
X153956559Y-65803377D01*
X153997744Y-65600000D01*
X153997744Y-62600000D01*
X153961994Y-62410005D01*
X153849707Y-62235506D01*
X153678377Y-62118441D01*
X153475000Y-62077256D01*
X150975000Y-62077256D01*
X150785005Y-62113006D01*
X150610506Y-62225293D01*
X150493441Y-62396623D01*
X150452256Y-62600000D01*
X147587700Y-62600000D01*
X147587700Y-58989405D01*
X147705067Y-58989405D01*
X147766550Y-59137892D01*
X148089244Y-59564401D01*
X148550592Y-59834954D01*
X148758700Y-59759139D01*
X148758700Y-58781300D01*
X149241300Y-58781300D01*
X149241300Y-59759139D01*
X149449408Y-59834954D01*
X149910756Y-59564401D01*
X150233450Y-59137892D01*
X150294933Y-58989405D01*
X150216831Y-58781300D01*
X149241300Y-58781300D01*
X148758700Y-58781300D01*
X147783169Y-58781300D01*
X147705067Y-58989405D01*
X147587700Y-58989405D01*
X147587700Y-27299524D01*
X147604482Y-27274408D01*
X147622000Y-27262700D01*
X161396216Y-27262700D01*
X161044815Y-27407896D01*
M02*
