G04 #@! TF.FileFunction,Soldermask,Top*
%FSLAX46Y46*%
G04 Gerber Fmt 4.6, Leading zero omitted, Abs format (unit mm)*
G04 Created by KiCad (PCBNEW 4.0.7) date Sunday, 25 '25e' March '25e' 2018, 13:05:41*
%MOMM*%
%LPD*%
G01*
G04 APERTURE LIST*
%ADD10C,0.100000*%
%ADD11C,0.010000*%
%ADD12R,2.000000X2.000000*%
%ADD13C,2.000000*%
%ADD14R,2.200000X2.200000*%
%ADD15C,2.200000*%
%ADD16R,3.400000X2.900000*%
%ADD17R,2.900000X3.400000*%
%ADD18R,2.100000X2.100000*%
%ADD19O,2.100000X2.100000*%
%ADD20R,2.398980X2.398980*%
%ADD21C,4.400000*%
%ADD22O,2.127200X2.127200*%
%ADD23C,3.600000*%
%ADD24O,3.100000X2.100000*%
%ADD25O,2.100000X1.400000*%
G04 APERTURE END LIST*
D10*
D11*
G36*
X175884229Y-55857740D02*
X176380490Y-55941754D01*
X176734839Y-56085595D01*
X176783640Y-56123549D01*
X176954901Y-56255466D01*
X177113644Y-56268183D01*
X177354865Y-56155076D01*
X177494232Y-56074000D01*
X177804890Y-55921806D01*
X178132693Y-55848573D01*
X178572950Y-55838383D01*
X178834435Y-55850199D01*
X179444932Y-55917167D01*
X179837191Y-56040604D01*
X179958640Y-56123549D01*
X180129901Y-56255466D01*
X180288644Y-56268183D01*
X180529865Y-56155076D01*
X180669232Y-56074000D01*
X180979890Y-55921806D01*
X181307693Y-55848573D01*
X181747950Y-55838383D01*
X182009435Y-55850199D01*
X182619932Y-55917167D01*
X183012191Y-56040604D01*
X183133640Y-56123549D01*
X183304901Y-56255466D01*
X183463644Y-56268183D01*
X183704865Y-56155076D01*
X183844232Y-56074000D01*
X184149176Y-55923757D01*
X184469622Y-55850155D01*
X184898587Y-55837956D01*
X185203803Y-55851293D01*
X186100079Y-55901937D01*
X188261171Y-58102235D01*
X188218335Y-59580391D01*
X188197405Y-60214969D01*
X188170453Y-60647876D01*
X188125788Y-60931379D01*
X188051717Y-61117743D01*
X187936549Y-61259236D01*
X187819168Y-61364773D01*
X187616773Y-61515480D01*
X187394678Y-61607040D01*
X187084551Y-61653746D01*
X186618057Y-61669893D01*
X186355176Y-61671000D01*
X185706275Y-61652823D01*
X185265326Y-61594146D01*
X184988606Y-61488750D01*
X184965258Y-61473298D01*
X184761403Y-61346592D01*
X184690154Y-61376415D01*
X184683000Y-61473298D01*
X184660764Y-61524079D01*
X184578712Y-61565468D01*
X184413831Y-61598402D01*
X184143103Y-61623817D01*
X183743516Y-61642647D01*
X183192052Y-61655829D01*
X182465697Y-61664299D01*
X181541437Y-61668992D01*
X180396255Y-61670844D01*
X179820475Y-61671000D01*
X174957951Y-61671000D01*
X174359475Y-61063387D01*
X173832139Y-60528000D01*
X174348478Y-60528000D01*
X174713500Y-60909000D01*
X175046328Y-61181518D01*
X175413057Y-61283406D01*
X175586521Y-61290000D01*
X176094521Y-61290000D01*
X175729500Y-60909000D01*
X175398788Y-60638214D01*
X176069696Y-60638214D01*
X176176197Y-60831262D01*
X176323137Y-60996064D01*
X176601603Y-61202393D01*
X176979008Y-61284130D01*
X177172398Y-61290000D01*
X177745521Y-61290000D01*
X177380500Y-60909000D01*
X177038980Y-60632504D01*
X176663621Y-60532395D01*
X176531239Y-60528000D01*
X177523478Y-60528000D01*
X177888500Y-60909000D01*
X178221328Y-61181518D01*
X178588057Y-61283406D01*
X178761521Y-61290000D01*
X179269521Y-61290000D01*
X178904500Y-60909000D01*
X178571671Y-60636481D01*
X178204942Y-60534593D01*
X178031478Y-60528000D01*
X179174478Y-60528000D01*
X179539500Y-60909000D01*
X179865112Y-61178159D01*
X180220793Y-61279360D01*
X180420510Y-61286277D01*
X180936500Y-61282554D01*
X180521746Y-60905277D01*
X180110872Y-60620504D01*
X179678097Y-60528427D01*
X179640735Y-60528000D01*
X180698478Y-60528000D01*
X181063500Y-60909000D01*
X181396328Y-61181518D01*
X181763057Y-61283406D01*
X181936521Y-61290000D01*
X182444521Y-61290000D01*
X182079500Y-60909000D01*
X181746671Y-60636481D01*
X181606693Y-60597591D01*
X182397000Y-60597591D01*
X182482957Y-60718845D01*
X182694890Y-60928618D01*
X182746250Y-60974578D01*
X183010384Y-61136859D01*
X183338671Y-61251688D01*
X183651308Y-61303555D01*
X183868495Y-61276946D01*
X183921000Y-61202935D01*
X183842420Y-61058611D01*
X183652582Y-60830187D01*
X183644862Y-60821935D01*
X183293719Y-60587536D01*
X182882862Y-60528000D01*
X182572879Y-60544107D01*
X182406176Y-60584136D01*
X182397000Y-60597591D01*
X181606693Y-60597591D01*
X181379942Y-60534593D01*
X181206478Y-60528000D01*
X180698478Y-60528000D01*
X179640735Y-60528000D01*
X179174478Y-60528000D01*
X178031478Y-60528000D01*
X177523478Y-60528000D01*
X176531239Y-60528000D01*
X176182581Y-60549411D01*
X176069696Y-60638214D01*
X175398788Y-60638214D01*
X175396671Y-60636481D01*
X175029942Y-60534593D01*
X174856478Y-60528000D01*
X174348478Y-60528000D01*
X173832139Y-60528000D01*
X173760999Y-60455775D01*
X173760999Y-60210500D01*
X183603500Y-60210500D01*
X183911387Y-60559750D01*
X184159598Y-60825139D01*
X184280120Y-60907539D01*
X184302000Y-60867637D01*
X184216805Y-60765535D01*
X184006507Y-60566271D01*
X183971901Y-60535445D01*
X184492500Y-60535445D01*
X184921110Y-60925103D01*
X185143448Y-61115653D01*
X185341394Y-61228195D01*
X185587374Y-61279570D01*
X185953811Y-61286618D01*
X186407068Y-61270630D01*
X186989586Y-61226563D01*
X187413313Y-61153731D01*
X187629458Y-61061399D01*
X187713773Y-60867768D01*
X187767206Y-60473684D01*
X187792042Y-59857699D01*
X187794500Y-59512703D01*
X187794500Y-58129107D01*
X186905500Y-57210007D01*
X186842000Y-58562586D01*
X186809975Y-59167792D01*
X186772352Y-59574980D01*
X186714999Y-59839989D01*
X186623786Y-60018656D01*
X186484582Y-60166820D01*
X186422168Y-60221582D01*
X186160349Y-60402847D01*
X185854869Y-60497270D01*
X185412373Y-60530180D01*
X185279168Y-60531722D01*
X184492500Y-60535445D01*
X183971901Y-60535445D01*
X183952750Y-60518387D01*
X183603500Y-60210500D01*
X173760999Y-60210500D01*
X173760999Y-58578538D01*
X173762702Y-58441571D01*
X174142000Y-58441571D01*
X174142000Y-60147000D01*
X175276681Y-60147000D01*
X175312590Y-58728598D01*
X175341339Y-58029294D01*
X175387636Y-57564137D01*
X175454048Y-57313718D01*
X175507250Y-57257514D01*
X175578681Y-57295971D01*
X175626582Y-57487615D01*
X175654362Y-57862899D01*
X175665429Y-58452277D01*
X175666000Y-58675916D01*
X175666000Y-60147000D01*
X176955679Y-60147000D01*
X176914209Y-58441571D01*
X177317000Y-58441571D01*
X177317000Y-60147000D01*
X177880453Y-60147000D01*
X178230357Y-60134530D01*
X178401011Y-60063894D01*
X178467028Y-59885249D01*
X178483703Y-59744030D01*
X178563063Y-59411121D01*
X178682266Y-59284719D01*
X178791501Y-59372089D01*
X178840960Y-59680497D01*
X178841000Y-59691916D01*
X178841000Y-60147000D01*
X180130679Y-60147000D01*
X180089209Y-58441571D01*
X180492000Y-58441571D01*
X180492000Y-60147000D01*
X181626681Y-60147000D01*
X181662590Y-58728598D01*
X181691339Y-58029294D01*
X181737636Y-57564137D01*
X181804048Y-57313718D01*
X181857250Y-57257514D01*
X181928681Y-57295971D01*
X181976582Y-57487615D01*
X182004362Y-57862899D01*
X182015429Y-58452277D01*
X182016000Y-58675916D01*
X182016000Y-60147000D01*
X183286000Y-60147000D01*
X183286000Y-58510069D01*
X183282796Y-58244016D01*
X183667000Y-58244016D01*
X183670039Y-58888181D01*
X183684505Y-59326834D01*
X183718421Y-59608442D01*
X183779807Y-59781469D01*
X183876687Y-59894383D01*
X183949258Y-59949298D01*
X184217773Y-60048461D01*
X184640087Y-60116591D01*
X185126334Y-60149347D01*
X185586650Y-60142386D01*
X185931169Y-60091365D01*
X186029237Y-60049805D01*
X186227278Y-59837009D01*
X186359740Y-59486278D01*
X186434839Y-58961218D01*
X186460791Y-58225435D01*
X186461000Y-58137418D01*
X186445592Y-57418983D01*
X186381466Y-56913873D01*
X186241766Y-56582355D01*
X185999637Y-56384696D01*
X185628224Y-56281165D01*
X185176219Y-56236562D01*
X184696589Y-56221276D01*
X184379360Y-56261337D01*
X184135818Y-56373904D01*
X184016250Y-56460930D01*
X183868338Y-56585961D01*
X183769488Y-56717439D01*
X183709814Y-56905832D01*
X183679432Y-57201610D01*
X183668456Y-57655242D01*
X183667000Y-58244016D01*
X183282796Y-58244016D01*
X183276457Y-57717865D01*
X183235737Y-57142343D01*
X183145704Y-56746518D01*
X182988220Y-56493407D01*
X182745149Y-56346025D01*
X182398354Y-56267390D01*
X182173563Y-56241636D01*
X181492207Y-56225274D01*
X180999674Y-56332555D01*
X180691380Y-56536762D01*
X180607322Y-56667565D01*
X180549703Y-56890190D01*
X180514179Y-57246135D01*
X180496407Y-57776897D01*
X180492000Y-58441571D01*
X180089209Y-58441571D01*
X180089089Y-58436671D01*
X180065974Y-57711891D01*
X180033988Y-57198876D01*
X179987547Y-56855413D01*
X179921067Y-56639290D01*
X179834732Y-56513940D01*
X179567629Y-56372144D01*
X179142716Y-56268259D01*
X178655004Y-56215758D01*
X178199504Y-56228114D01*
X178031267Y-56258194D01*
X177760771Y-56344695D01*
X177568399Y-56473390D01*
X177441013Y-56684445D01*
X177365472Y-57018027D01*
X177328636Y-57514303D01*
X177317364Y-58213440D01*
X177317000Y-58441571D01*
X176914209Y-58441571D01*
X176914089Y-58436671D01*
X176890974Y-57711891D01*
X176858988Y-57198876D01*
X176812547Y-56855413D01*
X176746067Y-56639290D01*
X176659732Y-56513940D01*
X176392629Y-56372144D01*
X175967716Y-56268259D01*
X175480004Y-56215758D01*
X175024504Y-56228114D01*
X174856267Y-56258194D01*
X174585771Y-56344695D01*
X174393399Y-56473390D01*
X174266013Y-56684445D01*
X174190472Y-57018027D01*
X174153636Y-57514303D01*
X174142364Y-58213440D01*
X174142000Y-58441571D01*
X173762702Y-58441571D01*
X173769627Y-57884720D01*
X173793424Y-57274351D01*
X173829264Y-56798162D01*
X173874021Y-56506884D01*
X173891764Y-56456965D01*
X174092992Y-56230689D01*
X174401578Y-56016783D01*
X174419063Y-56007573D01*
X174816007Y-55886357D01*
X175333565Y-55837843D01*
X175884229Y-55857740D01*
X175884229Y-55857740D01*
G37*
X175884229Y-55857740D02*
X176380490Y-55941754D01*
X176734839Y-56085595D01*
X176783640Y-56123549D01*
X176954901Y-56255466D01*
X177113644Y-56268183D01*
X177354865Y-56155076D01*
X177494232Y-56074000D01*
X177804890Y-55921806D01*
X178132693Y-55848573D01*
X178572950Y-55838383D01*
X178834435Y-55850199D01*
X179444932Y-55917167D01*
X179837191Y-56040604D01*
X179958640Y-56123549D01*
X180129901Y-56255466D01*
X180288644Y-56268183D01*
X180529865Y-56155076D01*
X180669232Y-56074000D01*
X180979890Y-55921806D01*
X181307693Y-55848573D01*
X181747950Y-55838383D01*
X182009435Y-55850199D01*
X182619932Y-55917167D01*
X183012191Y-56040604D01*
X183133640Y-56123549D01*
X183304901Y-56255466D01*
X183463644Y-56268183D01*
X183704865Y-56155076D01*
X183844232Y-56074000D01*
X184149176Y-55923757D01*
X184469622Y-55850155D01*
X184898587Y-55837956D01*
X185203803Y-55851293D01*
X186100079Y-55901937D01*
X188261171Y-58102235D01*
X188218335Y-59580391D01*
X188197405Y-60214969D01*
X188170453Y-60647876D01*
X188125788Y-60931379D01*
X188051717Y-61117743D01*
X187936549Y-61259236D01*
X187819168Y-61364773D01*
X187616773Y-61515480D01*
X187394678Y-61607040D01*
X187084551Y-61653746D01*
X186618057Y-61669893D01*
X186355176Y-61671000D01*
X185706275Y-61652823D01*
X185265326Y-61594146D01*
X184988606Y-61488750D01*
X184965258Y-61473298D01*
X184761403Y-61346592D01*
X184690154Y-61376415D01*
X184683000Y-61473298D01*
X184660764Y-61524079D01*
X184578712Y-61565468D01*
X184413831Y-61598402D01*
X184143103Y-61623817D01*
X183743516Y-61642647D01*
X183192052Y-61655829D01*
X182465697Y-61664299D01*
X181541437Y-61668992D01*
X180396255Y-61670844D01*
X179820475Y-61671000D01*
X174957951Y-61671000D01*
X174359475Y-61063387D01*
X173832139Y-60528000D01*
X174348478Y-60528000D01*
X174713500Y-60909000D01*
X175046328Y-61181518D01*
X175413057Y-61283406D01*
X175586521Y-61290000D01*
X176094521Y-61290000D01*
X175729500Y-60909000D01*
X175398788Y-60638214D01*
X176069696Y-60638214D01*
X176176197Y-60831262D01*
X176323137Y-60996064D01*
X176601603Y-61202393D01*
X176979008Y-61284130D01*
X177172398Y-61290000D01*
X177745521Y-61290000D01*
X177380500Y-60909000D01*
X177038980Y-60632504D01*
X176663621Y-60532395D01*
X176531239Y-60528000D01*
X177523478Y-60528000D01*
X177888500Y-60909000D01*
X178221328Y-61181518D01*
X178588057Y-61283406D01*
X178761521Y-61290000D01*
X179269521Y-61290000D01*
X178904500Y-60909000D01*
X178571671Y-60636481D01*
X178204942Y-60534593D01*
X178031478Y-60528000D01*
X179174478Y-60528000D01*
X179539500Y-60909000D01*
X179865112Y-61178159D01*
X180220793Y-61279360D01*
X180420510Y-61286277D01*
X180936500Y-61282554D01*
X180521746Y-60905277D01*
X180110872Y-60620504D01*
X179678097Y-60528427D01*
X179640735Y-60528000D01*
X180698478Y-60528000D01*
X181063500Y-60909000D01*
X181396328Y-61181518D01*
X181763057Y-61283406D01*
X181936521Y-61290000D01*
X182444521Y-61290000D01*
X182079500Y-60909000D01*
X181746671Y-60636481D01*
X181606693Y-60597591D01*
X182397000Y-60597591D01*
X182482957Y-60718845D01*
X182694890Y-60928618D01*
X182746250Y-60974578D01*
X183010384Y-61136859D01*
X183338671Y-61251688D01*
X183651308Y-61303555D01*
X183868495Y-61276946D01*
X183921000Y-61202935D01*
X183842420Y-61058611D01*
X183652582Y-60830187D01*
X183644862Y-60821935D01*
X183293719Y-60587536D01*
X182882862Y-60528000D01*
X182572879Y-60544107D01*
X182406176Y-60584136D01*
X182397000Y-60597591D01*
X181606693Y-60597591D01*
X181379942Y-60534593D01*
X181206478Y-60528000D01*
X180698478Y-60528000D01*
X179640735Y-60528000D01*
X179174478Y-60528000D01*
X178031478Y-60528000D01*
X177523478Y-60528000D01*
X176531239Y-60528000D01*
X176182581Y-60549411D01*
X176069696Y-60638214D01*
X175398788Y-60638214D01*
X175396671Y-60636481D01*
X175029942Y-60534593D01*
X174856478Y-60528000D01*
X174348478Y-60528000D01*
X173832139Y-60528000D01*
X173760999Y-60455775D01*
X173760999Y-60210500D01*
X183603500Y-60210500D01*
X183911387Y-60559750D01*
X184159598Y-60825139D01*
X184280120Y-60907539D01*
X184302000Y-60867637D01*
X184216805Y-60765535D01*
X184006507Y-60566271D01*
X183971901Y-60535445D01*
X184492500Y-60535445D01*
X184921110Y-60925103D01*
X185143448Y-61115653D01*
X185341394Y-61228195D01*
X185587374Y-61279570D01*
X185953811Y-61286618D01*
X186407068Y-61270630D01*
X186989586Y-61226563D01*
X187413313Y-61153731D01*
X187629458Y-61061399D01*
X187713773Y-60867768D01*
X187767206Y-60473684D01*
X187792042Y-59857699D01*
X187794500Y-59512703D01*
X187794500Y-58129107D01*
X186905500Y-57210007D01*
X186842000Y-58562586D01*
X186809975Y-59167792D01*
X186772352Y-59574980D01*
X186714999Y-59839989D01*
X186623786Y-60018656D01*
X186484582Y-60166820D01*
X186422168Y-60221582D01*
X186160349Y-60402847D01*
X185854869Y-60497270D01*
X185412373Y-60530180D01*
X185279168Y-60531722D01*
X184492500Y-60535445D01*
X183971901Y-60535445D01*
X183952750Y-60518387D01*
X183603500Y-60210500D01*
X173760999Y-60210500D01*
X173760999Y-58578538D01*
X173762702Y-58441571D01*
X174142000Y-58441571D01*
X174142000Y-60147000D01*
X175276681Y-60147000D01*
X175312590Y-58728598D01*
X175341339Y-58029294D01*
X175387636Y-57564137D01*
X175454048Y-57313718D01*
X175507250Y-57257514D01*
X175578681Y-57295971D01*
X175626582Y-57487615D01*
X175654362Y-57862899D01*
X175665429Y-58452277D01*
X175666000Y-58675916D01*
X175666000Y-60147000D01*
X176955679Y-60147000D01*
X176914209Y-58441571D01*
X177317000Y-58441571D01*
X177317000Y-60147000D01*
X177880453Y-60147000D01*
X178230357Y-60134530D01*
X178401011Y-60063894D01*
X178467028Y-59885249D01*
X178483703Y-59744030D01*
X178563063Y-59411121D01*
X178682266Y-59284719D01*
X178791501Y-59372089D01*
X178840960Y-59680497D01*
X178841000Y-59691916D01*
X178841000Y-60147000D01*
X180130679Y-60147000D01*
X180089209Y-58441571D01*
X180492000Y-58441571D01*
X180492000Y-60147000D01*
X181626681Y-60147000D01*
X181662590Y-58728598D01*
X181691339Y-58029294D01*
X181737636Y-57564137D01*
X181804048Y-57313718D01*
X181857250Y-57257514D01*
X181928681Y-57295971D01*
X181976582Y-57487615D01*
X182004362Y-57862899D01*
X182015429Y-58452277D01*
X182016000Y-58675916D01*
X182016000Y-60147000D01*
X183286000Y-60147000D01*
X183286000Y-58510069D01*
X183282796Y-58244016D01*
X183667000Y-58244016D01*
X183670039Y-58888181D01*
X183684505Y-59326834D01*
X183718421Y-59608442D01*
X183779807Y-59781469D01*
X183876687Y-59894383D01*
X183949258Y-59949298D01*
X184217773Y-60048461D01*
X184640087Y-60116591D01*
X185126334Y-60149347D01*
X185586650Y-60142386D01*
X185931169Y-60091365D01*
X186029237Y-60049805D01*
X186227278Y-59837009D01*
X186359740Y-59486278D01*
X186434839Y-58961218D01*
X186460791Y-58225435D01*
X186461000Y-58137418D01*
X186445592Y-57418983D01*
X186381466Y-56913873D01*
X186241766Y-56582355D01*
X185999637Y-56384696D01*
X185628224Y-56281165D01*
X185176219Y-56236562D01*
X184696589Y-56221276D01*
X184379360Y-56261337D01*
X184135818Y-56373904D01*
X184016250Y-56460930D01*
X183868338Y-56585961D01*
X183769488Y-56717439D01*
X183709814Y-56905832D01*
X183679432Y-57201610D01*
X183668456Y-57655242D01*
X183667000Y-58244016D01*
X183282796Y-58244016D01*
X183276457Y-57717865D01*
X183235737Y-57142343D01*
X183145704Y-56746518D01*
X182988220Y-56493407D01*
X182745149Y-56346025D01*
X182398354Y-56267390D01*
X182173563Y-56241636D01*
X181492207Y-56225274D01*
X180999674Y-56332555D01*
X180691380Y-56536762D01*
X180607322Y-56667565D01*
X180549703Y-56890190D01*
X180514179Y-57246135D01*
X180496407Y-57776897D01*
X180492000Y-58441571D01*
X180089209Y-58441571D01*
X180089089Y-58436671D01*
X180065974Y-57711891D01*
X180033988Y-57198876D01*
X179987547Y-56855413D01*
X179921067Y-56639290D01*
X179834732Y-56513940D01*
X179567629Y-56372144D01*
X179142716Y-56268259D01*
X178655004Y-56215758D01*
X178199504Y-56228114D01*
X178031267Y-56258194D01*
X177760771Y-56344695D01*
X177568399Y-56473390D01*
X177441013Y-56684445D01*
X177365472Y-57018027D01*
X177328636Y-57514303D01*
X177317364Y-58213440D01*
X177317000Y-58441571D01*
X176914209Y-58441571D01*
X176914089Y-58436671D01*
X176890974Y-57711891D01*
X176858988Y-57198876D01*
X176812547Y-56855413D01*
X176746067Y-56639290D01*
X176659732Y-56513940D01*
X176392629Y-56372144D01*
X175967716Y-56268259D01*
X175480004Y-56215758D01*
X175024504Y-56228114D01*
X174856267Y-56258194D01*
X174585771Y-56344695D01*
X174393399Y-56473390D01*
X174266013Y-56684445D01*
X174190472Y-57018027D01*
X174153636Y-57514303D01*
X174142364Y-58213440D01*
X174142000Y-58441571D01*
X173762702Y-58441571D01*
X173769627Y-57884720D01*
X173793424Y-57274351D01*
X173829264Y-56798162D01*
X173874021Y-56506884D01*
X173891764Y-56456965D01*
X174092992Y-56230689D01*
X174401578Y-56016783D01*
X174419063Y-56007573D01*
X174816007Y-55886357D01*
X175333565Y-55837843D01*
X175884229Y-55857740D01*
G36*
X178783243Y-57309456D02*
X178832884Y-57569472D01*
X178841000Y-57850416D01*
X178809425Y-58242942D01*
X178728434Y-58466568D01*
X178618631Y-58492168D01*
X178510565Y-58317589D01*
X178465607Y-58030034D01*
X178491930Y-57687016D01*
X178572530Y-57393583D01*
X178682250Y-57256947D01*
X178783243Y-57309456D01*
X178783243Y-57309456D01*
G37*
X178783243Y-57309456D02*
X178832884Y-57569472D01*
X178841000Y-57850416D01*
X178809425Y-58242942D01*
X178728434Y-58466568D01*
X178618631Y-58492168D01*
X178510565Y-58317589D01*
X178465607Y-58030034D01*
X178491930Y-57687016D01*
X178572530Y-57393583D01*
X178682250Y-57256947D01*
X178783243Y-57309456D01*
G36*
X185098243Y-57273854D02*
X185156903Y-57447483D01*
X185184935Y-57791987D01*
X185191000Y-58242000D01*
X185177155Y-58801391D01*
X185130812Y-59130715D01*
X185044757Y-59252645D01*
X184911777Y-59189851D01*
X184894666Y-59173333D01*
X184853415Y-59013277D01*
X184823282Y-58669876D01*
X184810153Y-58213734D01*
X184810000Y-58157333D01*
X184820359Y-57661324D01*
X184857739Y-57372505D01*
X184931590Y-57244673D01*
X185000500Y-57226000D01*
X185098243Y-57273854D01*
X185098243Y-57273854D01*
G37*
X185098243Y-57273854D02*
X185156903Y-57447483D01*
X185184935Y-57791987D01*
X185191000Y-58242000D01*
X185177155Y-58801391D01*
X185130812Y-59130715D01*
X185044757Y-59252645D01*
X184911777Y-59189851D01*
X184894666Y-59173333D01*
X184853415Y-59013277D01*
X184823282Y-58669876D01*
X184810153Y-58213734D01*
X184810000Y-58157333D01*
X184820359Y-57661324D01*
X184857739Y-57372505D01*
X184931590Y-57244673D01*
X185000500Y-57226000D01*
X185098243Y-57273854D01*
D12*
X151000000Y-51000000D03*
D13*
X153500000Y-51000000D03*
D14*
X151000000Y-31000000D03*
D15*
X153540000Y-31000000D03*
D16*
X156725000Y-77350000D03*
X156725000Y-67850000D03*
X149225000Y-75350000D03*
D17*
X152225000Y-64100000D03*
D18*
X149000000Y-56000000D03*
D19*
X149000000Y-58540000D03*
D10*
G36*
X162136940Y-52398880D02*
X162136940Y-49601120D01*
X166037060Y-49999900D01*
X166037060Y-52000100D01*
X162136940Y-52398880D01*
X162136940Y-52398880D01*
G37*
G36*
X170863060Y-49601120D02*
X170863060Y-52398880D01*
X166962940Y-52000100D01*
X166962940Y-49999900D01*
X170863060Y-49601120D01*
X170863060Y-49601120D01*
G37*
D20*
X161498740Y-51000000D03*
X171501260Y-51000000D03*
D10*
G36*
X199863060Y-49601120D02*
X199863060Y-52398880D01*
X195962940Y-52000100D01*
X195962940Y-49999900D01*
X199863060Y-49601120D01*
X199863060Y-49601120D01*
G37*
G36*
X191136940Y-52398880D02*
X191136940Y-49601120D01*
X195037060Y-49999900D01*
X195037060Y-52000100D01*
X191136940Y-52398880D01*
X191136940Y-52398880D01*
G37*
D20*
X200501260Y-51000000D03*
X190498740Y-51000000D03*
D15*
X193000000Y-69000000D03*
X195500000Y-69000000D03*
X198000000Y-69000000D03*
D21*
X191100000Y-62000000D03*
X199900000Y-62000000D03*
D15*
X164000000Y-69000000D03*
X166500000Y-69000000D03*
X169000000Y-69000000D03*
D21*
X162100000Y-62000000D03*
X170900000Y-62000000D03*
D22*
X210627000Y-54600000D03*
X213167000Y-54600000D03*
X213167000Y-52060000D03*
X210627000Y-52060000D03*
X213167000Y-49520000D03*
X197800000Y-77460000D03*
X192720000Y-77460000D03*
X190180000Y-77460000D03*
X187640000Y-77460000D03*
X185100000Y-77460000D03*
X182560000Y-77460000D03*
X180020000Y-77460000D03*
X177480000Y-77460000D03*
X210500000Y-29200000D03*
X207960000Y-29200000D03*
X205420000Y-29200000D03*
X202880000Y-29200000D03*
X200340000Y-29200000D03*
X197800000Y-29200000D03*
X195260000Y-29200000D03*
X192720000Y-29200000D03*
X173416000Y-29200000D03*
X188656000Y-29200000D03*
X186116000Y-29200000D03*
X183576000Y-29200000D03*
D23*
X213040000Y-72380000D03*
X213040000Y-44440000D03*
X162240000Y-29200000D03*
X160970000Y-77460000D03*
D22*
X165796000Y-29200000D03*
X168336000Y-29200000D03*
X170876000Y-29200000D03*
X175956000Y-29200000D03*
X178496000Y-29200000D03*
X181036000Y-29200000D03*
X174940000Y-77460000D03*
X200340000Y-77460000D03*
X202880000Y-77460000D03*
X205420000Y-77460000D03*
X207960000Y-77460000D03*
X210500000Y-77460000D03*
X210627000Y-49520000D03*
D24*
X208000000Y-36800000D03*
D25*
X208000000Y-38900000D03*
X208000000Y-40900000D03*
X208000000Y-42900000D03*
D24*
X208000000Y-45000000D03*
X200000000Y-36800000D03*
D25*
X200000000Y-38900000D03*
X200000000Y-40900000D03*
X200000000Y-42900000D03*
D24*
X200000000Y-45000000D03*
X192000000Y-36800000D03*
D25*
X192000000Y-38900000D03*
X192000000Y-40900000D03*
X192000000Y-42900000D03*
D24*
X192000000Y-45000000D03*
X184000000Y-36800000D03*
D25*
X184000000Y-38900000D03*
X184000000Y-40900000D03*
X184000000Y-42900000D03*
D24*
X184000000Y-45000000D03*
X176000000Y-36800000D03*
D25*
X176000000Y-38900000D03*
X176000000Y-40900000D03*
X176000000Y-42900000D03*
D24*
X176000000Y-45000000D03*
X168000000Y-36800000D03*
D25*
X168000000Y-38900000D03*
X168000000Y-40900000D03*
X168000000Y-42900000D03*
D24*
X168000000Y-45000000D03*
X160000000Y-36800000D03*
D25*
X160000000Y-38900000D03*
X160000000Y-40900000D03*
X160000000Y-42900000D03*
D24*
X160000000Y-45000000D03*
X152000000Y-36800000D03*
D25*
X152000000Y-38900000D03*
X152000000Y-40900000D03*
X152000000Y-42900000D03*
D24*
X152000000Y-45000000D03*
X212000000Y-59800000D03*
D25*
X212000000Y-61900000D03*
X212000000Y-63900000D03*
X212000000Y-65900000D03*
D24*
X212000000Y-68000000D03*
D10*
G36*
X185363060Y-49601120D02*
X185363060Y-52398880D01*
X181462940Y-52000100D01*
X181462940Y-49999900D01*
X185363060Y-49601120D01*
X185363060Y-49601120D01*
G37*
G36*
X176636940Y-52398880D02*
X176636940Y-49601120D01*
X180537060Y-49999900D01*
X180537060Y-52000100D01*
X176636940Y-52398880D01*
X176636940Y-52398880D01*
G37*
D20*
X186001260Y-51000000D03*
X175998740Y-51000000D03*
M02*
