M48
;DRILL file {KiCad 4.0.7} date Sunday, 25 '25e' March '25e' 2018, 12:10:02
;FORMAT={-:-/ absolute / inch / decimal}
FMAT,2
INCH,TZ
T1C0.016
T2C0.031
T3C0.035
T4C0.039
T5C0.039
T6C0.040
%
G90
G05
M72
T1
X5.9882Y-2.7638
X6.0669Y-2.8425
X6.4528Y-1.6102
X6.7018Y-1.6093
X6.7126Y-1.3091
X6.7126Y-1.378
X6.7126Y-1.4665
X6.7815Y-1.2008
X6.8012Y-1.378
X6.8012Y-1.4665
X6.8022Y-1.6102
X6.8799Y-1.3091
X7.2362Y-2.9626
X7.311Y-1.8858
X7.3376Y-2.9626
X7.7244Y-2.8228
X7.8169Y-2.9114
T2
X5.9449Y-2.0079
X5.9843Y-1.5315
X5.9843Y-1.6102
X5.9843Y-1.689
X6.0433Y-2.0079
X6.2992Y-1.5315
X6.2992Y-1.6102
X6.2992Y-1.689
X6.6142Y-1.5315
X6.6142Y-1.6102
X6.6142Y-1.689
X6.9291Y-1.5315
X6.9291Y-1.6102
X6.9291Y-1.689
X7.0276Y-2.0079
X7.2244Y-2.0079
X7.2441Y-1.5315
X7.2441Y-1.6102
X7.2441Y-1.689
X7.5591Y-1.5315
X7.5591Y-1.6102
X7.5591Y-1.689
X7.874Y-1.5315
X7.874Y-1.6102
X7.874Y-1.689
X8.189Y-1.5315
X8.189Y-1.6102
X8.189Y-1.689
X8.3465Y-2.437
X8.3465Y-2.5157
X8.3465Y-2.5945
T3
X5.9449Y-1.2205
X6.0449Y-1.2205
T4
X5.8661Y-2.2047
X5.8661Y-2.3047
X6.4567Y-2.7165
X6.5551Y-2.7165
X6.6535Y-2.7165
X7.5984Y-2.7165
X7.6969Y-2.7165
X7.7953Y-2.7165
T5
X6.3582Y-2.0079
X6.752Y-2.0079
X7.5Y-2.0079
X7.8938Y-2.0079
T6
X6.5274Y-1.1496
X6.6274Y-1.1496
X6.7274Y-1.1496
X6.8274Y-1.1496
X6.8874Y-3.0496
X6.9274Y-1.1496
X6.9874Y-3.0496
X7.0274Y-1.1496
X7.0874Y-3.0496
X7.1274Y-1.1496
X7.1874Y-3.0496
X7.2274Y-1.1496
X7.2874Y-3.0496
X7.3274Y-1.1496
X7.3874Y-3.0496
X7.4274Y-1.1496
X7.4874Y-3.0496
X7.5874Y-1.1496
X7.5874Y-3.0496
X7.6874Y-1.1496
X7.7874Y-1.1496
X7.7874Y-3.0496
X7.8874Y-1.1496
X7.8874Y-3.0496
X7.9874Y-1.1496
X7.9874Y-3.0496
X8.0874Y-1.1496
X8.0874Y-3.0496
X8.1874Y-1.1496
X8.1874Y-3.0496
X8.2874Y-1.1496
X8.2874Y-3.0496
X8.2924Y-1.9496
X8.2924Y-2.0496
X8.2924Y-2.1496
X8.3924Y-1.9496
X8.3924Y-2.0496
X8.3924Y-2.1496
T0
M30
